<?xml version="1.0" encoding="UTF-8" standalone="no"?>
<!-- Created with Inkscape (http://www.inkscape.org/) -->

<svg
   xmlns:dc="http://purl.org/dc/elements/1.1/"
   xmlns:cc="http://creativecommons.org/ns#"
   xmlns:rdf="http://www.w3.org/1999/02/22-rdf-syntax-ns#"
   xmlns:svg="http://www.w3.org/2000/svg"
   xmlns="http://www.w3.org/2000/svg"
   xmlns:xlink="http://www.w3.org/1999/xlink"
   xmlns:sodipodi="http://sodipodi.sourceforge.net/DTD/sodipodi-0.dtd"
   xmlns:inkscape="http://www.inkscape.org/namespaces/inkscape"
   width="337mm"
   height="141mm"
   viewBox="0 0 337 141"
   version="1.1"
   id="svg8"
   inkscape:version="0.92.4 (5da689c313, 2019-01-14)"
   sodipodi:docname="logo-alt5-v1-tmp.svg">
  <defs
     id="defs2" />
  <sodipodi:namedview
     id="base"
     pagecolor="#ffffff"
     bordercolor="#666666"
     borderopacity="1.0"
     inkscape:pageopacity="0.0"
     inkscape:pageshadow="2"
     inkscape:zoom="1"
     inkscape:cx="593.00078"
     inkscape:cy="241.96483"
     inkscape:document-units="mm"
     inkscape:current-layer="layer1"
     showgrid="false"
     inkscape:window-width="2560"
     inkscape:window-height="1395"
     inkscape:window-x="78"
     inkscape:window-y="0"
     inkscape:window-maximized="0" />
  <metadata
     id="metadata5">
    <rdf:RDF>
      <cc:Work
         rdf:about="">
        <dc:format>image/svg+xml</dc:format>
        <dc:type
           rdf:resource="http://purl.org/dc/dcmitype/StillImage" />
        <dc:title></dc:title>
      </cc:Work>
    </rdf:RDF>
  </metadata>
  <g
     inkscape:label="Layer 1"
     inkscape:groupmode="layer"
     id="layer1"
     transform="translate(0,-156)">
    <text
       xml:space="preserve"
       style="font-style:normal;font-variant:normal;font-weight:600;font-stretch:normal;font-size:19.75555611000000056px;line-height:1.25;font-family:'URW Gothic L';-inkscape-font-specification:'URW Gothic L Semi-Bold';letter-spacing:0px;word-spacing:0px;fill:#000000;fill-opacity:1;stroke:none;stroke-width:0.26458332;"
       x="101.23885"
       y="218.45039"
       id="text1538"><tspan
         sodipodi:role="line"
         x="101.23885"
         y="218.45039"
         style="font-style:normal;font-variant:normal;font-weight:bold;font-stretch:normal;font-size:16.93333333px;font-family:'Heiti TC';-inkscape-font-specification:'Heiti TC Bold';stroke-width:0.26458332"
         id="tspan1540">APACHE</tspan></text>
    <path
       sodipodi:type="inkscape:offset"
       inkscape:radius="0"
       inkscape:original="M 122.28516 223.55078 C 117.69199 223.55078 113.40457 224.64481 109.42383 226.83203 C 105.44308 229.01925 102.31573 232.03721 100.04102 235.88672 C 97.810049 239.73623 96.695312 243.93691 96.695312 248.48633 C 96.695313 255.8354 99.122882 261.91467 103.97852 266.72656 C 108.83415 271.53845 115.06815 273.94531 122.67969 273.94531 C 131.69104 273.94531 138.77761 270.61986 143.93945 263.9707 L 139.54297 260.625 C 134.99355 265.91808 129.63476 268.56445 123.4668 268.56445 C 117.29883 268.56445 112.26826 266.70461 108.375 262.98633 C 104.52549 259.22431 102.59961 254.56531 102.59961 249.00977 C 102.59961 243.41048 104.56886 238.6874 108.50586 234.83789 C 112.4866 230.98838 117.21163 229.0625 122.67969 229.0625 C 129.37259 229.0625 134.99355 231.81828 139.54297 237.33008 L 143.87305 233.98438 C 141.42336 230.57231 138.36203 227.99197 134.6875 226.24219 C 131.05671 224.44867 126.92207 223.55078 122.28516 223.55078 z M 195.65039 223.55078 L 195.65039 272.76367 L 201.03125 272.76367 L 201.03125 223.55078 L 195.65039 223.55078 z M 253.83398 223.55078 C 252.69663 223.55078 251.712 223.96768 250.88086 224.79883 C 250.09346 225.62997 249.69922 226.61264 249.69922 227.75 C 249.69922 228.84361 250.09346 229.80753 250.88086 230.63867 C 251.712 231.46982 252.69663 231.88477 253.83398 231.88477 C 255.01508 231.88477 255.99971 231.49053 256.78711 230.70312 C 257.61825 229.87198 258.0332 228.88736 258.0332 227.75 C 258.0332 226.5689 257.61825 225.58623 256.78711 224.79883 C 255.99971 223.96768 255.01508 223.55078 253.83398 223.55078 z M 268.80859 223.55078 L 268.80859 237.00195 L 262.64062 237.00195 L 262.64062 241.72656 L 268.80859 241.72656 L 268.80859 267.51367 C 268.80859 269.74464 269.31224 271.38568 270.31836 272.43555 C 271.32448 273.44167 272.87683 273.94531 274.97656 273.94531 C 276.07017 273.94531 277.66589 273.76988 279.76562 273.41992 L 279.76562 268.76172 L 276.61719 268.76172 C 275.56732 268.76172 274.9109 268.67302 274.64844 268.49805 C 274.38597 268.27932 274.25391 267.7116 274.25391 266.79297 L 274.25391 241.72656 L 281.3418 241.72656 L 281.3418 237.00195 L 274.25391 237.00195 L 274.25391 223.55078 L 268.80859 223.55078 z M 168.57812 236.08398 C 163.37254 236.08398 158.95501 237.94383 155.32422 241.66211 C 151.69343 245.33664 149.87695 249.77683 149.87695 254.98242 C 149.87695 260.14427 151.67077 264.60517 155.25781 268.36719 C 158.8886 272.08547 163.2401 273.94531 168.31445 273.94531 C 173.38881 273.94531 177.87432 271.80063 181.76758 267.51367 L 181.76758 272.76367 L 187.08203 272.76367 L 187.08203 237.00195 L 181.76758 237.00195 L 181.76758 242.44922 C 178.22428 238.20601 173.82746 236.08398 168.57812 236.08398 z M 227.75195 236.08398 C 221.84645 236.08398 217.03468 237.96454 213.31641 241.72656 C 209.59813 245.44484 207.73828 249.9284 207.73828 255.17773 C 207.73828 260.42707 209.57547 264.86726 213.25 268.49805 C 216.96828 272.12884 221.5839 273.94531 227.0957 273.94531 C 230.639 273.94531 233.91913 273.22286 236.9375 271.7793 C 239.99961 270.33573 242.4725 268.23637 244.35352 265.48047 L 240.1543 262.59375 C 236.74223 266.79322 232.54155 268.89258 227.55469 268.89258 C 223.39897 268.89258 219.96606 267.51371 217.25391 264.75781 C 214.54175 262.00191 213.18555 258.69912 213.18555 254.84961 C 213.18555 251.0001 214.56246 247.786 217.31836 245.20508 C 220.07426 242.58041 223.48645 241.26758 227.55469 241.26758 C 232.71653 241.26758 236.89455 243.34623 240.08789 247.50195 L 244.35352 244.81055 C 242.69123 242.05465 240.37111 239.91191 237.39648 238.38086 C 234.46561 236.8498 231.25151 236.08398 227.75195 236.08398 z M 303.90234 236.08398 C 298.69675 236.08398 294.3226 237.94383 290.7793 241.66211 C 287.27974 245.38039 285.53125 249.84129 285.53125 255.04688 C 285.53125 260.25246 287.27974 264.71532 290.7793 268.43359 C 294.27885 272.10813 298.71904 273.94531 304.09961 273.94531 C 307.99287 273.94531 311.33903 273.04743 314.13867 271.25391 C 316.93832 269.41664 319.36589 266.59483 321.42188 262.78906 L 316.83008 260.42773 C 313.81171 266.07077 309.43755 268.89258 303.70703 268.89258 C 300.33871 268.89258 297.4282 267.71181 294.97852 265.34961 C 292.57257 262.94366 291.26169 259.77098 291.04297 255.83398 L 322.40625 255.83398 C 322.27502 249.70976 320.46049 244.89799 316.96094 241.39844 C 313.46138 237.85514 309.10793 236.08398 303.90234 236.08398 z M 251.14258 237.00195 L 251.14258 272.76367 L 256.58984 272.76367 L 256.58984 237.00195 L 251.14258 237.00195 z M 168.64258 241.33398 C 172.4046 241.33398 175.57728 242.66753 178.1582 245.33594 C 180.73913 247.9606 182.0293 251.24073 182.0293 255.17773 C 182.0293 259.07099 180.71646 262.33041 178.0918 264.95508 C 175.46713 267.57974 172.33977 268.89258 168.70898 268.89258 C 165.03445 268.89258 161.88443 267.53637 159.25977 264.82422 C 156.6351 262.06832 155.32422 258.83156 155.32422 255.11328 C 155.32422 251.395 156.61439 248.17895 159.19531 245.4668 C 161.77623 242.7109 164.9243 241.33398 168.64258 241.33398 z M 303.90234 241.33398 C 306.92071 241.33398 309.58975 242.18654 311.9082 243.89258 C 314.22666 245.59861 315.71493 247.98281 316.37109 251.04492 L 291.69922 251.04492 C 293.71146 244.57074 297.77812 241.33398 303.90234 241.33398 z "
       xlink:href="#text1546"
       style="font-style:normal;font-variant:normal;font-weight:normal;font-stretch:normal;font-size:65.6166687px;line-height:1.25;font-family:Silom;-inkscape-font-specification:Silom;letter-spacing:0px;word-spacing:0px;fill:#000000;fill-opacity:1;stroke:none;stroke-width:0.26458332"
       id="path1569"
       inkscape:href="#text1546"
       d="m 110.01562,227.48828 c -3.06211,0 -5.66511,1.09403 -7.80859,3.28125 -2.09973,2.14348 -3.150389,4.70116 -3.150389,7.67578 v 27.29688 c 0,3.01836 1.071369,5.60066 3.214839,7.74414 2.18723,2.14348 4.76952,3.21484 7.74414,3.21484 h 10.95704 c 6.82413,0 10.45513,-3.65366 10.89257,-10.95898 h -5.44531 c -0.3937,3.67453 -2.21017,5.51172 -5.44726,5.51172 h -5.51172 c -1.48731,0 -2.77749,-0.54702 -3.8711,-1.64063 -1.04986,-1.09361 -1.57422,-2.38378 -1.57422,-3.87109 v -27.29688 c 0,-1.53105 0.52436,-2.82122 1.57422,-3.87109 1.09361,-1.09361 2.38379,-1.64063 3.8711,-1.64063 h 5.51172 c 3.19334,0 5.00982,1.83719 5.44726,5.51172 h 5.44531 c -0.3937,-7.30532 -4.0247,-10.95703 -10.89257,-10.95703 z m 76.70118,0 v 49.21289 h 10.95703 v -49.21289 z m 60.23437,0 v 5.44531 h 10.95703 v -5.44531 z m 27.42578,0 v 10.95703 h -5.51172 v 5.44727 h 5.51172 v 21.84961 c 0,3.01836 1.07332,5.60066 3.2168,7.74414 2.14348,2.14348 4.70116,3.21484 7.67578,3.21484 h 5.51172 v -5.44726 h -0.52539 c -0.96238,0 -2.03374,-0.45832 -3.21484,-1.37696 -1.1811,-0.96237 -1.77149,-2.34124 -1.77149,-4.13476 v -21.84961 h 5.51172 v -5.44727 h -5.51172 V 227.48828 Z M 153.8457,238.44531 c -6.43043,0 -10.08409,3.631 -10.95898,10.89258 h 5.51172 c 0.3937,-3.63079 2.21017,-5.44531 5.44726,-5.44531 h 5.44532 c 1.53105,0 2.82122,0.54701 3.87109,1.64062 1.09361,1.04987 1.64062,2.31738 1.64062,3.80469 v 5.51172 H 153.8457 c -2.97462,0 -5.55692,1.07332 -7.74414,3.2168 -2.14348,2.14347 -3.21484,4.70116 -3.21484,7.67578 0,3.01836 1.07136,5.60066 3.21484,7.74414 2.18722,2.14348 4.76952,3.21484 7.74414,3.21484 h 5.44532 c 3.23708,0 5.07427,-1.81647 5.51171,-5.44726 v 5.44726 h 10.89258 v -27.36328 c 0,-2.97462 -1.07136,-5.5323 -3.21484,-7.67578 -2.14348,-2.14348 -4.70311,-3.2168 -7.67774,-3.2168 z m 65.74414,0 c -2.97462,0 -5.55496,1.07332 -7.74218,3.2168 -2.14348,2.14348 -3.2168,4.70116 -3.2168,7.67578 v 16.4043 c 0,3.01836 1.07332,5.60066 3.2168,7.74414 2.18722,2.14348 4.76756,3.21484 7.74218,3.21484 h 5.44532 c 6.86787,0 10.52154,-3.65366 10.95898,-10.95898 h -5.44726 c -0.43745,3.67453 -2.27463,5.51172 -5.51172,5.51172 -1.48731,0 -2.77749,-0.54702 -3.8711,-1.64063 -1.04986,-1.09361 -1.57422,-2.38378 -1.57422,-3.87109 v -16.4043 c 0,-1.48731 0.52436,-2.75482 1.57422,-3.80469 1.09361,-1.09361 2.38379,-1.64062 3.8711,-1.64062 3.23709,0 5.07427,1.81452 5.51172,5.44531 h 5.44726 c -0.3937,-7.26158 -4.04736,-10.89258 -10.95898,-10.89258 z m 27.36133,0 v 38.25586 h 10.95703 v -38.25586 z m 65.68164,0 c -2.97462,0 -5.55692,1.07332 -7.74414,3.2168 -2.14348,2.14348 -3.21484,4.70116 -3.21484,7.67578 v 16.4043 c 0,3.01836 1.07136,5.60066 3.21484,7.74414 2.18722,2.14348 4.76952,3.21484 7.74414,3.21484 h 10.95703 c 6.43044,0 10.06144,-3.65366 10.89258,-10.95898 h -5.44531 c 0,3.67453 -1.81648,5.51172 -5.44727,5.51172 h -5.51172 c -1.48731,0 -2.77748,-0.54702 -3.87109,-1.64063 -1.04987,-1.09361 -1.57422,-2.38378 -1.57422,-3.87109 v -5.44531 h 21.84961 v -10.95899 c 0,-2.97462 -1.07136,-5.5323 -3.21484,-7.67578 -2.14348,-2.14348 -4.70311,-3.2168 -7.67774,-3.2168 z m 5.44531,5.44727 c 1.53106,0 2.82123,0.54701 3.8711,1.64062 1.09361,1.04987 1.64062,2.31738 1.64062,3.80469 v 5.51172 h -10.95703 v -5.51172 c 0,-1.48731 0.52435,-2.75482 1.57422,-3.80469 1.09361,-1.09361 2.38378,-1.64062 3.87109,-1.64062 z m -158.7871,16.4043 h 5.51171 v 5.44531 c 0,1.48731 -0.54701,2.77748 -1.64062,3.87109 -1.04987,1.09361 -2.34004,1.64063 -3.87109,1.64063 -1.48732,0 -2.77749,-0.54702 -3.8711,-1.64063 -1.04986,-1.09361 -1.57422,-2.38378 -1.57422,-3.87109 0,-1.48731 0.52436,-2.75482 1.57422,-3.80469 1.09361,-1.09361 2.38378,-1.64062 3.8711,-1.64062 z" />
    <text
       xml:space="preserve"
       style="font-style:normal;font-variant:normal;font-weight:bold;font-stretch:normal;font-size:65.61666870000000529px;line-height:1.25;-inkscape-font-specification:'Heiti TC Bold';letter-spacing:0px;word-spacing:0px;fill:#000000;fill-opacity:1;stroke:none;stroke-width:0.26458332;font-family:'Heiti TC';"
       x="93.610832"
       y="276.70068"
       id="text1546"><tspan
         sodipodi:role="line"
         id="tspan1544"
         x="93.610832"
         y="276.70068"
         style="font-style:normal;font-variant:normal;font-weight:bold;font-stretch:normal;font-size:65.61666870000000529px;-inkscape-font-specification:'Heiti TC Bold';stroke-width:0.26458332;font-family:'Heiti TC';fill:#000000;">Calcite<tspan
   style="font-size:14.11111069000000029px;line-height:0.25;baseline-shift:super;-inkscape-font-specification:'Heiti TC Bold';font-weight:bold;font-style:normal;font-stretch:normal;font-variant:normal;font-family:'Heiti TC';fill:#000000;"
   id="tspan1208" /></tspan></text>
    <text
       xml:space="preserve"
       style="font-style:normal;font-variant:normal;font-weight:normal;font-stretch:normal;font-size:10.58333302px;line-height:1.25;font-family:Silom;-inkscape-font-specification:Silom;letter-spacing:0px;word-spacing:0px;fill:#000000;fill-opacity:1;stroke:none;stroke-width:0.26458332"
       x="310.88541"
       y="230.58957"
       id="text939"><tspan
         sodipodi:role="line"
         id="tspan937"
         x="310.88541"
         y="230.58957"
         style="font-style:normal;font-variant:normal;font-weight:bold;font-stretch:normal;font-family:'Heiti TC';-inkscape-font-specification:'Heiti TC Bold';stroke-width:0.26458332">TM</tspan></text>
    <path
       style="opacity:1;fill:#ffffff;fill-opacity:1;fill-rule:nonzero;stroke:#000000;stroke-width:0.68314427;stroke-miterlimit:4;stroke-dasharray:none;stroke-opacity:1"
       inkscape:transform-center-x="-0.054836836"
       inkscape:transform-center-y="-5.3264051"
       d="m 71.480906,276.02902 -10.362104,6.34377 -10.362104,-0.006 -10.362103,-0.006 -10.362104,-6.35622 -12.609864,-18.25722 33.65509,-82.75226 33.409855,82.79246 z"
       id="path1308"
       inkscape:connector-curvature="0"
       sodipodi:nodetypes="ccccccccc" />
    <path
       sodipodi:nodetypes="ccccccccc"
       inkscape:connector-curvature="0"
       id="path1313"
       d="m 71.480906,276.02902 -10.362104,-5.82706 -10.362104,-0.006 -10.362103,-0.006 -10.362104,5.81461 -12.609864,-18.25722 33.65509,-82.75226 33.409855,82.79246 z"
       inkscape:transform-center-y="-5.3264051"
       inkscape:transform-center-x="-0.054836836"
       style="opacity:1;fill:#ffffff;fill-opacity:1;fill-rule:nonzero;stroke:#000000;stroke-width:0.68314427;stroke-miterlimit:4;stroke-dasharray:none;stroke-opacity:1" />
    <path
       style="opacity:1;fill:#ffffff;fill-opacity:1;fill-rule:nonzero;stroke:#000000;stroke-width:0.68314427;stroke-miterlimit:4;stroke-dasharray:none;stroke-opacity:1"
       inkscape:transform-center-x="-0.054836836"
       inkscape:transform-center-y="-5.3264051"
       d="m 61.118802,247.44779 -10.362104,-0.006 -10.362103,-0.006 -22.971968,10.31156 33.65509,-82.75226 33.409855,82.79246 z"
       id="path1315"
       inkscape:connector-curvature="0"
       sodipodi:nodetypes="ccccccc" />
    <path
       style="opacity:1;fill:none;fill-opacity:1;fill-rule:nonzero;stroke:#000000;stroke-width:0.68314427;stroke-miterlimit:4;stroke-dasharray:none;stroke-opacity:1"
       inkscape:transform-center-x="-0.054836836"
       inkscape:transform-center-y="-5.3264051"
       d="m 61.118802,270.20196 -20.724207,-0.012 v -22.75417 l 10.683122,-72.4407 10.041085,72.4527 z"
       id="path1319"
       inkscape:connector-curvature="0"
       sodipodi:nodetypes="cccccc" />
    <path
       style="opacity:1;fill:none;fill-opacity:1;fill-rule:nonzero;stroke:#000000;stroke-width:2.58196259;stroke-miterlimit:4;stroke-dasharray:none;stroke-opacity:1"
       d="M 193.04883 71.792969 L 152.67188 345.58398 L 191.83594 345.60742 L 231 345.62891 L 193.04883 71.792969 z "
       transform="matrix(0.26458333,0,0,0.26458333,0,156)"
       id="path1321" />
  </g>
</svg>
