<?xml version="1.0" encoding="UTF-8" standalone="no"?>
<!-- Created with Inkscape (http://www.inkscape.org/) -->

<svg
   xmlns:dc="http://purl.org/dc/elements/1.1/"
   xmlns:cc="http://creativecommons.org/ns#"
   xmlns:rdf="http://www.w3.org/1999/02/22-rdf-syntax-ns#"
   xmlns:svg="http://www.w3.org/2000/svg"
   xmlns="http://www.w3.org/2000/svg"
   xmlns:xlink="http://www.w3.org/1999/xlink"
   xmlns:sodipodi="http://sodipodi.sourceforge.net/DTD/sodipodi-0.dtd"
   xmlns:inkscape="http://www.inkscape.org/namespaces/inkscape"
   width="318mm"
   height="125mm"
   viewBox="0 0 318 125"
   version="1.1"
   id="svg8"
   inkscape:version="0.92.4 (5da689c313, 2019-01-14)"
   sodipodi:docname="logo-alt5-v7.svg">
  <defs
     id="defs2" />
  <sodipodi:namedview
     id="base"
     pagecolor="#ffffff"
     bordercolor="#666666"
     borderopacity="1.0"
     inkscape:pageopacity="0.0"
     inkscape:pageshadow="2"
     inkscape:zoom="1"
     inkscape:cx="478.99641"
     inkscape:cy="153.26553"
     inkscape:document-units="mm"
     inkscape:current-layer="layer1"
     showgrid="false"
     inkscape:window-width="2560"
     inkscape:window-height="1395"
     inkscape:window-x="13"
     inkscape:window-y="0"
     inkscape:window-maximized="0" />
  <metadata
     id="metadata5">
    <rdf:RDF>
      <cc:Work
         rdf:about="">
        <dc:format>image/svg+xml</dc:format>
        <dc:type
           rdf:resource="http://purl.org/dc/dcmitype/StillImage" />
        <dc:title></dc:title>
      </cc:Work>
    </rdf:RDF>
  </metadata>
  <g
     inkscape:label="Layer 1"
     inkscape:groupmode="layer"
     id="layer1"
     transform="translate(0,-172)">
    <rect
       style="opacity:1;fill:#4d4d4d;fill-opacity:1;fill-rule:nonzero;stroke:none;stroke-width:0.31299999;stroke-miterlimit:4;stroke-dasharray:none;stroke-opacity:1"
       id="rect2298"
       width="315.64792"
       height="120.91458"
       x="1.5875"
       y="174.7625" />
    <path
       sodipodi:type="inkscape:offset"
       inkscape:radius="0.56474233"
       inkscape:original="M 90.384766 204.54883 L 84.525391 217.43359 L 86.134766 217.43359 L 88.03125 213.28516 L 93.144531 213.28516 L 95.058594 217.43359 L 96.599609 217.43359 L 90.824219 204.54883 L 90.384766 204.54883 z M 112.93945 204.54883 L 107.08203 217.43359 L 108.68945 217.43359 L 110.58594 213.28516 L 115.70117 213.28516 L 117.61328 217.43359 L 119.1543 217.43359 L 113.38086 204.54883 L 112.93945 204.54883 z M 126.79492 204.73438 C 125.60959 204.73438 124.50385 205.01759 123.47656 205.58203 C 122.44927 206.14648 121.64171 206.92455 121.05469 207.91797 C 120.47895 208.91139 120.19141 209.99588 120.19141 211.16992 C 120.19141 213.06646 120.8192 214.63518 122.07227 215.87695 C 123.32533 217.11873 124.93222 217.73828 126.89648 217.73828 C 129.222 217.73828 131.05072 216.88193 132.38281 215.16602 L 131.25 214.30078 C 130.07596 215.66674 128.69134 216.35156 127.09961 216.35156 C 125.50788 216.35156 124.20979 215.87166 123.20508 214.91211 C 122.21166 213.94126 121.71484 212.73838 121.71484 211.30469 C 121.71484 209.85971 122.22423 208.63991 123.24023 207.64648 C 124.26752 206.65306 125.48537 206.15625 126.89648 206.15625 C 128.62368 206.15625 130.07596 206.86862 131.25 208.29102 L 132.36719 207.42773 C 131.73501 206.5472 130.94436 205.87929 129.99609 205.42773 C 129.05912 204.96489 127.99154 204.73438 126.79492 204.73438 z M 98.195312 205.03906 L 98.195312 217.43359 L 99.650391 217.43359 L 99.650391 211.7793 L 100.39648 211.7793 C 101.83017 211.7793 102.82813 211.72226 103.39258 211.60938 C 103.95702 211.4852 104.43258 211.28222 104.81641 211 C 105.21152 210.70649 105.50969 210.3387 105.71289 209.89844 C 105.92738 209.45817 106.03516 208.96136 106.03516 208.4082 C 106.03516 207.85505 105.92738 207.35824 105.71289 206.91797 C 105.4984 206.4777 105.20023 206.11187 104.81641 205.81836 C 104.44387 205.52485 104.03163 205.32187 103.58008 205.20898 C 103.12852 205.0961 102.17935 205.03906 100.73438 205.03906 L 98.195312 205.03906 z M 134.49219 205.03906 L 134.49219 217.43359 L 135.96484 217.43359 L 135.96484 211.55859 L 141.9082 211.55859 L 141.9082 217.43359 L 143.36523 217.43359 L 143.36523 205.03906 L 141.9082 205.03906 L 141.9082 210.13672 L 135.96484 210.13672 L 135.96484 205.03906 L 134.49219 205.03906 z M 146.10156 205.03906 L 146.10156 217.43359 L 153.26367 217.43359 L 153.26367 215.99414 L 147.55664 215.99414 L 147.55664 211.45703 L 153.26367 211.45703 L 153.26367 210.03516 L 147.55664 210.03516 L 147.55664 206.47852 L 153.31445 206.47852 L 153.31445 205.03906 L 146.10156 205.03906 z M 99.650391 206.46094 L 101.68359 206.46094 C 103.58013 206.46094 104.52734 207.10564 104.52734 208.39258 C 104.52734 208.96831 104.31808 209.44821 103.90039 209.83203 C 103.49399 210.21585 102.72221 210.39562 101.58203 210.37305 L 99.650391 210.37305 L 99.650391 206.46094 z M 90.605469 207.63086 L 92.484375 211.8125 L 88.708984 211.8125 L 90.605469 207.63086 z M 113.16016 207.63086 L 115.03906 211.8125 L 111.26367 211.8125 L 113.16016 207.63086 z "
       xlink:href="#text1538"
       style="font-style:normal;font-variant:normal;font-weight:600;font-stretch:normal;font-size:19.75555611000000056px;line-height:1.25;font-family:'URW Gothic L';-inkscape-font-specification:'URW Gothic L Semi-Bold';letter-spacing:0px;word-spacing:0px;fill:#000000;fill-opacity:1;stroke:none;stroke-width:0.26458332"
       id="path2334"
       inkscape:href="#text1538"
       d="m 90.384766,203.98438 a 0.5647988,0.5647988 0 0 0 -0.513672,0.33007 l -5.859375,12.88477 a 0.5647988,0.5647988 0 0 0 0.513672,0.79883 h 1.609375 a 0.5647988,0.5647988 0 0 0 0.513672,-0.33008 l 1.746093,-3.81836 h 4.388672 l 1.761719,3.82031 a 0.5647988,0.5647988 0 0 0 0.513672,0.32813 h 1.541015 a 0.5647988,0.5647988 0 0 0 0.515625,-0.79493 l -5.77539,-12.88476 a 0.5647988,0.5647988 0 0 0 -0.515625,-0.33398 z m 22.554684,0 a 0.5647988,0.5647988 0 0 0 -0.51367,0.33007 l -5.85742,12.88477 a 0.5647988,0.5647988 0 0 0 0.51367,0.79883 h 1.60742 a 0.5647988,0.5647988 0 0 0 0.51367,-0.33008 l 1.7461,-3.81836 h 4.39062 l 1.75977,3.82031 a 0.5647988,0.5647988 0 0 0 0.51367,0.32813 h 1.54102 a 0.5647988,0.5647988 0 0 0 0.51562,-0.79493 l -5.77344,-12.88476 a 0.5647988,0.5647988 0 0 0 -0.51562,-0.33398 z m 13.85547,0.18554 c -1.27528,0 -2.48253,0.30956 -3.58984,0.91797 -1.10978,0.60978 -2,1.46544 -2.63672,2.54297 a 0.5647988,0.5647988 0 0 0 -0.002,0.004 c -0.62425,1.07711 -0.93946,2.2689 -0.93946,3.53515 0,2.02117 0.69188,3.76465 2.04688,5.10742 1.35781,1.34559 3.13964,2.02539 5.22265,2.02539 2.46416,0 4.50184,-0.94923 5.93164,-2.79101 a 0.5647988,0.5647988 0 0 0 -0.10156,-0.79492 l -1.13281,-0.86524 a 0.5647988,0.5647988 0 0 0 -0.77148,0.082 c -1.09179,1.27027 -2.29291,1.85352 -3.72266,1.85352 -1.47602,0 -2.60362,-0.42515 -3.5,-1.2793 l -0.002,-0.002 c -6.7e-4,-6.4e-4 -0.001,-0.001 -0.002,-0.002 -0.89113,-0.87278 -1.3164,-1.89802 -1.3164,-3.19922 0,-1.31226 0.43723,-2.35607 1.35547,-3.25391 0.93406,-0.90239 1.98412,-1.33008 3.26171,-1.33008 1.57192,0 2.83055,0.61223 3.91797,1.92969 a 0.5647988,0.5647988 0 0 0 0.78125,0.0879 l 1.11719,-0.86328 a 0.5647988,0.5647988 0 0 0 0.11328,-0.77734 c -0.68162,-0.9494 -1.55013,-1.68369 -2.58008,-2.17578 l -0.004,-0.002 c -1.022,-0.50402 -2.17971,-0.75 -3.44727,-0.75 z m -28.599608,0.30469 a 0.5647988,0.5647988 0 0 0 -0.564453,0.56445 v 12.39453 a 0.5647988,0.5647988 0 0 0 0.564453,0.56446 h 1.455079 a 0.5647988,0.5647988 0 0 0 0.564449,-0.56446 v -5.08984 h 0.18164 c 1.44867,0 2.45334,-0.0489 3.10743,-0.17969 a 0.5647988,0.5647988 0 0 0 0.01,-0.004 c 0.62556,-0.13763 1.17765,-0.36754 1.63672,-0.70508 a 0.5647988,0.5647988 0 0 0 0.002,-0.002 c 0.4653,-0.34564 0.82916,-0.79279 1.07032,-1.3125 0.25334,-0.52231 0.37695,-1.10806 0.37695,-1.73242 0,-0.62651 -0.12378,-1.21459 -0.37891,-1.73828 -0.24956,-0.51226 -0.60623,-0.95036 -1.05468,-1.29492 -4.7e-4,-3.7e-4 -0.001,3.7e-4 -0.002,0 -0.43185,-0.33993 -0.92022,-0.58308 -1.44726,-0.71484 -0.58877,-0.14718 -1.52259,-0.18555 -2.98242,-0.18555 z m 36.296878,0 a 0.5647988,0.5647988 0 0 0 -0.56446,0.56445 v 12.39453 a 0.5647988,0.5647988 0 0 0 0.56446,0.56446 h 1.47265 a 0.5647988,0.5647988 0 0 0 0.56446,-0.56446 v -5.31054 h 4.81445 v 5.31054 a 0.5647988,0.5647988 0 0 0 0.56445,0.56446 h 1.45703 a 0.5647988,0.5647988 0 0 0 0.56446,-0.56446 v -12.39453 a 0.5647988,0.5647988 0 0 0 -0.56446,-0.56445 h -1.45703 a 0.5647988,0.5647988 0 0 0 -0.56445,0.56445 v 4.53321 h -4.81445 v -4.53321 a 0.5647988,0.5647988 0 0 0 -0.56446,-0.56445 z m 11.60937,0 a 0.5647988,0.5647988 0 0 0 -0.56445,0.56445 v 12.39453 a 0.5647988,0.5647988 0 0 0 0.56445,0.56446 h 7.16211 a 0.5647988,0.5647988 0 0 0 0.56445,-0.56446 v -1.43945 a 0.5647988,0.5647988 0 0 0 -0.56445,-0.56445 h -5.14258 v -3.40821 h 5.14258 a 0.5647988,0.5647988 0 0 0 0.56445,-0.56445 v -1.42187 a 0.5647988,0.5647988 0 0 0 -0.56445,-0.56446 h -5.14258 v -2.42773 h 5.19336 a 0.5647988,0.5647988 0 0 0 0.56446,-0.56445 v -1.43946 a 0.5647988,0.5647988 0 0 0 -0.56446,-0.56445 z m -45.88672,2.55078 h 1.46875 c 0.88428,0 1.48727,0.16304 1.81641,0.38672 0.32914,0.22368 0.46289,0.47555 0.46289,0.98047 0,0.43888 -0.13112,0.73472 -0.44531,1.02344 a 0.5647988,0.5647988 0 0 0 -0.006,0.006 c -0.21092,0.19919 -0.84216,0.40801 -1.91797,0.38671 a 0.5647988,0.5647988 0 0 0 -0.0117,0 h -1.36719 z m -9.613278,1.97852 1.009766,2.24414 h -2.027344 z m 22.554688,0 1.00977,2.24414 h -2.02735 z" />
    <text
       xml:space="preserve"
       style="font-style:normal;font-variant:normal;font-weight:600;font-stretch:normal;font-size:19.75555611000000056px;line-height:1.25;font-family:'URW Gothic L';-inkscape-font-specification:'URW Gothic L Semi-Bold';letter-spacing:0px;word-spacing:0px;fill:#ffffff;fill-opacity:1;stroke:none;stroke-width:0.26458332;"
       x="84.305504"
       y="218.45039"
       id="text1538"><tspan
         sodipodi:role="line"
         x="84.305504"
         y="218.45039"
         style="font-style:normal;font-variant:normal;font-weight:bold;font-stretch:normal;font-size:16.93333244000000093px;font-family:'Heiti TC';-inkscape-font-specification:'Heiti TC Bold';fill:#ffffff;stroke-width:0.26458332;fill-opacity:1;"
         id="tspan1540">APACHE</tspan></text>
    <path
       sodipodi:type="inkscape:offset"
       inkscape:radius="0"
       inkscape:original="M 105.35156 223.55078 C 100.7584 223.55078 96.470979 224.64481 92.490234 226.83203 C 88.50949 229.01925 85.382133 232.03721 83.107422 235.88672 C 80.876455 239.73623 79.761719 243.93691 79.761719 248.48633 C 79.761719 255.8354 82.189288 261.91467 87.044922 266.72656 C 91.900555 271.53845 98.13456 273.94531 105.74609 273.94531 C 114.75745 273.94531 121.84401 270.61986 127.00586 263.9707 L 122.60938 260.625 C 118.05995 265.91808 112.70117 268.56445 106.5332 268.56445 C 100.36524 268.56445 95.334662 266.70461 91.441406 262.98633 C 87.591895 259.22431 85.666016 254.56531 85.666016 249.00977 C 85.666016 243.41048 87.635266 238.6874 91.572266 234.83789 C 95.55301 230.98838 100.27804 229.0625 105.74609 229.0625 C 112.43899 229.0625 118.05995 231.81828 122.60938 237.33008 L 126.93945 233.98438 C 124.48976 230.57231 121.42844 227.99197 117.75391 226.24219 C 114.12312 224.44867 109.98847 223.55078 105.35156 223.55078 z M 178.7168 223.55078 L 178.7168 272.76367 L 184.09766 272.76367 L 184.09766 223.55078 L 178.7168 223.55078 z M 236.90039 223.55078 C 235.76304 223.55078 234.77841 223.96768 233.94727 224.79883 C 233.15987 225.62997 232.76563 226.61264 232.76562 227.75 C 232.76563 228.84361 233.15987 229.80753 233.94727 230.63867 C 234.77841 231.46982 235.76304 231.88477 236.90039 231.88477 C 238.08149 231.88477 239.06612 231.49053 239.85352 230.70312 C 240.68466 229.87198 241.09961 228.88736 241.09961 227.75 C 241.09961 226.5689 240.68466 225.58623 239.85352 224.79883 C 239.06612 223.96768 238.08149 223.55078 236.90039 223.55078 z M 251.875 223.55078 L 251.875 237.00195 L 245.70703 237.00195 L 245.70703 241.72656 L 251.875 241.72656 L 251.875 267.51367 C 251.875 269.74464 252.37864 271.38568 253.38477 272.43555 C 254.39089 273.44167 255.94324 273.94531 258.04297 273.94531 C 259.13658 273.94531 260.7323 273.76988 262.83203 273.41992 L 262.83203 268.76172 L 259.68359 268.76172 C 258.63373 268.76172 257.97731 268.67302 257.71484 268.49805 C 257.45238 268.27932 257.32031 267.7116 257.32031 266.79297 L 257.32031 241.72656 L 264.4082 241.72656 L 264.4082 237.00195 L 257.32031 237.00195 L 257.32031 223.55078 L 251.875 223.55078 z M 151.64453 236.08398 C 146.43894 236.08398 142.02141 237.94383 138.39062 241.66211 C 134.75984 245.33664 132.94336 249.77683 132.94336 254.98242 C 132.94336 260.14427 134.73717 264.60517 138.32422 268.36719 C 141.95501 272.08547 146.30846 273.94531 151.38281 273.94531 C 156.45717 273.94531 160.94073 271.80063 164.83398 267.51367 L 164.83398 272.76367 L 170.14844 272.76367 L 170.14844 237.00195 L 164.83398 237.00195 L 164.83398 242.44922 C 161.29068 238.20601 156.89386 236.08398 151.64453 236.08398 z M 210.81836 236.08398 C 204.91286 236.08398 200.10109 237.96454 196.38281 241.72656 C 192.66453 245.44484 190.80469 249.9284 190.80469 255.17773 C 190.80469 260.42707 192.64187 264.86726 196.31641 268.49805 C 200.03468 272.12884 204.65031 273.94531 210.16211 273.94531 C 213.70541 273.94531 216.98554 273.22286 220.00391 271.7793 C 223.06602 270.33573 225.53891 268.23637 227.41992 265.48047 L 223.2207 262.59375 C 219.80864 266.79322 215.60796 268.89258 210.62109 268.89258 C 206.46537 268.89258 203.03247 267.51371 200.32031 264.75781 C 197.60816 262.00191 196.25195 258.69912 196.25195 254.84961 C 196.25195 251.0001 197.62887 247.786 200.38477 245.20508 C 203.14067 242.58041 206.55286 241.26758 210.62109 241.26758 C 215.78294 241.26758 219.96095 243.34623 223.1543 247.50195 L 227.41992 244.81055 C 225.75763 242.05465 223.43947 239.91191 220.46484 238.38086 C 217.53397 236.8498 214.31792 236.08398 210.81836 236.08398 z M 286.96875 236.08398 C 281.76316 236.08398 277.389 237.94383 273.8457 241.66211 C 270.34615 245.38039 268.59766 249.84129 268.59766 255.04688 C 268.59766 260.25246 270.34615 264.71532 273.8457 268.43359 C 277.34526 272.10813 281.78545 273.94531 287.16602 273.94531 C 291.05927 273.94531 294.40543 273.04743 297.20508 271.25391 C 300.00472 269.41664 302.43425 266.59483 304.49023 262.78906 L 299.89648 260.42773 C 296.87812 266.07077 292.50396 268.89258 286.77344 268.89258 C 283.40512 268.89258 280.49461 267.71181 278.04492 265.34961 C 275.63898 262.94366 274.3281 259.77098 274.10938 255.83398 L 305.47266 255.83398 C 305.34142 249.70976 303.5269 244.89799 300.02734 241.39844 C 296.52779 237.85514 292.17434 236.08398 286.96875 236.08398 z M 234.20898 237.00195 L 234.20898 272.76367 L 239.65625 272.76367 L 239.65625 237.00195 L 234.20898 237.00195 z M 151.71094 241.33398 C 155.47296 241.33398 158.64369 242.66753 161.22461 245.33594 C 163.80553 247.9606 165.0957 251.24073 165.0957 255.17773 C 165.0957 259.07099 163.78287 262.33041 161.1582 264.95508 C 158.53354 267.57974 155.40618 268.89258 151.77539 268.89258 C 148.10086 268.89258 144.95084 267.53637 142.32617 264.82422 C 139.70151 262.06832 138.39062 258.83156 138.39062 255.11328 C 138.39063 251.395 139.6808 248.17895 142.26172 245.4668 C 144.84264 242.7109 147.99266 241.33398 151.71094 241.33398 z M 286.96875 241.33398 C 289.98712 241.33398 292.65615 242.18654 294.97461 243.89258 C 297.29307 245.59861 298.78133 247.98281 299.4375 251.04492 L 274.76562 251.04492 C 276.77787 244.57074 280.84453 241.33398 286.96875 241.33398 z "
       xlink:href="#text1546"
       style="font-style:normal;font-variant:normal;font-weight:normal;font-stretch:normal;font-size:65.6166687px;line-height:1.25;font-family:Silom;-inkscape-font-specification:Silom;letter-spacing:0px;word-spacing:0px;fill:#000000;fill-opacity:1;stroke:none;stroke-width:0.26458332"
       id="path1569"
       inkscape:href="#text1546"
       d="m 105.35156,223.55078 c -4.59316,0 -8.880581,1.09403 -12.861326,3.28125 -3.980744,2.18722 -7.108101,5.20518 -9.382812,9.05469 -2.230967,3.84951 -3.345703,8.05019 -3.345703,12.59961 0,7.34907 2.427569,13.42834 7.283203,18.24023 4.855633,4.81189 11.089638,7.21875 18.701168,7.21875 9.01136,0 16.09792,-3.32545 21.25977,-9.97461 l -4.39648,-3.3457 c -4.54943,5.29308 -9.90821,7.93945 -16.07618,7.93945 -6.16796,0 -11.198538,-1.85984 -15.091794,-5.57812 -3.849511,-3.76202 -5.77539,-8.42102 -5.77539,-13.97656 0,-5.59929 1.96925,-10.32237 5.90625,-14.17188 3.980744,-3.84951 8.705774,-5.77539 14.173824,-5.77539 6.6929,0 12.31386,2.75578 16.86329,8.26758 l 4.33007,-3.3457 c -2.44969,-3.41207 -5.51101,-5.99241 -9.18554,-7.74219 -3.63079,-1.79352 -7.76544,-2.69141 -12.40235,-2.69141 z m 73.36524,0 v 49.21289 h 5.38086 v -49.21289 z m 58.18359,0 c -1.13735,0 -2.12198,0.4169 -2.95312,1.24805 -0.7874,0.83114 -1.18164,1.81381 -1.18165,2.95117 10e-6,1.09361 0.39425,2.05753 1.18165,2.88867 0.83114,0.83115 1.81577,1.2461 2.95312,1.2461 1.1811,0 2.16573,-0.39424 2.95313,-1.18165 0.83114,-0.83114 1.24609,-1.81576 1.24609,-2.95312 0,-1.1811 -0.41495,-2.16377 -1.24609,-2.95117 -0.7874,-0.83115 -1.77203,-1.24805 -2.95313,-1.24805 z m 14.97461,0 v 13.45117 h -6.16797 v 4.72461 h 6.16797 v 25.78711 c 0,2.23097 0.50364,3.87201 1.50977,4.92188 1.00612,1.00612 2.55847,1.50976 4.6582,1.50976 1.09361,0 2.68933,-0.17543 4.78906,-0.52539 v -4.6582 h -3.14844 c -1.04986,0 -1.70628,-0.0887 -1.96875,-0.26367 -0.26246,-0.21873 -0.39453,-0.78645 -0.39453,-1.70508 v -25.06641 h 7.08789 v -4.72461 h -7.08789 v -13.45117 z m -100.23047,12.5332 c -5.20559,0 -9.62312,1.85985 -13.25391,5.57813 -3.63078,3.67453 -5.44726,8.11472 -5.44726,13.32031 0,5.16185 1.79381,9.62275 5.38086,13.38477 3.63079,3.71828 7.98424,5.57812 13.05859,5.57812 5.07436,0 9.55792,-2.14468 13.45117,-6.43164 v 5.25 h 5.31446 v -35.76172 h -5.31446 v 5.44727 c -3.5433,-4.24321 -7.94012,-6.36524 -13.18945,-6.36524 z m 59.17383,0 c -5.9055,0 -10.71727,1.88056 -14.43555,5.64258 -3.71828,3.71828 -5.57812,8.20184 -5.57812,13.45117 0,5.24934 1.83718,9.68953 5.51172,13.32032 3.71827,3.63079 8.3339,5.44726 13.8457,5.44726 3.5433,0 6.82343,-0.72245 9.8418,-2.16601 3.06211,-1.44357 5.535,-3.54293 7.41601,-6.29883 l -4.19922,-2.88672 c -3.41206,4.19947 -7.61274,6.29883 -12.59961,6.29883 -4.15572,0 -7.58862,-1.37887 -10.30078,-4.13477 -2.71215,-2.7559 -4.06836,-6.05869 -4.06836,-9.9082 0,-3.84951 1.37692,-7.06361 4.13282,-9.64453 2.7559,-2.62467 6.16809,-3.9375 10.23632,-3.9375 5.16185,0 9.33986,2.07865 12.53321,6.23437 l 4.26562,-2.6914 c -1.66229,-2.7559 -3.98045,-4.89864 -6.95508,-6.42969 -2.93087,-1.53106 -6.14692,-2.29688 -9.64648,-2.29688 z m 76.15039,0 c -5.20559,0 -9.57975,1.85985 -13.12305,5.57813 -3.49955,3.71828 -5.24804,8.17918 -5.24804,13.38477 0,5.20558 1.74849,9.66844 5.24804,13.38671 3.49956,3.67454 7.93975,5.51172 13.32032,5.51172 3.89325,0 7.23941,-0.89788 10.03906,-2.6914 2.79964,-1.83727 5.22917,-4.65908 7.28515,-8.46485 l -4.59375,-2.36133 c -3.01836,5.64304 -7.39252,8.46485 -13.12304,8.46485 -3.36832,0 -6.27883,-1.18077 -8.72852,-3.54297 -2.40594,-2.40595 -3.71682,-5.57863 -3.93554,-9.51563 h 31.36328 c -0.13124,-6.12422 -1.94576,-10.93599 -5.44532,-14.43554 -3.49955,-3.5433 -7.853,-5.31446 -13.05859,-5.31446 z m -52.75977,0.91797 v 35.76172 h 5.44727 v -35.76172 z m -82.49804,4.33203 c 3.76202,0 6.93275,1.33355 9.51367,4.00196 2.58092,2.62466 3.87109,5.90479 3.87109,9.84179 0,3.89326 -1.31283,7.15268 -3.9375,9.77735 -2.62466,2.62466 -5.75202,3.9375 -9.38281,3.9375 -3.67453,0 -6.82455,-1.35621 -9.44922,-4.06836 -2.62466,-2.7559 -3.93555,-5.99266 -3.93555,-9.71094 10e-6,-3.71828 1.29018,-6.93433 3.8711,-9.64648 2.58092,-2.7559 5.73094,-4.13282 9.44922,-4.13282 z m 135.25781,0 c 3.01837,0 5.6874,0.85256 8.00586,2.5586 2.31846,1.70603 3.80672,4.09023 4.46289,7.15234 h -24.67188 c 2.01225,-6.47418 6.07891,-9.71094 12.20313,-9.71094 z" />
    <path
       sodipodi:type="inkscape:offset"
       inkscape:radius="1.6998994"
       inkscape:original="M 105.35156 223.55078 C 100.7584 223.55078 96.470979 224.64481 92.490234 226.83203 C 88.50949 229.01925 85.382133 232.03721 83.107422 235.88672 C 80.876455 239.73623 79.761719 243.93691 79.761719 248.48633 C 79.761719 255.8354 82.189288 261.91467 87.044922 266.72656 C 91.900555 271.53845 98.13456 273.94531 105.74609 273.94531 C 114.75745 273.94531 121.84401 270.61986 127.00586 263.9707 L 122.60938 260.625 C 118.05995 265.91808 112.70117 268.56445 106.5332 268.56445 C 100.36524 268.56445 95.334662 266.70461 91.441406 262.98633 C 87.591895 259.22431 85.666016 254.56531 85.666016 249.00977 C 85.666016 243.41048 87.635266 238.6874 91.572266 234.83789 C 95.55301 230.98838 100.27804 229.0625 105.74609 229.0625 C 112.43899 229.0625 118.05995 231.81828 122.60938 237.33008 L 126.93945 233.98438 C 124.48976 230.57231 121.42844 227.99197 117.75391 226.24219 C 114.12312 224.44867 109.98847 223.55078 105.35156 223.55078 z M 178.7168 223.55078 L 178.7168 272.76367 L 184.09766 272.76367 L 184.09766 223.55078 L 178.7168 223.55078 z M 236.90039 223.55078 C 235.76304 223.55078 234.77841 223.96768 233.94727 224.79883 C 233.15987 225.62997 232.76563 226.61264 232.76562 227.75 C 232.76563 228.84361 233.15987 229.80753 233.94727 230.63867 C 234.77841 231.46982 235.76304 231.88477 236.90039 231.88477 C 238.08149 231.88477 239.06612 231.49053 239.85352 230.70312 C 240.68466 229.87198 241.09961 228.88736 241.09961 227.75 C 241.09961 226.5689 240.68466 225.58623 239.85352 224.79883 C 239.06612 223.96768 238.08149 223.55078 236.90039 223.55078 z M 251.875 223.55078 L 251.875 237.00195 L 245.70703 237.00195 L 245.70703 241.72656 L 251.875 241.72656 L 251.875 267.51367 C 251.875 269.74464 252.37864 271.38568 253.38477 272.43555 C 254.39089 273.44167 255.94324 273.94531 258.04297 273.94531 C 259.13658 273.94531 260.7323 273.76988 262.83203 273.41992 L 262.83203 268.76172 L 259.68359 268.76172 C 258.63373 268.76172 257.97731 268.67302 257.71484 268.49805 C 257.45238 268.27932 257.32031 267.7116 257.32031 266.79297 L 257.32031 241.72656 L 264.4082 241.72656 L 264.4082 237.00195 L 257.32031 237.00195 L 257.32031 223.55078 L 251.875 223.55078 z M 151.64453 236.08398 C 146.43894 236.08398 142.02141 237.94383 138.39062 241.66211 C 134.75984 245.33664 132.94336 249.77683 132.94336 254.98242 C 132.94336 260.14427 134.73717 264.60517 138.32422 268.36719 C 141.95501 272.08547 146.30846 273.94531 151.38281 273.94531 C 156.45717 273.94531 160.94073 271.80063 164.83398 267.51367 L 164.83398 272.76367 L 170.14844 272.76367 L 170.14844 237.00195 L 164.83398 237.00195 L 164.83398 242.44922 C 161.29068 238.20601 156.89386 236.08398 151.64453 236.08398 z M 210.81836 236.08398 C 204.91286 236.08398 200.10109 237.96454 196.38281 241.72656 C 192.66453 245.44484 190.80469 249.9284 190.80469 255.17773 C 190.80469 260.42707 192.64187 264.86726 196.31641 268.49805 C 200.03468 272.12884 204.65031 273.94531 210.16211 273.94531 C 213.70541 273.94531 216.98554 273.22286 220.00391 271.7793 C 223.06602 270.33573 225.53891 268.23637 227.41992 265.48047 L 223.2207 262.59375 C 219.80864 266.79322 215.60796 268.89258 210.62109 268.89258 C 206.46537 268.89258 203.03247 267.51371 200.32031 264.75781 C 197.60816 262.00191 196.25195 258.69912 196.25195 254.84961 C 196.25195 251.0001 197.62887 247.786 200.38477 245.20508 C 203.14067 242.58041 206.55286 241.26758 210.62109 241.26758 C 215.78294 241.26758 219.96095 243.34623 223.1543 247.50195 L 227.41992 244.81055 C 225.75763 242.05465 223.43947 239.91191 220.46484 238.38086 C 217.53397 236.8498 214.31792 236.08398 210.81836 236.08398 z M 286.96875 236.08398 C 281.76316 236.08398 277.389 237.94383 273.8457 241.66211 C 270.34615 245.38039 268.59766 249.84129 268.59766 255.04688 C 268.59766 260.25246 270.34615 264.71532 273.8457 268.43359 C 277.34526 272.10813 281.78545 273.94531 287.16602 273.94531 C 291.05927 273.94531 294.40543 273.04743 297.20508 271.25391 C 300.00472 269.41664 302.43425 266.59483 304.49023 262.78906 L 299.89648 260.42773 C 296.87812 266.07077 292.50396 268.89258 286.77344 268.89258 C 283.40512 268.89258 280.49461 267.71181 278.04492 265.34961 C 275.63898 262.94366 274.3281 259.77098 274.10938 255.83398 L 305.47266 255.83398 C 305.34142 249.70976 303.5269 244.89799 300.02734 241.39844 C 296.52779 237.85514 292.17434 236.08398 286.96875 236.08398 z M 234.20898 237.00195 L 234.20898 272.76367 L 239.65625 272.76367 L 239.65625 237.00195 L 234.20898 237.00195 z M 151.71094 241.33398 C 155.47296 241.33398 158.64369 242.66753 161.22461 245.33594 C 163.80553 247.9606 165.0957 251.24073 165.0957 255.17773 C 165.0957 259.07099 163.78287 262.33041 161.1582 264.95508 C 158.53354 267.57974 155.40618 268.89258 151.77539 268.89258 C 148.10086 268.89258 144.95084 267.53637 142.32617 264.82422 C 139.70151 262.06832 138.39062 258.83156 138.39062 255.11328 C 138.39063 251.395 139.6808 248.17895 142.26172 245.4668 C 144.84264 242.7109 147.99266 241.33398 151.71094 241.33398 z M 286.96875 241.33398 C 289.98712 241.33398 292.65615 242.18654 294.97461 243.89258 C 297.29307 245.59861 298.78133 247.98281 299.4375 251.04492 L 274.76562 251.04492 C 276.77787 244.57074 280.84453 241.33398 286.96875 241.33398 z "
       xlink:href="#text1546"
       style="font-style:normal;font-variant:normal;font-weight:bold;font-stretch:normal;font-size:65.61666870000000529px;line-height:1.25;font-family:'Heiti TC';-inkscape-font-specification:'Heiti TC Bold';letter-spacing:0px;word-spacing:0px;fill:#000000;fill-opacity:1;stroke:none;stroke-width:0.26458332"
       id="path2332"
       inkscape:href="#text1546"
       d="m 105.35156,221.85156 c -4.86309,0 -9.457139,1.17016 -13.679685,3.49024 -4.229816,2.32407 -7.603439,5.57769 -10.027344,9.67968 a 1.7000694,1.7000694 0 0 0 -0.0078,0.0137 c -2.376801,4.10114 -3.574219,8.62407 -3.574219,13.45117 0,7.72341 2.622268,14.33089 7.785156,19.44726 5.171035,5.12445 11.928555,7.71094 19.898434,7.71094 9.42957,0 17.14593,-3.60326 22.60157,-10.63086 a 1.7000694,1.7000694 0 0 0 -0.3125,-2.39648 l -4.39649,-3.34571 a 1.7000694,1.7000694 0 0 0 -2.31836,0.2461 c -4.30188,5.00507 -9.10537,7.34765 -14.78711,7.34765 -5.82342,0 -10.343826,-1.69813 -13.912106,-5.10351 -3.544164,-3.46789 -5.25586,-7.59377 -5.25586,-12.75195 0,-5.19728 1.750959,-9.38906 5.388672,-12.94922 3.701198,-3.57918 7.923284,-5.29883 12.992184,-5.29883 6.22629,0 11.26381,2.4542 15.55274,7.65039 a 1.7000694,1.7000694 0 0 0 2.34961,0.26367 l 4.33008,-3.3457 a 1.7000694,1.7000694 0 0 0 0.34179,-2.33789 c -2.6008,-3.62255 -5.89968,-6.40433 -9.82226,-8.27539 -3.88652,-1.91835 -8.29309,-2.86524 -13.14649,-2.86524 z m 73.36524,0 a 1.7000694,1.7000694 0 0 0 -1.69922,1.69922 v 49.21289 a 1.7000694,1.7000694 0 0 0 1.69922,1.69922 h 5.38086 a 1.7000694,1.7000694 0 0 0 1.69922,-1.69922 v -49.21289 a 1.7000694,1.7000694 0 0 0 -1.69922,-1.69922 z m 58.18359,0 c -1.55275,0 -3.04947,0.64125 -4.1543,1.7461 a 1.7000694,1.7000694 0 0 0 -0.0332,0.0312 c -1.05264,1.11111 -1.64647,2.59092 -1.64648,4.12109 1e-5,1.50214 0.60262,2.95674 1.64648,4.05859 a 1.7000694,1.7000694 0 0 0 0.0332,0.0312 c 1.10577,1.10579 2.60349,1.74414 4.1543,1.74414 1.55937,0 3.06648,-0.59185 4.1543,-1.67968 1.10576,-1.10577 1.74414,-2.60348 1.74414,-4.1543 0,-1.56335 -0.63276,-3.06969 -1.75,-4.14648 -1.07686,-1.11738 -2.58322,-1.75196 -4.14844,-1.75196 z m 14.97461,0 a 1.7000694,1.7000694 0 0 0 -1.69922,1.69922 v 11.75195 h -4.46875 a 1.7000694,1.7000694 0 0 0 -1.69922,1.69922 v 4.72461 a 1.7000694,1.7000694 0 0 0 1.69922,1.69922 h 4.46875 v 24.08789 c 0,2.48681 0.5601,4.6135 1.98242,6.09766 a 1.7000694,1.7000694 0 0 0 0.0254,0.0254 c 1.42375,1.42375 3.48782,2.00781 5.85938,2.00781 1.2754,0 2.92174,-0.1891 5.06836,-0.54687 a 1.7000694,1.7000694 0 0 0 1.41992,-1.67774 v -4.6582 a 1.7000694,1.7000694 0 0 0 -1.69922,-1.69922 h -3.14844 c -0.29298,0 -0.44757,-0.02 -0.64648,-0.0332 -0.006,-0.0965 -0.0176,-0.11409 -0.0176,-0.23633 v -23.36719 h 5.38867 a 1.7000694,1.7000694 0 0 0 1.69922,-1.69922 v -4.72461 a 1.7000694,1.7000694 0 0 0 -1.69922,-1.69922 h -5.38867 v -11.75195 a 1.7000694,1.7000694 0 0 0 -1.69922,-1.69922 z m -100.23047,12.53321 c -5.60671,0 -10.54979,2.07864 -14.46289,6.08203 -0.001,0.001 -0.003,0.003 -0.004,0.004 -0.001,0.001 -0.003,0.003 -0.004,0.004 -3.90757,3.95857 -5.92969,8.91055 -5.92969,14.50781 0,5.55568 1.99474,10.5157 5.84961,14.5586 a 1.7000694,1.7000694 0 0 0 0.0137,0.0137 c 3.90737,4.00152 8.78568,6.08984 14.27539,6.08984 4.29542,0 8.2561,-1.48762 11.75196,-4.25586 v 1.375 a 1.7000694,1.7000694 0 0 0 1.69921,1.69922 h 5.31446 a 1.7000694,1.7000694 0 0 0 1.69922,-1.69922 v -35.76172 a 1.7000694,1.7000694 0 0 0 -1.69922,-1.69922 h -5.31446 a 1.7000694,1.7000694 0 0 0 -1.69921,1.69922 v 1.40625 c -3.28875,-2.63871 -7.17987,-4.02343 -11.49024,-4.02343 z m 59.17383,0 c -6.26276,0 -11.60293,2.06324 -15.63672,6.14062 -4.001,4.001 -6.07617,9.0015 -6.07617,14.65234 0,5.64597 2.04971,10.61061 6.01562,14.5293 a 1.7000694,1.7000694 0 0 0 0.008,0.008 c 4.01861,3.92407 9.14792,5.92969 15.0332,5.92969 3.77068,0 7.31734,-0.77602 10.56641,-2.32812 l 0.002,-0.002 c 3.31667,-1.56409 6.04878,-3.87888 8.09375,-6.875 a 1.7000694,1.7000694 0 0 0 -0.44141,-2.35937 l -4.19922,-2.88672 a 1.7000694,1.7000694 0 0 0 -2.28125,0.32812 c -3.15632,3.88472 -6.77146,5.67188 -11.28125,5.67188 -3.7797,0 -6.68186,-1.18013 -9.08984,-3.62695 -2.43461,-2.47388 -3.58008,-5.26655 -3.58008,-8.7168 0,-3.44416 1.14755,-6.11159 3.59571,-8.4043 a 1.7000694,1.7000694 0 0 0 0.01,-0.01 c 2.45346,-2.33664 5.36193,-3.46875 9.06445,-3.46875 4.70549,0 8.26181,1.76545 11.18555,5.57031 a 1.7000694,1.7000694 0 0 0 2.25391,0.40234 l 4.26562,-2.6914 a 1.7000694,1.7000694 0 0 0 0.54883,-2.31641 c -1.82007,-3.01748 -4.39898,-5.39495 -7.62305,-7.05664 l -0.002,-0.002 c -3.17643,-1.65887 -6.68497,-2.48828 -10.43164,-2.48828 z m 76.15039,0 c -5.61048,0 -10.52351,2.08632 -14.35352,6.10546 a 1.7000694,1.7000694 0 0 0 -0.008,0.006 c -3.77093,4.00663 -5.70898,8.96455 -5.70898,14.55079 0,5.58623 1.93785,10.5459 5.70898,14.55273 a 1.7000694,1.7000694 0 0 0 0.008,0.006 c 3.79964,3.98962 8.78327,6.03906 14.55079,6.03906 4.1546,0 7.85437,-0.9726 10.95507,-2.95898 a 1.7000694,1.7000694 0 0 0 0.0176,-0.01 c 3.08999,-2.02781 5.69251,-5.08879 7.84766,-9.07812 a 1.7000694,1.7000694 0 0 0 -0.71875,-2.32032 l -4.59375,-2.36132 a 1.7000694,1.7000694 0 0 0 -2.27539,0.70898 c -2.80737,5.24858 -6.45252,7.56836 -11.625,7.56836 -2.96662,0 -5.37244,-0.97532 -7.53906,-3.06055 -1.69402,-1.69965 -2.59907,-3.94301 -3.04883,-6.59961 h 29.28711 a 1.7000694,1.7000694 0 0 0 1.69922,-1.73632 c -0.13803,-6.4407 -2.10064,-11.7569 -5.94336,-15.59961 -3.79483,-3.83862 -8.67204,-5.8125 -14.25977,-5.8125 z m -52.75977,0.91796 a 1.7000694,1.7000694 0 0 0 -1.69921,1.69922 v 35.76172 a 1.7000694,1.7000694 0 0 0 1.69921,1.69922 h 5.44727 a 1.7000694,1.7000694 0 0 0 1.69922,-1.69922 v -35.76172 a 1.7000694,1.7000694 0 0 0 -1.69922,-1.69922 z m -82.49804,7.73047 c 3.3603,0 5.99702,1.11263 8.29101,3.48438 a 1.7000694,1.7000694 0 0 0 0.01,0.01 c 2.28305,2.32175 3.38476,5.08477 3.38476,8.65039 0,3.51112 -1.11194,6.24866 -3.43945,8.57618 -2.34766,2.34766 -4.96062,3.43945 -8.18164,3.43945 -3.25379,0 -5.87508,-1.12347 -8.22266,-3.54688 -2.35756,-2.47779 -3.46289,-5.21692 -3.46289,-8.5332 1e-5,-3.32506 1.08902,-6.04366 3.40235,-8.47461 a 1.7000694,1.7000694 0 0 0 0.01,-0.01 c 2.30231,-2.4584 4.91037,-3.59571 8.20899,-3.59571 z m 135.25781,0 c 2.69827,0 4.96345,0.73136 6.99805,2.22852 1.41211,1.0391 2.3209,2.45142 3.00976,4.08398 h -19.60937 c 0.83378,-1.78172 1.79656,-3.28376 3.01562,-4.2539 1.70849,-1.35964 3.82331,-2.0586 6.58594,-2.0586 z" />
    <text
       xml:space="preserve"
       style="font-style:normal;font-variant:normal;font-weight:bold;font-stretch:normal;font-size:65.61666870000000529px;line-height:1.25;font-family:'Heiti TC';-inkscape-font-specification:'Heiti TC Bold';letter-spacing:0px;word-spacing:0px;fill:#ffffff;fill-opacity:1;stroke:none;stroke-width:0.26458332;"
       x="76.677483"
       y="276.70068"
       id="text1546"><tspan
         sodipodi:role="line"
         id="tspan1544"
         x="76.677483"
         y="276.70068"
         style="font-style:normal;font-variant:normal;font-weight:bold;font-stretch:normal;font-size:65.61666870000000529px;font-family:'Heiti TC';-inkscape-font-specification:'Heiti TC Bold';fill:#ffffff;stroke-width:0.26458332;fill-opacity:1;">Calcite<tspan
   style="font-style:normal;font-variant:normal;font-weight:bold;font-stretch:normal;font-size:14.11111069000000029px;line-height:0.25;font-family:'Heiti TC';-inkscape-font-specification:'Heiti TC Bold';baseline-shift:super;fill:#ffffff;fill-opacity:1;"
   id="tspan1208" /></tspan></text>
    <path
       sodipodi:type="inkscape:offset"
       inkscape:radius="1.25e-06"
       inkscape:original="M 294.04688 222.20703 L 294.04688 223.0957 L 295.75195 223.0957 L 295.75195 229.95508 L 296.67188 229.95508 L 296.67188 223.0957 L 298.36523 223.0957 L 298.36523 222.20703 L 294.04688 222.20703 z M 300.05664 222.20703 L 298.95508 229.95508 L 299.83398 229.95508 L 300.55273 224.64258 L 303.18945 229.95508 L 303.46484 229.95508 L 306.06836 224.68359 L 306.78711 229.95508 L 307.6875 229.95508 L 306.57617 222.20703 L 306.35352 222.20703 L 303.32617 228.35742 L 300.2793 222.20703 L 300.05664 222.20703 z "
       xlink:href="#text939"
       style="font-style:normal;font-variant:normal;font-weight:normal;font-stretch:normal;font-size:10.58333302px;line-height:1.25;font-family:Silom;-inkscape-font-specification:Silom;letter-spacing:0px;word-spacing:0px;fill:#ffe680;fill-opacity:1;stroke:none;stroke-width:0.26458332"
       id="path2357"
       inkscape:href="#text939"
       d="m 294.04688,222.20703 v 0.88867 h 1.70507 v 6.85938 h 0.91993 v -6.85938 h 1.69335 v -0.88867 z m 6.00976,0 -1.10156,7.74805 h 0.8789 l 0.71875,-5.3125 2.63672,5.3125 h 0.27539 l 2.60352,-5.27149 0.71875,5.27149 h 0.90039 l -1.11133,-7.74805 h -0.22265 l -3.02735,6.15039 -3.04687,-6.15039 z" />
    <path
       sodipodi:type="inkscape:offset"
       inkscape:radius="0.52916789"
       inkscape:original="M 294.04688 222.20703 L 294.04688 223.0957 L 295.75195 223.0957 L 295.75195 229.95508 L 296.67188 229.95508 L 296.67188 223.0957 L 298.36523 223.0957 L 298.36523 222.20703 L 294.04688 222.20703 z M 300.05664 222.20703 L 298.95508 229.95508 L 299.83398 229.95508 L 300.55273 224.64258 L 303.18945 229.95508 L 303.46484 229.95508 L 306.06836 224.68359 L 306.78711 229.95508 L 307.6875 229.95508 L 306.57617 222.20703 L 306.35352 222.20703 L 303.32617 228.35742 L 300.2793 222.20703 L 300.05664 222.20703 z "
       xlink:href="#text939"
       style="font-style:normal;font-variant:normal;font-weight:normal;font-stretch:normal;font-size:10.58333301999999954px;line-height:1.25;font-family:Silom;-inkscape-font-specification:Silom;letter-spacing:0px;word-spacing:0px;fill:#000000;fill-opacity:1;stroke:none;stroke-width:0.26458332"
       id="path2359"
       inkscape:href="#text939"
       d="m 294.04688,221.67773 a 0.52922081,0.52922081 0 0 0 -0.5293,0.5293 v 0.88867 a 0.52922081,0.52922081 0 0 0 0.5293,0.5293 h 1.17578 v 6.33008 a 0.52922081,0.52922081 0 0 0 0.52929,0.5293 h 0.91993 a 0.52922081,0.52922081 0 0 0 0.52929,-0.5293 V 223.625 h 1.16406 a 0.52922081,0.52922081 0 0 0 0.5293,-0.5293 v -0.88867 a 0.52922081,0.52922081 0 0 0 -0.5293,-0.5293 z m 6.00976,0 a 0.52922081,0.52922081 0 0 0 -0.52344,0.45508 l -1.10156,7.74805 a 0.52922081,0.52922081 0 0 0 0.52344,0.60352 h 0.8789 a 0.52922081,0.52922081 0 0 0 0.52344,-0.45899 l 0.48828,-3.60351 1.86914,3.76757 a 0.52922081,0.52922081 0 0 0 0.47461,0.29493 h 0.27539 a 0.52922081,0.52922081 0 0 0 0.47461,-0.29493 l 1.83789,-3.72265 0.48633,3.56054 a 0.52922081,0.52922081 0 0 0 0.52344,0.45704 h 0.90039 a 0.52922081,0.52922081 0 0 0 0.52344,-0.60352 l -1.11133,-7.74805 a 0.52922081,0.52922081 0 0 0 -0.52344,-0.45508 h -0.22265 a 0.52922081,0.52922081 0 0 0 -0.47461,0.29493 l -2.55469,5.18945 -2.57031,-5.18945 a 0.52922081,0.52922081 0 0 0 -0.47461,-0.29493 z" />
    <path
       sodipodi:type="inkscape:offset"
       inkscape:radius="0"
       inkscape:original="M 294.04688 222.20703 L 294.04688 223.0957 L 295.75195 223.0957 L 295.75195 229.95508 L 296.67188 229.95508 L 296.67188 223.0957 L 298.36523 223.0957 L 298.36523 222.20703 L 294.04688 222.20703 z M 300.05664 222.20703 L 298.95508 229.95508 L 299.83398 229.95508 L 300.55273 224.64258 L 303.18945 229.95508 L 303.46484 229.95508 L 306.06836 224.68359 L 306.78711 229.95508 L 307.6875 229.95508 L 306.57617 222.20703 L 306.35352 222.20703 L 303.32617 228.35742 L 300.2793 222.20703 L 300.05664 222.20703 z "
       style="font-style:normal;font-variant:normal;font-weight:normal;font-stretch:normal;font-size:10.58333301999999954px;line-height:1.25;font-family:Silom;-inkscape-font-specification:Silom;letter-spacing:0px;word-spacing:0px;fill:#ffffff;fill-opacity:1;stroke:none;stroke-width:0.26458332"
       id="text939"
       d="m 294.04688,222.20703 v 0.88867 h 1.70507 v 6.85938 h 0.91993 v -6.85938 h 1.69335 v -0.88867 z m 6.00976,0 -1.10156,7.74805 h 0.8789 l 0.71875,-5.3125 2.63672,5.3125 h 0.27539 l 2.60352,-5.27149 0.71875,5.27149 h 0.90039 l -1.11133,-7.74805 h -0.22265 l -3.02735,6.15039 -3.04687,-6.15039 z" />
    <g
       id="g2277"
       transform="rotate(28.164126,50.958532,228.35087)">
      <path
         style="opacity:1;fill:#aaccff;fill-opacity:1;fill-rule:nonzero;stroke:none;stroke-width:0.31299999;stroke-miterlimit:4;stroke-dasharray:none;stroke-opacity:1"
         inkscape:transform-center-x="-0.058269836"
         inkscape:transform-center-y="-5.6594751"
         d="m 72.769296,278.65947 -11.010793,6.74091 -11.010792,-0.006 -11.010792,-0.006 -11.010793,-6.75414 -13.399267,-19.40016 35.761967,-87.93272 35.50138,87.97544 z"
         id="path1365"
         inkscape:connector-curvature="0"
         sodipodi:nodetypes="ccccccccc" />
      <path
         sodipodi:nodetypes="ccccccc"
         inkscape:connector-curvature="0"
         id="path1367"
         d="m 72.769296,278.65947 -11.010793,6.74091 -11.010792,-0.006 -11.010792,-0.006 -11.010793,-6.75414 44.04317,0.0252 z"
         inkscape:transform-center-y="-5.6594751"
         inkscape:transform-center-x="-0.058269836"
         style="opacity:1;fill:#2a7fff;fill-opacity:1;fill-rule:nonzero;stroke:none;stroke-width:0.31299999;stroke-miterlimit:4;stroke-dasharray:none;stroke-opacity:1" />
      <path
         sodipodi:nodetypes="ccccccccc"
         inkscape:connector-curvature="0"
         id="path1308"
         d="m 71.480906,276.02902 -10.362104,6.34377 -10.362104,-0.006 -10.362103,-0.006 -10.362104,-6.35622 -12.609864,-18.25722 33.65509,-82.75226 33.409855,82.79246 z"
         inkscape:transform-center-y="-5.3264051"
         inkscape:transform-center-x="-0.054836836"
         style="opacity:1;fill:#aaccff;fill-opacity:1;fill-rule:nonzero;stroke:none;stroke-width:0.68314427;stroke-miterlimit:4;stroke-dasharray:none;stroke-opacity:1" />
      <path
         style="opacity:1;fill:#5599ff;fill-opacity:1;fill-rule:nonzero;stroke:none;stroke-width:0.68314427;stroke-miterlimit:4;stroke-dasharray:none;stroke-opacity:1"
         inkscape:transform-center-x="-0.054836836"
         inkscape:transform-center-y="-5.3264051"
         d="m 71.480906,276.02902 -10.362104,-5.82706 -10.362104,-0.006 -10.362103,-0.006 -10.362104,5.81461 -12.609864,-18.25722 33.65509,-82.75226 33.409855,82.79246 z"
         id="path1313"
         inkscape:connector-curvature="0"
         sodipodi:nodetypes="ccccccccc" />
      <path
         sodipodi:nodetypes="ccccccc"
         inkscape:connector-curvature="0"
         id="path1315"
         d="m 61.118802,247.44779 -10.362104,-0.006 -10.362103,-0.006 -22.971968,10.31156 33.65509,-82.75226 33.409855,82.79246 z"
         inkscape:transform-center-y="-5.3264051"
         inkscape:transform-center-x="-0.054836836"
         style="opacity:1;fill:#2a7fff;fill-opacity:1;fill-rule:nonzero;stroke:none;stroke-width:0.68314427;stroke-miterlimit:4;stroke-dasharray:none;stroke-opacity:1" />
      <path
         sodipodi:nodetypes="cccccc"
         inkscape:connector-curvature="0"
         id="path1319"
         d="m 61.118802,270.20196 -20.724207,-0.012 v -22.75417 l 10.683122,-72.4407 10.041085,72.4527 z"
         inkscape:transform-center-y="-5.3264051"
         inkscape:transform-center-x="-0.054836836"
         style="opacity:1;fill:#80b3ff;fill-opacity:1;fill-rule:nonzero;stroke:none;stroke-width:0.68314427;stroke-miterlimit:4;stroke-dasharray:none;stroke-opacity:1" />
      <path
         id="path1321"
         transform="matrix(0.26458333,0,0,0.26458333,0,156)"
         d="m 193.04883,71.792969 -40.37695,273.791011 39.16406,0.0234 39.16406,0.0215 z"
         style="opacity:1;fill:#5599ff;fill-opacity:1;fill-rule:nonzero;stroke:none;stroke-width:2.58196259;stroke-miterlimit:4;stroke-dasharray:none;stroke-opacity:1"
         inkscape:connector-curvature="0" />
      <path
         style="opacity:1;fill:#d5e5ff;fill-opacity:1;fill-rule:nonzero;stroke:none;stroke-width:0.68314427;stroke-miterlimit:4;stroke-dasharray:none;stroke-opacity:1"
         inkscape:transform-center-x="-0.054836836"
         inkscape:transform-center-y="-5.3264051"
         d="m 61.118802,282.37279 -20.724207,-0.012 10.683122,-5.23653 z"
         id="path1345"
         inkscape:connector-curvature="0"
         sodipodi:nodetypes="cccc" />
      <path
         sodipodi:nodetypes="ccccccccccc"
         inkscape:connector-curvature="0"
         id="path1351"
         d="m 30.032491,276.00457 8.601319,-7.16142 1.760624,-21.40739 1.232795,20.93967 18.428234,-0.28063 1.063339,-20.64701 1.836535,20.8341 8.525567,7.74713 -10.362102,-5.82706 -20.724207,-0.012 z"
         style="fill:#ffffff;fill-opacity:1;stroke:none;stroke-width:0.26458332px;stroke-linecap:butt;stroke-linejoin:miter;stroke-opacity:1" />
      <path
         sodipodi:nodetypes="ccccccccccc"
         inkscape:connector-curvature="0"
         id="path1353"
         d="m 19.803877,256.55672 19.883622,-11.81193 c 0,0 10.993128,-67.23603 11.390003,-69.74957 l -8.744169,69.88187 17.197916,-0.52918 -8.056872,-67.10373 10.967289,67.89749 c 0,0 19.664656,11.19067 22.045906,12.64588 l -23.368823,-10.3399 -20.724315,-0.0119 z"
         style="fill:#ffffff;stroke:none;stroke-width:0.26458332px;stroke-linecap:butt;stroke-linejoin:miter;stroke-opacity:1" />
      <path
         sodipodi:nodetypes="cccc"
         inkscape:connector-curvature="0"
         id="path1355"
         d="m 19.976041,254.93125 28.575,-72.36354 -22.886458,68.52708 z"
         style="fill:#5599ff;fill-opacity:1;stroke:none;stroke-width:0.26458332px;stroke-linecap:butt;stroke-linejoin:miter;stroke-opacity:1" />
      <path
         sodipodi:nodetypes="cccc"
         inkscape:connector-curvature="0"
         id="path1357"
         d="m 71.569791,273.58437 10.451041,-15.21354 -5.291666,-2.91041 z"
         style="fill:#80b3ff;fill-opacity:1;stroke:none;stroke-width:0.26458332px;stroke-linecap:butt;stroke-linejoin:miter;stroke-opacity:1" />
      <ellipse
         ry="3.4395833"
         rx="3.6380208"
         cy="229.79584"
         cx="37.636978"
         id="path1359"
         style="opacity:1;fill:#80b3ff;fill-opacity:1;fill-rule:nonzero;stroke:none;stroke-width:0.75499988;stroke-miterlimit:4;stroke-dasharray:none;stroke-opacity:1" />
      <ellipse
         style="opacity:1;fill:#80b3ff;fill-opacity:1;fill-rule:nonzero;stroke:none;stroke-width:0.46588403;stroke-miterlimit:4;stroke-dasharray:none;stroke-opacity:1"
         id="ellipse1361"
         cx="34.991146"
         cy="235.94742"
         rx="2.1828127"
         ry="2.1828125" />
      <path
         transform="matrix(0.31567098,0.2059889,-0.2059889,0.31567098,69.118887,182.12209)"
         sodipodi:type="star"
         style="opacity:1;fill:#ffffff;fill-opacity:1;fill-rule:nonzero;stroke:none;stroke-width:0.31299999;stroke-miterlimit:4;stroke-dasharray:none;stroke-opacity:1"
         id="path2189"
         sodipodi:sides="4"
         sodipodi:cx="19.314583"
         sodipodi:cy="199.89792"
         sodipodi:r1="20.652758"
         sodipodi:r2="2.6067085"
         sodipodi:arg1="-0.03844259"
         sodipodi:arg2="0.74695557"
         inkscape:flatsided="false"
         inkscape:rounded="0"
         inkscape:randomized="0"
         d="m 39.952082,199.10417 -18.724799,2.56477 -1.11895,18.86648 -2.564769,-18.7248 -18.86648,-1.11895 18.724799,-2.56477 1.11895,-18.86648 2.564769,18.7248 z" />
      <path
         d="m 39.952082,199.10417 -18.724799,2.56477 -1.11895,18.86648 -2.564769,-18.7248 -18.86648,-1.11895 18.724799,-2.56477 1.11895,-18.86648 2.564769,18.7248 z"
         inkscape:randomized="0"
         inkscape:rounded="0"
         inkscape:flatsided="false"
         sodipodi:arg2="0.74695557"
         sodipodi:arg1="-0.03844259"
         sodipodi:r2="2.6067085"
         sodipodi:r1="20.652758"
         sodipodi:cy="199.89792"
         sodipodi:cx="19.314583"
         sodipodi:sides="4"
         id="path2193"
         style="opacity:1;fill:#ffffff;fill-opacity:1;fill-rule:nonzero;stroke:none;stroke-width:0.31299999;stroke-miterlimit:4;stroke-dasharray:none;stroke-opacity:1"
         sodipodi:type="star"
         transform="matrix(0.06411971,0.30496028,-0.30496028,0.06411971,93.761668,230.49508)" />
      <path
         transform="matrix(0.18824279,0.22026662,-0.22026662,0.18824279,94.807114,154.26999)"
         d="m 39.952082,199.10417 -18.724799,2.56477 -1.11895,18.86648 -2.564769,-18.7248 -18.86648,-1.11895 18.724799,-2.56477 1.11895,-18.86648 2.564769,18.7248 z"
         inkscape:randomized="0"
         inkscape:rounded="0"
         inkscape:flatsided="false"
         sodipodi:arg2="0.74695557"
         sodipodi:arg1="-0.03844259"
         sodipodi:r2="2.6067085"
         sodipodi:r1="20.652758"
         sodipodi:cy="199.89792"
         sodipodi:cx="19.314583"
         sodipodi:sides="4"
         id="path2219"
         style="opacity:1;fill:#ffffff;fill-opacity:1;fill-rule:nonzero;stroke:none;stroke-width:0.31299999;stroke-miterlimit:4;stroke-dasharray:none;stroke-opacity:1"
         sodipodi:type="star" />
    </g>
  </g>
</svg>
