<?xml version="1.0" encoding="UTF-8" standalone="no"?>
<!-- Created with Inkscape (http://www.inkscape.org/) -->

<svg
   xmlns:dc="http://purl.org/dc/elements/1.1/"
   xmlns:cc="http://creativecommons.org/ns#"
   xmlns:rdf="http://www.w3.org/1999/02/22-rdf-syntax-ns#"
   xmlns:svg="http://www.w3.org/2000/svg"
   xmlns="http://www.w3.org/2000/svg"
   xmlns:xlink="http://www.w3.org/1999/xlink"
   xmlns:sodipodi="http://sodipodi.sourceforge.net/DTD/sodipodi-0.dtd"
   xmlns:inkscape="http://www.inkscape.org/namespaces/inkscape"
   width="318mm"
   height="125mm"
   viewBox="0 0 318 125"
   version="1.1"
   id="svg8"
   inkscape:version="0.92.4 (5da689c313, 2019-01-14)"
   sodipodi:docname="logo-alt5-v4.svg">
  <defs
     id="defs2" />
  <sodipodi:namedview
     id="base"
     pagecolor="#ffffff"
     bordercolor="#666666"
     borderopacity="1.0"
     inkscape:pageopacity="0.0"
     inkscape:pageshadow="2"
     inkscape:zoom="1"
     inkscape:cx="451.54475"
     inkscape:cy="153.26553"
     inkscape:document-units="mm"
     inkscape:current-layer="layer1"
     showgrid="false"
     inkscape:window-width="2560"
     inkscape:window-height="1395"
     inkscape:window-x="13"
     inkscape:window-y="0"
     inkscape:window-maximized="0" />
  <metadata
     id="metadata5">
    <rdf:RDF>
      <cc:Work
         rdf:about="">
        <dc:format>image/svg+xml</dc:format>
        <dc:type
           rdf:resource="http://purl.org/dc/dcmitype/StillImage" />
        <dc:title></dc:title>
      </cc:Work>
    </rdf:RDF>
  </metadata>
  <g
     inkscape:label="Layer 1"
     inkscape:groupmode="layer"
     id="layer1"
     transform="translate(0,-172)">
    <rect
       style="opacity:1;fill:#4d4d4d;fill-opacity:1;fill-rule:nonzero;stroke:none;stroke-width:0.31299999;stroke-miterlimit:4;stroke-dasharray:none;stroke-opacity:1"
       id="rect2298"
       width="315.64792"
       height="120.91458"
       x="1.5875"
       y="174.7625" />
    <text
       xml:space="preserve"
       style="font-style:normal;font-variant:normal;font-weight:600;font-stretch:normal;font-size:19.75555611000000056px;line-height:1.25;font-family:'URW Gothic L';-inkscape-font-specification:'URW Gothic L Semi-Bold';letter-spacing:0px;word-spacing:0px;fill:#ffe680;fill-opacity:1;stroke:none;stroke-width:0.26458332;"
       x="84.305504"
       y="218.45039"
       id="text1538"><tspan
         sodipodi:role="line"
         x="84.305504"
         y="218.45039"
         style="font-style:normal;font-variant:normal;font-weight:bold;font-stretch:normal;font-size:16.93333244000000093px;font-family:'Heiti TC';-inkscape-font-specification:'Heiti TC Bold';stroke-width:0.26458332;fill:#ffe680;"
         id="tspan1540">APACHE</tspan></text>
    <path
       sodipodi:type="inkscape:offset"
       inkscape:radius="0"
       inkscape:original="M 105.35156 223.55078 C 100.7584 223.55078 96.470979 224.64481 92.490234 226.83203 C 88.50949 229.01925 85.382133 232.03721 83.107422 235.88672 C 80.876455 239.73623 79.761719 243.93691 79.761719 248.48633 C 79.761719 255.8354 82.189288 261.91467 87.044922 266.72656 C 91.900555 271.53845 98.13456 273.94531 105.74609 273.94531 C 114.75745 273.94531 121.84401 270.61986 127.00586 263.9707 L 122.60938 260.625 C 118.05995 265.91808 112.70117 268.56445 106.5332 268.56445 C 100.36524 268.56445 95.334662 266.70461 91.441406 262.98633 C 87.591895 259.22431 85.666016 254.56531 85.666016 249.00977 C 85.666016 243.41048 87.635266 238.6874 91.572266 234.83789 C 95.55301 230.98838 100.27804 229.0625 105.74609 229.0625 C 112.43899 229.0625 118.05995 231.81828 122.60938 237.33008 L 126.93945 233.98438 C 124.48976 230.57231 121.42844 227.99197 117.75391 226.24219 C 114.12312 224.44867 109.98847 223.55078 105.35156 223.55078 z M 178.7168 223.55078 L 178.7168 272.76367 L 184.09766 272.76367 L 184.09766 223.55078 L 178.7168 223.55078 z M 236.90039 223.55078 C 235.76304 223.55078 234.77841 223.96768 233.94727 224.79883 C 233.15987 225.62997 232.76563 226.61264 232.76562 227.75 C 232.76563 228.84361 233.15987 229.80753 233.94727 230.63867 C 234.77841 231.46982 235.76304 231.88477 236.90039 231.88477 C 238.08149 231.88477 239.06612 231.49053 239.85352 230.70312 C 240.68466 229.87198 241.09961 228.88736 241.09961 227.75 C 241.09961 226.5689 240.68466 225.58623 239.85352 224.79883 C 239.06612 223.96768 238.08149 223.55078 236.90039 223.55078 z M 251.875 223.55078 L 251.875 237.00195 L 245.70703 237.00195 L 245.70703 241.72656 L 251.875 241.72656 L 251.875 267.51367 C 251.875 269.74464 252.37864 271.38568 253.38477 272.43555 C 254.39089 273.44167 255.94324 273.94531 258.04297 273.94531 C 259.13658 273.94531 260.7323 273.76988 262.83203 273.41992 L 262.83203 268.76172 L 259.68359 268.76172 C 258.63373 268.76172 257.97731 268.67302 257.71484 268.49805 C 257.45238 268.27932 257.32031 267.7116 257.32031 266.79297 L 257.32031 241.72656 L 264.4082 241.72656 L 264.4082 237.00195 L 257.32031 237.00195 L 257.32031 223.55078 L 251.875 223.55078 z M 151.64453 236.08398 C 146.43894 236.08398 142.02141 237.94383 138.39062 241.66211 C 134.75984 245.33664 132.94336 249.77683 132.94336 254.98242 C 132.94336 260.14427 134.73717 264.60517 138.32422 268.36719 C 141.95501 272.08547 146.30846 273.94531 151.38281 273.94531 C 156.45717 273.94531 160.94073 271.80063 164.83398 267.51367 L 164.83398 272.76367 L 170.14844 272.76367 L 170.14844 237.00195 L 164.83398 237.00195 L 164.83398 242.44922 C 161.29068 238.20601 156.89386 236.08398 151.64453 236.08398 z M 210.81836 236.08398 C 204.91286 236.08398 200.10109 237.96454 196.38281 241.72656 C 192.66453 245.44484 190.80469 249.9284 190.80469 255.17773 C 190.80469 260.42707 192.64187 264.86726 196.31641 268.49805 C 200.03468 272.12884 204.65031 273.94531 210.16211 273.94531 C 213.70541 273.94531 216.98554 273.22286 220.00391 271.7793 C 223.06602 270.33573 225.53891 268.23637 227.41992 265.48047 L 223.2207 262.59375 C 219.80864 266.79322 215.60796 268.89258 210.62109 268.89258 C 206.46537 268.89258 203.03247 267.51371 200.32031 264.75781 C 197.60816 262.00191 196.25195 258.69912 196.25195 254.84961 C 196.25195 251.0001 197.62887 247.786 200.38477 245.20508 C 203.14067 242.58041 206.55286 241.26758 210.62109 241.26758 C 215.78294 241.26758 219.96095 243.34623 223.1543 247.50195 L 227.41992 244.81055 C 225.75763 242.05465 223.43947 239.91191 220.46484 238.38086 C 217.53397 236.8498 214.31792 236.08398 210.81836 236.08398 z M 286.96875 236.08398 C 281.76316 236.08398 277.389 237.94383 273.8457 241.66211 C 270.34615 245.38039 268.59766 249.84129 268.59766 255.04688 C 268.59766 260.25246 270.34615 264.71532 273.8457 268.43359 C 277.34526 272.10813 281.78545 273.94531 287.16602 273.94531 C 291.05927 273.94531 294.40543 273.04743 297.20508 271.25391 C 300.00472 269.41664 302.43425 266.59483 304.49023 262.78906 L 299.89648 260.42773 C 296.87812 266.07077 292.50396 268.89258 286.77344 268.89258 C 283.40512 268.89258 280.49461 267.71181 278.04492 265.34961 C 275.63898 262.94366 274.3281 259.77098 274.10938 255.83398 L 305.47266 255.83398 C 305.34142 249.70976 303.5269 244.89799 300.02734 241.39844 C 296.52779 237.85514 292.17434 236.08398 286.96875 236.08398 z M 234.20898 237.00195 L 234.20898 272.76367 L 239.65625 272.76367 L 239.65625 237.00195 L 234.20898 237.00195 z M 151.71094 241.33398 C 155.47296 241.33398 158.64369 242.66753 161.22461 245.33594 C 163.80553 247.9606 165.0957 251.24073 165.0957 255.17773 C 165.0957 259.07099 163.78287 262.33041 161.1582 264.95508 C 158.53354 267.57974 155.40618 268.89258 151.77539 268.89258 C 148.10086 268.89258 144.95084 267.53637 142.32617 264.82422 C 139.70151 262.06832 138.39062 258.83156 138.39062 255.11328 C 138.39063 251.395 139.6808 248.17895 142.26172 245.4668 C 144.84264 242.7109 147.99266 241.33398 151.71094 241.33398 z M 286.96875 241.33398 C 289.98712 241.33398 292.65615 242.18654 294.97461 243.89258 C 297.29307 245.59861 298.78133 247.98281 299.4375 251.04492 L 274.76562 251.04492 C 276.77787 244.57074 280.84453 241.33398 286.96875 241.33398 z "
       xlink:href="#text1546"
       style="font-style:normal;font-variant:normal;font-weight:normal;font-stretch:normal;font-size:65.6166687px;line-height:1.25;font-family:Silom;-inkscape-font-specification:Silom;letter-spacing:0px;word-spacing:0px;fill:#000000;fill-opacity:1;stroke:none;stroke-width:0.26458332"
       id="path1569"
       inkscape:href="#text1546"
       d="m 105.35156,223.55078 c -4.59316,0 -8.880581,1.09403 -12.861326,3.28125 -3.980744,2.18722 -7.108101,5.20518 -9.382812,9.05469 -2.230967,3.84951 -3.345703,8.05019 -3.345703,12.59961 0,7.34907 2.427569,13.42834 7.283203,18.24023 4.855633,4.81189 11.089638,7.21875 18.701168,7.21875 9.01136,0 16.09792,-3.32545 21.25977,-9.97461 l -4.39648,-3.3457 c -4.54943,5.29308 -9.90821,7.93945 -16.07618,7.93945 -6.16796,0 -11.198538,-1.85984 -15.091794,-5.57812 -3.849511,-3.76202 -5.77539,-8.42102 -5.77539,-13.97656 0,-5.59929 1.96925,-10.32237 5.90625,-14.17188 3.980744,-3.84951 8.705774,-5.77539 14.173824,-5.77539 6.6929,0 12.31386,2.75578 16.86329,8.26758 l 4.33007,-3.3457 c -2.44969,-3.41207 -5.51101,-5.99241 -9.18554,-7.74219 -3.63079,-1.79352 -7.76544,-2.69141 -12.40235,-2.69141 z m 73.36524,0 v 49.21289 h 5.38086 v -49.21289 z m 58.18359,0 c -1.13735,0 -2.12198,0.4169 -2.95312,1.24805 -0.7874,0.83114 -1.18164,1.81381 -1.18165,2.95117 10e-6,1.09361 0.39425,2.05753 1.18165,2.88867 0.83114,0.83115 1.81577,1.2461 2.95312,1.2461 1.1811,0 2.16573,-0.39424 2.95313,-1.18165 0.83114,-0.83114 1.24609,-1.81576 1.24609,-2.95312 0,-1.1811 -0.41495,-2.16377 -1.24609,-2.95117 -0.7874,-0.83115 -1.77203,-1.24805 -2.95313,-1.24805 z m 14.97461,0 v 13.45117 h -6.16797 v 4.72461 h 6.16797 v 25.78711 c 0,2.23097 0.50364,3.87201 1.50977,4.92188 1.00612,1.00612 2.55847,1.50976 4.6582,1.50976 1.09361,0 2.68933,-0.17543 4.78906,-0.52539 v -4.6582 h -3.14844 c -1.04986,0 -1.70628,-0.0887 -1.96875,-0.26367 -0.26246,-0.21873 -0.39453,-0.78645 -0.39453,-1.70508 v -25.06641 h 7.08789 v -4.72461 h -7.08789 v -13.45117 z m -100.23047,12.5332 c -5.20559,0 -9.62312,1.85985 -13.25391,5.57813 -3.63078,3.67453 -5.44726,8.11472 -5.44726,13.32031 0,5.16185 1.79381,9.62275 5.38086,13.38477 3.63079,3.71828 7.98424,5.57812 13.05859,5.57812 5.07436,0 9.55792,-2.14468 13.45117,-6.43164 v 5.25 h 5.31446 v -35.76172 h -5.31446 v 5.44727 c -3.5433,-4.24321 -7.94012,-6.36524 -13.18945,-6.36524 z m 59.17383,0 c -5.9055,0 -10.71727,1.88056 -14.43555,5.64258 -3.71828,3.71828 -5.57812,8.20184 -5.57812,13.45117 0,5.24934 1.83718,9.68953 5.51172,13.32032 3.71827,3.63079 8.3339,5.44726 13.8457,5.44726 3.5433,0 6.82343,-0.72245 9.8418,-2.16601 3.06211,-1.44357 5.535,-3.54293 7.41601,-6.29883 l -4.19922,-2.88672 c -3.41206,4.19947 -7.61274,6.29883 -12.59961,6.29883 -4.15572,0 -7.58862,-1.37887 -10.30078,-4.13477 -2.71215,-2.7559 -4.06836,-6.05869 -4.06836,-9.9082 0,-3.84951 1.37692,-7.06361 4.13282,-9.64453 2.7559,-2.62467 6.16809,-3.9375 10.23632,-3.9375 5.16185,0 9.33986,2.07865 12.53321,6.23437 l 4.26562,-2.6914 c -1.66229,-2.7559 -3.98045,-4.89864 -6.95508,-6.42969 -2.93087,-1.53106 -6.14692,-2.29688 -9.64648,-2.29688 z m 76.15039,0 c -5.20559,0 -9.57975,1.85985 -13.12305,5.57813 -3.49955,3.71828 -5.24804,8.17918 -5.24804,13.38477 0,5.20558 1.74849,9.66844 5.24804,13.38671 3.49956,3.67454 7.93975,5.51172 13.32032,5.51172 3.89325,0 7.23941,-0.89788 10.03906,-2.6914 2.79964,-1.83727 5.22917,-4.65908 7.28515,-8.46485 l -4.59375,-2.36133 c -3.01836,5.64304 -7.39252,8.46485 -13.12304,8.46485 -3.36832,0 -6.27883,-1.18077 -8.72852,-3.54297 -2.40594,-2.40595 -3.71682,-5.57863 -3.93554,-9.51563 h 31.36328 c -0.13124,-6.12422 -1.94576,-10.93599 -5.44532,-14.43554 -3.49955,-3.5433 -7.853,-5.31446 -13.05859,-5.31446 z m -52.75977,0.91797 v 35.76172 h 5.44727 v -35.76172 z m -82.49804,4.33203 c 3.76202,0 6.93275,1.33355 9.51367,4.00196 2.58092,2.62466 3.87109,5.90479 3.87109,9.84179 0,3.89326 -1.31283,7.15268 -3.9375,9.77735 -2.62466,2.62466 -5.75202,3.9375 -9.38281,3.9375 -3.67453,0 -6.82455,-1.35621 -9.44922,-4.06836 -2.62466,-2.7559 -3.93555,-5.99266 -3.93555,-9.71094 10e-6,-3.71828 1.29018,-6.93433 3.8711,-9.64648 2.58092,-2.7559 5.73094,-4.13282 9.44922,-4.13282 z m 135.25781,0 c 3.01837,0 5.6874,0.85256 8.00586,2.5586 2.31846,1.70603 3.80672,4.09023 4.46289,7.15234 h -24.67188 c 2.01225,-6.47418 6.07891,-9.71094 12.20313,-9.71094 z" />
    <text
       xml:space="preserve"
       style="font-style:normal;font-variant:normal;font-weight:bold;font-stretch:normal;font-size:65.61666870000000529px;line-height:1.25;font-family:'Heiti TC';-inkscape-font-specification:'Heiti TC Bold';letter-spacing:0px;word-spacing:0px;fill:#ffdd55;fill-opacity:1;stroke:none;stroke-width:0.26458332;"
       x="76.677483"
       y="276.70068"
       id="text1546"><tspan
         sodipodi:role="line"
         id="tspan1544"
         x="76.677483"
         y="276.70068"
         style="font-style:normal;font-variant:normal;font-weight:bold;font-stretch:normal;font-size:65.61666870000000529px;font-family:'Heiti TC';-inkscape-font-specification:'Heiti TC Bold';fill:#ffdd55;stroke-width:0.26458332;">Calcite<tspan
   style="font-style:normal;font-variant:normal;font-weight:bold;font-stretch:normal;font-size:14.11111069000000029px;line-height:0.25;font-family:'Heiti TC';-inkscape-font-specification:'Heiti TC Bold';baseline-shift:super;fill:#ffdd55;"
   id="tspan1208" /></tspan></text>
    <text
       xml:space="preserve"
       style="font-style:normal;font-variant:normal;font-weight:normal;font-stretch:normal;font-size:10.58333301999999954px;line-height:1.25;font-family:Silom;-inkscape-font-specification:Silom;letter-spacing:0px;word-spacing:0px;fill:#ffe680;fill-opacity:1;stroke:none;stroke-width:0.26458332;"
       x="293.95181"
       y="230.58957"
       id="text939"><tspan
         sodipodi:role="line"
         id="tspan937"
         x="293.95181"
         y="230.58957"
         style="font-style:normal;font-variant:normal;font-weight:bold;font-stretch:normal;font-family:'Heiti TC';-inkscape-font-specification:'Heiti TC Bold';stroke-width:0.26458332;fill:#ffe680;">TM</tspan></text>
    <g
       id="g2277"
       transform="rotate(28.164126,50.958532,228.35087)">
      <path
         style="opacity:1;fill:#aaccff;fill-opacity:1;fill-rule:nonzero;stroke:none;stroke-width:0.31299999;stroke-miterlimit:4;stroke-dasharray:none;stroke-opacity:1"
         inkscape:transform-center-x="-0.058269836"
         inkscape:transform-center-y="-5.6594751"
         d="m 72.769296,278.65947 -11.010793,6.74091 -11.010792,-0.006 -11.010792,-0.006 -11.010793,-6.75414 -13.399267,-19.40016 35.761967,-87.93272 35.50138,87.97544 z"
         id="path1365"
         inkscape:connector-curvature="0"
         sodipodi:nodetypes="ccccccccc" />
      <path
         sodipodi:nodetypes="ccccccc"
         inkscape:connector-curvature="0"
         id="path1367"
         d="m 72.769296,278.65947 -11.010793,6.74091 -11.010792,-0.006 -11.010792,-0.006 -11.010793,-6.75414 44.04317,0.0252 z"
         inkscape:transform-center-y="-5.6594751"
         inkscape:transform-center-x="-0.058269836"
         style="opacity:1;fill:#2a7fff;fill-opacity:1;fill-rule:nonzero;stroke:none;stroke-width:0.31299999;stroke-miterlimit:4;stroke-dasharray:none;stroke-opacity:1" />
      <path
         sodipodi:nodetypes="ccccccccc"
         inkscape:connector-curvature="0"
         id="path1308"
         d="m 71.480906,276.02902 -10.362104,6.34377 -10.362104,-0.006 -10.362103,-0.006 -10.362104,-6.35622 -12.609864,-18.25722 33.65509,-82.75226 33.409855,82.79246 z"
         inkscape:transform-center-y="-5.3264051"
         inkscape:transform-center-x="-0.054836836"
         style="opacity:1;fill:#aaccff;fill-opacity:1;fill-rule:nonzero;stroke:none;stroke-width:0.68314427;stroke-miterlimit:4;stroke-dasharray:none;stroke-opacity:1" />
      <path
         style="opacity:1;fill:#5599ff;fill-opacity:1;fill-rule:nonzero;stroke:none;stroke-width:0.68314427;stroke-miterlimit:4;stroke-dasharray:none;stroke-opacity:1"
         inkscape:transform-center-x="-0.054836836"
         inkscape:transform-center-y="-5.3264051"
         d="m 71.480906,276.02902 -10.362104,-5.82706 -10.362104,-0.006 -10.362103,-0.006 -10.362104,5.81461 -12.609864,-18.25722 33.65509,-82.75226 33.409855,82.79246 z"
         id="path1313"
         inkscape:connector-curvature="0"
         sodipodi:nodetypes="ccccccccc" />
      <path
         sodipodi:nodetypes="ccccccc"
         inkscape:connector-curvature="0"
         id="path1315"
         d="m 61.118802,247.44779 -10.362104,-0.006 -10.362103,-0.006 -22.971968,10.31156 33.65509,-82.75226 33.409855,82.79246 z"
         inkscape:transform-center-y="-5.3264051"
         inkscape:transform-center-x="-0.054836836"
         style="opacity:1;fill:#2a7fff;fill-opacity:1;fill-rule:nonzero;stroke:none;stroke-width:0.68314427;stroke-miterlimit:4;stroke-dasharray:none;stroke-opacity:1" />
      <path
         sodipodi:nodetypes="cccccc"
         inkscape:connector-curvature="0"
         id="path1319"
         d="m 61.118802,270.20196 -20.724207,-0.012 v -22.75417 l 10.683122,-72.4407 10.041085,72.4527 z"
         inkscape:transform-center-y="-5.3264051"
         inkscape:transform-center-x="-0.054836836"
         style="opacity:1;fill:#80b3ff;fill-opacity:1;fill-rule:nonzero;stroke:none;stroke-width:0.68314427;stroke-miterlimit:4;stroke-dasharray:none;stroke-opacity:1" />
      <path
         id="path1321"
         transform="matrix(0.26458333,0,0,0.26458333,0,156)"
         d="m 193.04883,71.792969 -40.37695,273.791011 39.16406,0.0234 39.16406,0.0215 z"
         style="opacity:1;fill:#5599ff;fill-opacity:1;fill-rule:nonzero;stroke:none;stroke-width:2.58196259;stroke-miterlimit:4;stroke-dasharray:none;stroke-opacity:1"
         inkscape:connector-curvature="0" />
      <path
         style="opacity:1;fill:#d5e5ff;fill-opacity:1;fill-rule:nonzero;stroke:none;stroke-width:0.68314427;stroke-miterlimit:4;stroke-dasharray:none;stroke-opacity:1"
         inkscape:transform-center-x="-0.054836836"
         inkscape:transform-center-y="-5.3264051"
         d="m 61.118802,282.37279 -20.724207,-0.012 10.683122,-5.23653 z"
         id="path1345"
         inkscape:connector-curvature="0"
         sodipodi:nodetypes="cccc" />
      <path
         sodipodi:nodetypes="ccccccccccc"
         inkscape:connector-curvature="0"
         id="path1351"
         d="m 30.032491,276.00457 8.601319,-7.16142 1.760624,-21.40739 1.232795,20.93967 18.428234,-0.28063 1.063339,-20.64701 1.836535,20.8341 8.525567,7.74713 -10.362102,-5.82706 -20.724207,-0.012 z"
         style="fill:#ffffff;fill-opacity:1;stroke:none;stroke-width:0.26458332px;stroke-linecap:butt;stroke-linejoin:miter;stroke-opacity:1" />
      <path
         sodipodi:nodetypes="ccccccccccc"
         inkscape:connector-curvature="0"
         id="path1353"
         d="m 19.803877,256.55672 19.883622,-11.81193 c 0,0 10.993128,-67.23603 11.390003,-69.74957 l -8.744169,69.88187 17.197916,-0.52918 -8.056872,-67.10373 10.967289,67.89749 c 0,0 19.664656,11.19067 22.045906,12.64588 l -23.368823,-10.3399 -20.724315,-0.0119 z"
         style="fill:#ffffff;stroke:none;stroke-width:0.26458332px;stroke-linecap:butt;stroke-linejoin:miter;stroke-opacity:1" />
      <path
         sodipodi:nodetypes="cccc"
         inkscape:connector-curvature="0"
         id="path1355"
         d="m 19.976041,254.93125 28.575,-72.36354 -22.886458,68.52708 z"
         style="fill:#5599ff;fill-opacity:1;stroke:none;stroke-width:0.26458332px;stroke-linecap:butt;stroke-linejoin:miter;stroke-opacity:1" />
      <path
         sodipodi:nodetypes="cccc"
         inkscape:connector-curvature="0"
         id="path1357"
         d="m 71.569791,273.58437 10.451041,-15.21354 -5.291666,-2.91041 z"
         style="fill:#80b3ff;fill-opacity:1;stroke:none;stroke-width:0.26458332px;stroke-linecap:butt;stroke-linejoin:miter;stroke-opacity:1" />
      <ellipse
         ry="3.4395833"
         rx="3.6380208"
         cy="229.79584"
         cx="37.636978"
         id="path1359"
         style="opacity:1;fill:#80b3ff;fill-opacity:1;fill-rule:nonzero;stroke:none;stroke-width:0.75499988;stroke-miterlimit:4;stroke-dasharray:none;stroke-opacity:1" />
      <ellipse
         style="opacity:1;fill:#80b3ff;fill-opacity:1;fill-rule:nonzero;stroke:none;stroke-width:0.46588403;stroke-miterlimit:4;stroke-dasharray:none;stroke-opacity:1"
         id="ellipse1361"
         cx="34.991146"
         cy="235.94742"
         rx="2.1828127"
         ry="2.1828125" />
      <path
         transform="matrix(0.31567098,0.2059889,-0.2059889,0.31567098,69.118887,182.12209)"
         sodipodi:type="star"
         style="opacity:1;fill:#ffffff;fill-opacity:1;fill-rule:nonzero;stroke:none;stroke-width:0.31299999;stroke-miterlimit:4;stroke-dasharray:none;stroke-opacity:1"
         id="path2189"
         sodipodi:sides="4"
         sodipodi:cx="19.314583"
         sodipodi:cy="199.89792"
         sodipodi:r1="20.652758"
         sodipodi:r2="2.6067085"
         sodipodi:arg1="-0.03844259"
         sodipodi:arg2="0.74695557"
         inkscape:flatsided="false"
         inkscape:rounded="0"
         inkscape:randomized="0"
         d="m 39.952082,199.10417 -18.724799,2.56477 -1.11895,18.86648 -2.564769,-18.7248 -18.86648,-1.11895 18.724799,-2.56477 1.11895,-18.86648 2.564769,18.7248 z" />
      <path
         d="m 39.952082,199.10417 -18.724799,2.56477 -1.11895,18.86648 -2.564769,-18.7248 -18.86648,-1.11895 18.724799,-2.56477 1.11895,-18.86648 2.564769,18.7248 z"
         inkscape:randomized="0"
         inkscape:rounded="0"
         inkscape:flatsided="false"
         sodipodi:arg2="0.74695557"
         sodipodi:arg1="-0.03844259"
         sodipodi:r2="2.6067085"
         sodipodi:r1="20.652758"
         sodipodi:cy="199.89792"
         sodipodi:cx="19.314583"
         sodipodi:sides="4"
         id="path2193"
         style="opacity:1;fill:#ffffff;fill-opacity:1;fill-rule:nonzero;stroke:none;stroke-width:0.31299999;stroke-miterlimit:4;stroke-dasharray:none;stroke-opacity:1"
         sodipodi:type="star"
         transform="matrix(0.06411971,0.30496028,-0.30496028,0.06411971,93.761668,230.49508)" />
      <path
         transform="matrix(0.18824279,0.22026662,-0.22026662,0.18824279,94.807114,154.26999)"
         d="m 39.952082,199.10417 -18.724799,2.56477 -1.11895,18.86648 -2.564769,-18.7248 -18.86648,-1.11895 18.724799,-2.56477 1.11895,-18.86648 2.564769,18.7248 z"
         inkscape:randomized="0"
         inkscape:rounded="0"
         inkscape:flatsided="false"
         sodipodi:arg2="0.74695557"
         sodipodi:arg1="-0.03844259"
         sodipodi:r2="2.6067085"
         sodipodi:r1="20.652758"
         sodipodi:cy="199.89792"
         sodipodi:cx="19.314583"
         sodipodi:sides="4"
         id="path2219"
         style="opacity:1;fill:#ffffff;fill-opacity:1;fill-rule:nonzero;stroke:none;stroke-width:0.31299999;stroke-miterlimit:4;stroke-dasharray:none;stroke-opacity:1"
         sodipodi:type="star" />
    </g>
  </g>
</svg>
