<?xml version="1.0" encoding="UTF-8" standalone="no"?>
<!-- Created with Inkscape (http://www.inkscape.org/) -->

<svg
   xmlns:dc="http://purl.org/dc/elements/1.1/"
   xmlns:cc="http://creativecommons.org/ns#"
   xmlns:rdf="http://www.w3.org/1999/02/22-rdf-syntax-ns#"
   xmlns:svg="http://www.w3.org/2000/svg"
   xmlns="http://www.w3.org/2000/svg"
   xmlns:xlink="http://www.w3.org/1999/xlink"
   xmlns:sodipodi="http://sodipodi.sourceforge.net/DTD/sodipodi-0.dtd"
   xmlns:inkscape="http://www.inkscape.org/namespaces/inkscape"
   width="318mm"
   height="125mm"
   viewBox="0 0 318 125"
   version="1.1"
   id="svg8"
   inkscape:version="0.92.4 (5da689c313, 2019-01-14)"
   sodipodi:docname="logo-alt5-v4.svg">
  <defs
     id="defs2" />
  <sodipodi:namedview
     id="base"
     pagecolor="#ffffff"
     bordercolor="#666666"
     borderopacity="1.0"
     inkscape:pageopacity="0.0"
     inkscape:pageshadow="2"
     inkscape:zoom="2.0000001"
     inkscape:cx="941.46774"
     inkscape:cy="89.085944"
     inkscape:document-units="mm"
     inkscape:current-layer="svg8"
     showgrid="false"
     inkscape:window-width="2560"
     inkscape:window-height="1395"
     inkscape:window-x="13"
     inkscape:window-y="0"
     inkscape:window-maximized="0" />
  <metadata
     id="metadata5">
    <rdf:RDF>
      <cc:Work
         rdf:about="">
        <dc:format>image/svg+xml</dc:format>
        <dc:type
           rdf:resource="http://purl.org/dc/dcmitype/StillImage" />
        <dc:title />
      </cc:Work>
    </rdf:RDF>
  </metadata>
  <g
     inkscape:label="Layer 1"
     inkscape:groupmode="layer"
     id="layer1"
     transform="translate(0,-172)"
     style="display:inline">
    <rect
       style="opacity:1;fill:#4d4d4d;fill-opacity:1;fill-rule:nonzero;stroke:none;stroke-width:0.31299999;stroke-miterlimit:4;stroke-dasharray:none;stroke-opacity:1"
       id="rect2298"
       width="315.64792"
       height="120.91458"
       x="1.5875"
       y="174.7625" />
    <g
       inkscape:groupmode="layer"
       id="layer2"
       inkscape:label="Calcite"
       style="display:inline">
      <g
         style="display:inline"
         id="g1170">
        <path
           transform="translate(3.1805073,-46.2109)"
           style="font-style:normal;font-variant:normal;font-weight:bold;font-stretch:normal;font-size:65.6166687px;line-height:1.25;font-family:'Heiti TC';-inkscape-font-specification:'Heiti TC Bold';letter-spacing:0px;word-spacing:0px;fill:#000000;fill-opacity:1;stroke:none;stroke-width:0.26458332"
           d="m 102.17188,268.0625 c -4.863105,0 -9.457148,1.17016 -13.679692,3.49023 -4.229817,2.32408 -7.603439,5.5777 -10.027344,9.67969 a 1.7000694,1.7000694 0 0 0 -0.0078,0.0137 c -2.376583,4.10077 -3.576172,8.62358 -3.576172,13.45118 0,7.7237 2.624384,14.33104 7.78711,19.44726 5.170874,5.12429 11.926601,7.71094 19.896478,7.71094 9.42957,0 17.14593,-3.60327 22.60157,-10.63086 a 1.7000694,1.7000694 0 0 0 -0.3125,-2.39649 l -4.39649,-3.3457 a 1.7000694,1.7000694 0 0 0 -2.31836,0.2461 c -4.30203,5.00524 -9.10342,7.34765 -14.78515,7.34765 -5.823437,0 -10.345986,-1.69834 -13.914064,-5.10351 -3.543957,-3.4677 -5.253906,-7.59337 -5.253906,-12.75196 0,-5.19727 1.750958,-9.38905 5.388672,-12.94922 3.701398,-3.57937 7.921324,-5.29882 12.990228,-5.29882 6.22628,0 11.26382,2.4542 15.55274,7.65039 a 1.7000694,1.7000694 0 0 0 2.34961,0.26367 l 4.33203,-3.3457 a 1.7000694,1.7000694 0 0 0 0.34179,-2.3379 c -2.60104,-3.62288 -5.90184,-6.40443 -9.82421,-8.27539 -3.88631,-1.91823 -8.29114,-2.86523 -13.14453,-2.86523 z m 73.36523,0 a 1.7000694,1.7000694 0 0 0 -1.69922,1.69922 v 49.21289 a 1.7000694,1.7000694 0 0 0 1.69922,1.69922 h 5.38086 a 1.7000694,1.7000694 0 0 0 1.69922,-1.69922 v -49.21289 a 1.7000694,1.7000694 0 0 0 -1.69922,-1.69922 z m 58.18164,0 c -1.55276,0 -3.04846,0.6422 -4.15234,1.74609 a 1.7000694,1.7000694 0 0 0 -0.0332,0.0312 c -1.05264,1.11112 -1.64648,2.59092 -1.64648,4.1211 0,1.50214 0.60263,2.95674 1.64648,4.05859 a 1.7000694,1.7000694 0 0 0 0.0332,0.0312 c 1.10482,1.10482 2.60152,1.74414 4.15234,1.74414 1.55937,0 3.06648,-0.59188 4.1543,-1.67969 1.10482,-1.10482 1.74609,-2.60154 1.74609,-4.15429 0,-1.56521 -0.63559,-3.07059 -1.75195,-4.14649 -1.07686,-1.11736 -2.58322,-1.75195 -4.14844,-1.75195 z m 14.97656,0 a 1.7000694,1.7000694 0 0 0 -1.69922,1.69922 v 11.75195 h -4.46875 a 1.7000694,1.7000694 0 0 0 -1.69922,1.69922 v 4.72461 a 1.7000694,1.7000694 0 0 0 1.69922,1.69922 h 4.46875 v 24.08789 c 0,2.48581 0.5574,4.61272 1.98047,6.09766 a 1.7000694,1.7000694 0 0 0 0.0254,0.0254 c 1.42454,1.42453 3.48978,2.00781 5.86133,2.00781 1.27541,0 2.92175,-0.18911 5.06836,-0.54688 a 1.7000694,1.7000694 0 0 0 1.41992,-1.67773 v -4.6582 a 1.7000694,1.7000694 0 0 0 -1.69922,-1.69922 h -3.15039 c -0.29208,0 -0.44624,-0.0181 -0.64453,-0.0312 -0.006,-0.097 -0.0176,-0.11504 -0.0176,-0.23828 v -23.36719 h 5.38672 a 1.7000694,1.7000694 0 0 0 1.69922,-1.69922 v -4.72461 a 1.7000694,1.7000694 0 0 0 -1.69922,-1.69922 h -5.38672 v -11.75195 a 1.7000694,1.7000694 0 0 0 -1.69922,-1.69922 z m -100.23047,12.5332 c -5.60671,0 -10.55152,2.07843 -14.46484,6.08203 -0.001,10e-4 -0.003,0.003 -0.004,0.004 -0.001,10e-4 -0.003,0.003 -0.004,0.004 -3.90778,3.95879 -5.92774,8.91097 -5.92774,14.50781 0,5.55567 1.99476,10.51569 5.84961,14.55859 a 1.7000694,1.7000694 0 0 0 0.0137,0.0137 c 3.90716,4.00131 8.78373,6.08985 14.27344,6.08985 4.29542,0 8.2561,-1.48762 11.75195,-4.25586 v 1.375 a 1.7000694,1.7000694 0 0 0 1.69922,1.69922 h 5.31641 a 1.7000694,1.7000694 0 0 0 1.69922,-1.69922 V 283.2131 a 1.7000694,1.7000694 0 0 0 -1.69922,-1.69922 h -5.31641 a 1.7000694,1.7000694 0 0 0 -1.69922,1.69922 v 1.40625 c -3.28816,-2.63867 -7.1779,-4.02344 -11.48828,-4.02344 z m 59.17383,0 c -6.26276,0 -11.60293,2.06324 -15.63672,6.14063 -4.00099,4.001 -6.07617,9.00149 -6.07617,14.65234 0,5.64597 2.04972,10.61061 6.01563,14.5293 a 1.7000694,1.7000694 0 0 0 0.008,0.008 c 4.01862,3.92406 9.14792,5.92969 15.0332,5.92969 3.77068,0 7.31734,-0.77601 10.56641,-2.32813 l 0.002,-0.002 c 3.31693,-1.56421 6.04714,-3.87933 8.0918,-6.875 a 1.7000694,1.7000694 0 0 0 -0.44141,-2.35937 l -4.19922,-2.88672 a 1.7000694,1.7000694 0 0 0 -2.28125,0.32812 c -3.15652,3.88495 -6.76952,5.67188 -11.27929,5.67188 -3.77972,0 -6.6841,-1.18043 -9.0918,-3.62696 -2.43461,-2.47388 -3.58008,-5.26654 -3.58008,-8.71679 0,-3.44358 1.14922,-6.11132 3.59766,-8.4043 a 1.7000694,1.7000694 0 0 0 0.01,-0.01 c 2.45347,-2.33663 5.36192,-3.46875 9.06446,-3.46875 4.70547,0 8.2618,1.76546 11.18554,5.57032 a 1.7000694,1.7000694 0 0 0 2.25586,0.40234 l 4.26367,-2.69141 a 1.7000694,1.7000694 0 0 0 0.54688,-2.3164 c -1.82007,-3.01748 -4.39898,-5.39495 -7.62305,-7.05664 l -0.002,-0.002 c -3.17615,-1.65872 -6.68301,-2.48828 -10.42969,-2.48828 z m 76.15039,0 c -5.61048,0 -10.52351,2.08633 -14.35351,6.10547 a 1.7000694,1.7000694 0 0 0 -0.008,0.006 c -3.77072,4.00639 -5.71093,8.96412 -5.71093,14.55078 0,5.58667 1.94001,10.54613 5.71093,14.55274 a 1.7000694,1.7000694 0 0 0 0.008,0.006 c 3.79963,3.98961 8.78326,6.03906 14.55078,6.03906 4.15461,0 7.85438,-0.97259 10.95508,-2.95899 a 1.7000694,1.7000694 0 0 0 0.0176,-0.01 c 3.09031,-2.028 5.69077,-5.0892 7.84571,-9.07813 a 1.7000694,1.7000694 0 0 0 -0.71875,-2.32031 l -4.59375,-2.36133 a 1.7000694,1.7000694 0 0 0 -2.27539,0.70899 c -2.80737,5.24858 -6.45252,7.56836 -11.625,7.56836 -2.96663,0 -5.37017,-0.97501 -7.53711,-3.06055 -1.69429,-1.69991 -2.60061,-3.94324 -3.05078,-6.59961 H 302.293 a 1.7000694,1.7000694 0 0 0 1.69922,-1.73633 c -0.13801,-6.44069 -2.10065,-11.7569 -5.94336,-15.59961 -3.79483,-3.83862 -8.67204,-5.8125 -14.25977,-5.8125 z m -52.75976,0.91797 a 1.7000694,1.7000694 0 0 0 -1.69922,1.69922 v 35.76172 a 1.7000694,1.7000694 0 0 0 1.69922,1.69922 h 5.44531 a 1.7000694,1.7000694 0 0 0 1.69922,-1.69922 v -35.76172 a 1.7000694,1.7000694 0 0 0 -1.69922,-1.69922 z m -82.5,7.73047 c 3.3603,0 5.99928,1.11292 8.29297,3.48438 a 1.7000694,1.7000694 0 0 0 0.01,0.01 c 2.28306,2.32175 3.38477,5.08477 3.38477,8.65039 0,3.51111 -1.11195,6.24866 -3.43946,8.57617 -2.34767,2.34767 -4.96062,3.43946 -8.18164,3.43946 -3.25378,0 -5.87508,-1.12347 -8.22265,-3.54688 -2.35786,-2.4781 -3.46485,-5.21751 -3.46485,-8.5332 0,-3.32506 1.08902,-6.04365 3.40235,-8.47461 a 1.7000694,1.7000694 0 0 0 0.01,-0.01 c 2.30231,-2.45839 4.91036,-3.5957 8.20899,-3.5957 z m 135.25976,0 c 2.69827,0 4.96347,0.73136 6.99805,2.22852 1.41185,1.0389 2.31942,2.45131 3.00781,4.08398 h -19.60937 c 0.83382,-1.78121 1.79836,-3.28387 3.01757,-4.25391 1.709,-1.35971 3.82331,-2.05859 6.58594,-2.05859 z"
           id="path2332"
           inkscape:connector-curvature="0" />
        <path
           transform="translate(3.567229e-5,4e-5)"
           style="font-style:normal;font-variant:normal;font-weight:normal;font-stretch:normal;font-size:65.6166687px;line-height:1.25;font-family:Silom;-inkscape-font-specification:Silom;letter-spacing:0px;word-spacing:0px;fill:#ffe680;fill-opacity:1;stroke:none;stroke-width:0.26458332"
           d="m 105.35156,223.55078 c -4.59316,0 -8.880581,1.09403 -12.861326,3.28125 -3.980744,2.18722 -7.108101,5.20518 -9.382812,9.05469 -2.230967,3.84951 -3.345703,8.05019 -3.345703,12.59961 0,7.34907 2.427569,13.42834 7.283203,18.24023 4.855633,4.81189 11.089638,7.21875 18.701168,7.21875 9.01136,0 16.09792,-3.32545 21.25977,-9.97461 l -4.39648,-3.3457 c -4.54943,5.29308 -9.90821,7.93945 -16.07618,7.93945 -6.16796,0 -11.198538,-1.85984 -15.091794,-5.57812 -3.849511,-3.76202 -5.77539,-8.42102 -5.77539,-13.97656 0,-5.59929 1.96925,-10.32237 5.90625,-14.17188 3.980744,-3.84951 8.705774,-5.77539 14.173824,-5.77539 6.6929,0 12.31386,2.75578 16.86329,8.26758 l 4.33007,-3.3457 c -2.44969,-3.41207 -5.51101,-5.99241 -9.18554,-7.74219 -3.63079,-1.79352 -7.76544,-2.69141 -12.40235,-2.69141 z m 73.36524,0 v 49.21289 h 5.38086 v -49.21289 z m 58.18359,0 c -1.13735,0 -2.12198,0.4169 -2.95312,1.24805 -0.7874,0.83114 -1.18164,1.81381 -1.18165,2.95117 10e-6,1.09361 0.39425,2.05753 1.18165,2.88867 0.83114,0.83115 1.81577,1.2461 2.95312,1.2461 1.1811,0 2.16573,-0.39424 2.95313,-1.18165 0.83114,-0.83114 1.24609,-1.81576 1.24609,-2.95312 0,-1.1811 -0.41495,-2.16377 -1.24609,-2.95117 -0.7874,-0.83115 -1.77203,-1.24805 -2.95313,-1.24805 z m 14.97461,0 v 13.45117 h -6.16797 v 4.72461 h 6.16797 v 25.78711 c 0,2.23097 0.50364,3.87201 1.50977,4.92188 1.00612,1.00612 2.55847,1.50976 4.6582,1.50976 1.09361,0 2.68933,-0.17543 4.78906,-0.52539 v -4.6582 h -3.14844 c -1.04986,0 -1.70628,-0.0887 -1.96875,-0.26367 -0.26246,-0.21873 -0.39453,-0.78645 -0.39453,-1.70508 v -25.06641 h 7.08789 v -4.72461 h -7.08789 v -13.45117 z m -100.23047,12.5332 c -5.20559,0 -9.62312,1.85985 -13.25391,5.57813 -3.63078,3.67453 -5.44726,8.11472 -5.44726,13.32031 0,5.16185 1.79381,9.62275 5.38086,13.38477 3.63079,3.71828 7.98424,5.57812 13.05859,5.57812 5.07436,0 9.55792,-2.14468 13.45117,-6.43164 v 5.25 h 5.31446 v -35.76172 h -5.31446 v 5.44727 c -3.5433,-4.24321 -7.94012,-6.36524 -13.18945,-6.36524 z m 59.17383,0 c -5.9055,0 -10.71727,1.88056 -14.43555,5.64258 -3.71828,3.71828 -5.57812,8.20184 -5.57812,13.45117 0,5.24934 1.83718,9.68953 5.51172,13.32032 3.71827,3.63079 8.3339,5.44726 13.8457,5.44726 3.5433,0 6.82343,-0.72245 9.8418,-2.16601 3.06211,-1.44357 5.535,-3.54293 7.41601,-6.29883 l -4.19922,-2.88672 c -3.41206,4.19947 -7.61274,6.29883 -12.59961,6.29883 -4.15572,0 -7.58862,-1.37887 -10.30078,-4.13477 -2.71215,-2.7559 -4.06836,-6.05869 -4.06836,-9.9082 0,-3.84951 1.37692,-7.06361 4.13282,-9.64453 2.7559,-2.62467 6.16809,-3.9375 10.23632,-3.9375 5.16185,0 9.33986,2.07865 12.53321,6.23437 l 4.26562,-2.6914 c -1.66229,-2.7559 -3.98045,-4.89864 -6.95508,-6.42969 -2.93087,-1.53106 -6.14692,-2.29688 -9.64648,-2.29688 z m 76.15039,0 c -5.20559,0 -9.57975,1.85985 -13.12305,5.57813 -3.49955,3.71828 -5.24804,8.17918 -5.24804,13.38477 0,5.20558 1.74849,9.66844 5.24804,13.38671 3.49956,3.67454 7.93975,5.51172 13.32032,5.51172 3.89325,0 7.23941,-0.89788 10.03906,-2.6914 2.79964,-1.83727 5.22917,-4.65908 7.28515,-8.46485 l -4.59375,-2.36133 c -3.01836,5.64304 -7.39252,8.46485 -13.12304,8.46485 -3.36832,0 -6.27883,-1.18077 -8.72852,-3.54297 -2.40594,-2.40595 -3.71682,-5.57863 -3.93554,-9.51563 h 31.36328 c -0.13124,-6.12422 -1.94576,-10.93599 -5.44532,-14.43554 -3.49955,-3.5433 -7.853,-5.31446 -13.05859,-5.31446 z m -52.75977,0.91797 v 35.76172 h 5.44727 v -35.76172 z m -82.49804,4.33203 c 3.76202,0 6.93275,1.33355 9.51367,4.00196 2.58092,2.62466 3.87109,5.90479 3.87109,9.84179 0,3.89326 -1.31283,7.15268 -3.9375,9.77735 -2.62466,2.62466 -5.75202,3.9375 -9.38281,3.9375 -3.67453,0 -6.82455,-1.35621 -9.44922,-4.06836 -2.62466,-2.7559 -3.93555,-5.99266 -3.93555,-9.71094 10e-6,-3.71828 1.29018,-6.93433 3.8711,-9.64648 2.58092,-2.7559 5.73094,-4.13282 9.44922,-4.13282 z m 135.25781,0 c 3.01837,0 5.6874,0.85256 8.00586,2.5586 2.31846,1.70603 3.80672,4.09023 4.46289,7.15234 h -24.67188 c 2.01225,-6.47418 6.07891,-9.71094 12.20313,-9.71094 z"
           id="path1569"
           inkscape:connector-curvature="0" />
      </g>
    </g>
    <g
       id="g2277"
       transform="rotate(28.164126,50.958532,228.35087)">
      <path
         style="opacity:1;fill:#aaccff;fill-opacity:1;fill-rule:nonzero;stroke:none;stroke-width:0.31299999;stroke-miterlimit:4;stroke-dasharray:none;stroke-opacity:1"
         inkscape:transform-center-x="-0.058269836"
         inkscape:transform-center-y="-5.6594751"
         d="m 72.769296,278.65947 -11.010793,6.74091 -11.010792,-0.006 -11.010792,-0.006 -11.010793,-6.75414 -13.399267,-19.40016 35.761967,-87.93272 35.50138,87.97544 z"
         id="path1365"
         inkscape:connector-curvature="0"
         sodipodi:nodetypes="ccccccccc" />
      <path
         sodipodi:nodetypes="ccccccc"
         inkscape:connector-curvature="0"
         id="path1367"
         d="m 72.769296,278.65947 -11.010793,6.74091 -11.010792,-0.006 -11.010792,-0.006 -11.010793,-6.75414 44.04317,0.0252 z"
         inkscape:transform-center-y="-5.6594751"
         inkscape:transform-center-x="-0.058269836"
         style="opacity:1;fill:#2a7fff;fill-opacity:1;fill-rule:nonzero;stroke:none;stroke-width:0.31299999;stroke-miterlimit:4;stroke-dasharray:none;stroke-opacity:1" />
      <path
         sodipodi:nodetypes="ccccccccc"
         inkscape:connector-curvature="0"
         id="path1308"
         d="m 71.480906,276.02902 -10.362104,6.34377 -10.362104,-0.006 -10.362103,-0.006 -10.362104,-6.35622 -12.609864,-18.25722 33.65509,-82.75226 33.409855,82.79246 z"
         inkscape:transform-center-y="-5.3264051"
         inkscape:transform-center-x="-0.054836836"
         style="opacity:1;fill:#aaccff;fill-opacity:1;fill-rule:nonzero;stroke:none;stroke-width:0.68314427;stroke-miterlimit:4;stroke-dasharray:none;stroke-opacity:1" />
      <path
         style="opacity:1;fill:#5599ff;fill-opacity:1;fill-rule:nonzero;stroke:none;stroke-width:0.68314427;stroke-miterlimit:4;stroke-dasharray:none;stroke-opacity:1"
         inkscape:transform-center-x="-0.054836836"
         inkscape:transform-center-y="-5.3264051"
         d="m 71.480906,276.02902 -10.362104,-5.82706 -10.362104,-0.006 -10.362103,-0.006 -10.362104,5.81461 -12.609864,-18.25722 33.65509,-82.75226 33.409855,82.79246 z"
         id="path1313"
         inkscape:connector-curvature="0"
         sodipodi:nodetypes="ccccccccc" />
      <path
         sodipodi:nodetypes="ccccccc"
         inkscape:connector-curvature="0"
         id="path1315"
         d="m 61.118802,247.44779 -10.362104,-0.006 -10.362103,-0.006 -22.971968,10.31156 33.65509,-82.75226 33.409855,82.79246 z"
         inkscape:transform-center-y="-5.3264051"
         inkscape:transform-center-x="-0.054836836"
         style="opacity:1;fill:#2a7fff;fill-opacity:1;fill-rule:nonzero;stroke:none;stroke-width:0.68314427;stroke-miterlimit:4;stroke-dasharray:none;stroke-opacity:1" />
      <path
         sodipodi:nodetypes="cccccc"
         inkscape:connector-curvature="0"
         id="path1319"
         d="m 61.118802,270.20196 -20.724207,-0.012 v -22.75417 l 10.683122,-72.4407 10.041085,72.4527 z"
         inkscape:transform-center-y="-5.3264051"
         inkscape:transform-center-x="-0.054836836"
         style="opacity:1;fill:#80b3ff;fill-opacity:1;fill-rule:nonzero;stroke:none;stroke-width:0.68314427;stroke-miterlimit:4;stroke-dasharray:none;stroke-opacity:1" />
      <path
         id="path1321"
         transform="matrix(0.26458333,0,0,0.26458333,0,156)"
         d="m 193.04883,71.792969 -40.37695,273.791011 39.16406,0.0234 39.16406,0.0215 z"
         style="opacity:1;fill:#5599ff;fill-opacity:1;fill-rule:nonzero;stroke:none;stroke-width:2.58196259;stroke-miterlimit:4;stroke-dasharray:none;stroke-opacity:1"
         inkscape:connector-curvature="0" />
      <path
         style="opacity:1;fill:#d5e5ff;fill-opacity:1;fill-rule:nonzero;stroke:none;stroke-width:0.68314427;stroke-miterlimit:4;stroke-dasharray:none;stroke-opacity:1"
         inkscape:transform-center-x="-0.054836836"
         inkscape:transform-center-y="-5.3264051"
         d="m 61.118802,282.37279 -20.724207,-0.012 10.683122,-5.23653 z"
         id="path1345"
         inkscape:connector-curvature="0"
         sodipodi:nodetypes="cccc" />
      <path
         sodipodi:nodetypes="ccccccccccc"
         inkscape:connector-curvature="0"
         id="path1351"
         d="m 30.032491,276.00457 8.601319,-7.16142 1.760624,-21.40739 1.232795,20.93967 18.428234,-0.28063 1.063339,-20.64701 1.836535,20.8341 8.525567,7.74713 -10.362102,-5.82706 -20.724207,-0.012 z"
         style="fill:#ffffff;fill-opacity:1;stroke:none;stroke-width:0.26458332px;stroke-linecap:butt;stroke-linejoin:miter;stroke-opacity:1" />
      <path
         sodipodi:nodetypes="ccccccccccc"
         inkscape:connector-curvature="0"
         id="path1353"
         d="m 19.803877,256.55672 19.883622,-11.81193 c 0,0 10.993128,-67.23603 11.390003,-69.74957 l -8.744169,69.88187 17.197916,-0.52918 -8.056872,-67.10373 10.967289,67.89749 c 0,0 19.664656,11.19067 22.045906,12.64588 l -23.368823,-10.3399 -20.724315,-0.0119 z"
         style="fill:#ffffff;stroke:none;stroke-width:0.26458332px;stroke-linecap:butt;stroke-linejoin:miter;stroke-opacity:1" />
      <path
         sodipodi:nodetypes="cccc"
         inkscape:connector-curvature="0"
         id="path1355"
         d="m 19.976041,254.93125 28.575,-72.36354 -22.886458,68.52708 z"
         style="fill:#5599ff;fill-opacity:1;stroke:none;stroke-width:0.26458332px;stroke-linecap:butt;stroke-linejoin:miter;stroke-opacity:1" />
      <path
         sodipodi:nodetypes="cccc"
         inkscape:connector-curvature="0"
         id="path1357"
         d="m 71.569791,273.58437 10.451041,-15.21354 -5.291666,-2.91041 z"
         style="fill:#80b3ff;fill-opacity:1;stroke:none;stroke-width:0.26458332px;stroke-linecap:butt;stroke-linejoin:miter;stroke-opacity:1" />
      <ellipse
         ry="3.4395833"
         rx="3.6380208"
         cy="229.79584"
         cx="37.636978"
         id="path1359"
         style="opacity:1;fill:#80b3ff;fill-opacity:1;fill-rule:nonzero;stroke:none;stroke-width:0.75499988;stroke-miterlimit:4;stroke-dasharray:none;stroke-opacity:1" />
      <ellipse
         style="opacity:1;fill:#80b3ff;fill-opacity:1;fill-rule:nonzero;stroke:none;stroke-width:0.46588403;stroke-miterlimit:4;stroke-dasharray:none;stroke-opacity:1"
         id="ellipse1361"
         cx="34.991146"
         cy="235.94742"
         rx="2.1828127"
         ry="2.1828125" />
      <path
         transform="matrix(0.31567098,0.2059889,-0.2059889,0.31567098,69.118887,182.12209)"
         sodipodi:type="star"
         style="opacity:1;fill:#ffffff;fill-opacity:1;fill-rule:nonzero;stroke:none;stroke-width:0.31299999;stroke-miterlimit:4;stroke-dasharray:none;stroke-opacity:1"
         id="path2189"
         sodipodi:sides="4"
         sodipodi:cx="19.314583"
         sodipodi:cy="199.89792"
         sodipodi:r1="20.652758"
         sodipodi:r2="2.6067085"
         sodipodi:arg1="-0.03844259"
         sodipodi:arg2="0.74695557"
         inkscape:flatsided="false"
         inkscape:rounded="0"
         inkscape:randomized="0"
         d="m 39.952082,199.10417 -18.724799,2.56477 -1.11895,18.86648 -2.564769,-18.7248 -18.86648,-1.11895 18.724799,-2.56477 1.11895,-18.86648 2.564769,18.7248 z" />
      <path
         d="m 39.952082,199.10417 -18.724799,2.56477 -1.11895,18.86648 -2.564769,-18.7248 -18.86648,-1.11895 18.724799,-2.56477 1.11895,-18.86648 2.564769,18.7248 z"
         inkscape:randomized="0"
         inkscape:rounded="0"
         inkscape:flatsided="false"
         sodipodi:arg2="0.74695557"
         sodipodi:arg1="-0.03844259"
         sodipodi:r2="2.6067085"
         sodipodi:r1="20.652758"
         sodipodi:cy="199.89792"
         sodipodi:cx="19.314583"
         sodipodi:sides="4"
         id="path2193"
         style="opacity:1;fill:#ffffff;fill-opacity:1;fill-rule:nonzero;stroke:none;stroke-width:0.31299999;stroke-miterlimit:4;stroke-dasharray:none;stroke-opacity:1"
         sodipodi:type="star"
         transform="matrix(0.06411971,0.30496028,-0.30496028,0.06411971,93.761668,230.49508)" />
      <path
         transform="matrix(0.18824279,0.22026662,-0.22026662,0.18824279,94.807114,154.26999)"
         d="m 39.952082,199.10417 -18.724799,2.56477 -1.11895,18.86648 -2.564769,-18.7248 -18.86648,-1.11895 18.724799,-2.56477 1.11895,-18.86648 2.564769,18.7248 z"
         inkscape:randomized="0"
         inkscape:rounded="0"
         inkscape:flatsided="false"
         sodipodi:arg2="0.74695557"
         sodipodi:arg1="-0.03844259"
         sodipodi:r2="2.6067085"
         sodipodi:r1="20.652758"
         sodipodi:cy="199.89792"
         sodipodi:cx="19.314583"
         sodipodi:sides="4"
         id="path2219"
         style="opacity:1;fill:#ffffff;fill-opacity:1;fill-rule:nonzero;stroke:none;stroke-width:0.31299999;stroke-miterlimit:4;stroke-dasharray:none;stroke-opacity:1"
         sodipodi:type="star" />
    </g>
  </g>
  <g
     inkscape:groupmode="layer"
     id="layer4"
     inkscape:label="TM"
     style="display:inline">
    <path
       sodipodi:type="inkscape:offset"
       inkscape:radius="0.52916789"
       inkscape:original="M 307.14258 208.44922 L 307.14258 209.33789 L 308.84766 209.33789 L 308.84766 216.19727 L 309.76758 216.19727 L 309.76758 209.33789 L 311.46094 209.33789 L 311.46094 208.44922 L 307.14258 208.44922 z M 313.15234 208.44922 L 312.05078 216.19727 L 312.92969 216.19727 L 313.64844 210.88477 L 316.28516 216.19727 L 316.56055 216.19727 L 319.16406 210.92578 L 319.88281 216.19727 L 320.7832 216.19727 L 319.67188 208.44922 L 319.44922 208.44922 L 316.42188 214.59961 L 313.375 208.44922 L 313.15234 208.44922 z "
       xlink:href="#text939"
       style="font-style:normal;font-variant:normal;font-weight:normal;font-stretch:normal;font-size:10.58333302px;line-height:1.25;font-family:Silom;-inkscape-font-specification:Silom;letter-spacing:0px;word-spacing:0px;display:inline;fill:#000000;fill-opacity:1;stroke:none;stroke-width:0.26458332"
       id="path2359"
       d="m 307.14258,207.91992 a 0.52922081,0.52922081 0 0 0 -0.5293,0.5293 v 0.88867 a 0.52922081,0.52922081 0 0 0 0.5293,0.5293 h 1.17578 v 6.33008 a 0.52922081,0.52922081 0 0 0 0.5293,0.52929 h 0.91992 a 0.52922081,0.52922081 0 0 0 0.5293,-0.52929 v -6.33008 h 1.16406 a 0.52922081,0.52922081 0 0 0 0.52929,-0.5293 v -0.88867 a 0.52922081,0.52922081 0 0 0 -0.52929,-0.5293 z m 6.00976,0 a 0.52922081,0.52922081 0 0 0 -0.52343,0.45508 l -1.10157,7.74805 a 0.52922081,0.52922081 0 0 0 0.52344,0.60351 h 0.87891 a 0.52922081,0.52922081 0 0 0 0.52343,-0.45898 l 0.48829,-3.60352 1.86914,3.76758 a 0.52922081,0.52922081 0 0 0 0.47461,0.29492 h 0.27539 a 0.52922081,0.52922081 0 0 0 0.47461,-0.29492 l 1.83789,-3.72266 0.48633,3.56055 a 0.52922081,0.52922081 0 0 0 0.52343,0.45703 h 0.90039 a 0.52922081,0.52922081 0 0 0 0.52344,-0.60351 l -1.11133,-7.74805 a 0.52922081,0.52922081 0 0 0 -0.52343,-0.45508 h -0.22266 a 0.52922081,0.52922081 0 0 0 -0.47461,0.29492 l -2.55469,5.18946 -2.57031,-5.18946 a 0.52922081,0.52922081 0 0 0 -0.47461,-0.29492 z"
       transform="translate(-18.256249,-159.3)"
       inkscape:href="#text939" />
    <path
       inkscape:href="#text939"
       transform="translate(-18.256249,-159.3)"
       d="m 307.14258,208.31641 a 0.13243702,0.13243702 0 0 0 -0.13281,0.13281 v 0.88867 a 0.13243702,0.13243702 0 0 0 0.13281,0.13281 h 1.57226 v 6.72657 a 0.13243702,0.13243702 0 0 0 0.13282,0.13281 h 0.91992 a 0.13243702,0.13243702 0 0 0 0.13281,-0.13281 v -6.72657 h 1.56055 a 0.13243702,0.13243702 0 0 0 0.13281,-0.13281 v -0.88867 a 0.13243702,0.13243702 0 0 0 -0.13281,-0.13281 z m 6.00976,0 a 0.13243702,0.13243702 0 0 0 -0.13086,0.11328 l -1.10156,7.74804 a 0.13243702,0.13243702 0 0 0 0.13086,0.15235 h 0.87891 a 0.13243702,0.13243702 0 0 0 0.13086,-0.11524 l 0.66015,-4.88476 2.44532,4.92578 a 0.13243702,0.13243702 0 0 0 0.11914,0.0742 h 0.27539 a 0.13243702,0.13243702 0 0 0 0.11914,-0.0742 l 2.41211,-4.88281 0.66015,4.84179 a 0.13243702,0.13243702 0 0 0 0.13086,0.11524 h 0.90039 a 0.13243702,0.13243702 0 0 0 0.13086,-0.15235 l -1.11133,-7.74804 a 0.13243702,0.13243702 0 0 0 -0.13085,-0.11328 h -0.22266 a 0.13243702,0.13243702 0 0 0 -0.11914,0.0742 l -2.9082,5.90821 -2.92774,-5.90821 a 0.13243702,0.13243702 0 0 0 -0.11914,-0.0742 z"
       id="path1195"
       style="font-style:normal;font-variant:normal;font-weight:normal;font-stretch:normal;font-size:10.58333302px;line-height:1.25;font-family:Silom;-inkscape-font-specification:Silom;letter-spacing:0px;word-spacing:0px;display:inline;fill:#ffe680;fill-opacity:1;stroke:none;stroke-width:0.26458332"
       xlink:href="#text939"
       inkscape:original="M 307.14258 208.44922 L 307.14258 209.33789 L 308.84766 209.33789 L 308.84766 216.19727 L 309.76758 216.19727 L 309.76758 209.33789 L 311.46094 209.33789 L 311.46094 208.44922 L 307.14258 208.44922 z M 313.15234 208.44922 L 312.05078 216.19727 L 312.92969 216.19727 L 313.64844 210.88477 L 316.28516 216.19727 L 316.56055 216.19727 L 319.16406 210.92578 L 319.88281 216.19727 L 320.7832 216.19727 L 319.67188 208.44922 L 319.44922 208.44922 L 316.42188 214.59961 L 313.375 208.44922 L 313.15234 208.44922 z "
       inkscape:radius="0.13242377"
       sodipodi:type="inkscape:offset" />
  </g>
  <g
     inkscape:groupmode="layer"
     id="layer3"
     inkscape:label="APACHE"
     style="display:inline">
    <path
       sodipodi:type="inkscape:offset"
       inkscape:radius="0.56474233"
       inkscape:original="M 90.384766 209.83984 L 84.525391 222.72656 L 86.134766 222.72656 L 88.03125 218.57812 L 93.144531 218.57812 L 95.058594 222.72656 L 96.599609 222.72656 L 90.824219 209.83984 L 90.384766 209.83984 z M 112.93945 209.83984 L 107.08203 222.72656 L 108.68945 222.72656 L 110.58594 218.57812 L 115.70117 218.57812 L 117.61328 222.72656 L 119.1543 222.72656 L 113.38086 209.83984 L 112.93945 209.83984 z M 126.79492 210.02539 C 125.60959 210.02539 124.50385 210.3086 123.47656 210.87305 C 122.44927 211.43749 121.64171 212.21556 121.05469 213.20898 C 120.47895 214.20241 120.19141 215.28689 120.19141 216.46094 C 120.19141 218.35747 120.8192 219.92619 122.07227 221.16797 C 123.32533 222.40975 124.93222 223.03125 126.89648 223.03125 C 129.222 223.03125 131.05072 222.17294 132.38281 220.45703 L 131.25 219.59375 C 130.07596 220.95971 128.69134 221.64258 127.09961 221.64258 C 125.50788 221.64258 124.20979 221.16268 123.20508 220.20312 C 122.21166 219.23228 121.71484 218.02939 121.71484 216.5957 C 121.71484 215.15073 122.22423 213.93288 123.24023 212.93945 C 124.26752 211.94603 125.48537 211.44922 126.89648 211.44922 C 128.62368 211.44922 130.07596 212.15963 131.25 213.58203 L 132.36719 212.71875 C 131.73501 211.83822 130.94436 211.17226 129.99609 210.7207 C 129.05912 210.25786 127.99154 210.02539 126.79492 210.02539 z M 98.195312 210.33008 L 98.195312 222.72656 L 99.650391 222.72656 L 99.650391 217.07031 L 100.39648 217.07031 C 101.83017 217.07031 102.82813 217.01328 103.39258 216.90039 C 103.95702 216.77621 104.43258 216.57324 104.81641 216.29102 C 105.21152 215.9975 105.50969 215.63167 105.71289 215.19141 C 105.92738 214.75114 106.03516 214.25433 106.03516 213.70117 C 106.03516 213.14802 105.92738 212.6512 105.71289 212.21094 C 105.4984 211.77067 105.20023 211.40289 104.81641 211.10938 C 104.44387 210.81586 104.03163 210.61289 103.58008 210.5 C 103.12852 210.38711 102.17935 210.33008 100.73438 210.33008 L 98.195312 210.33008 z M 134.49219 210.33008 L 134.49219 222.72656 L 135.96484 222.72656 L 135.96484 216.84961 L 141.9082 216.84961 L 141.9082 222.72656 L 143.36523 222.72656 L 143.36523 210.33008 L 141.9082 210.33008 L 141.9082 215.42773 L 135.96484 215.42773 L 135.96484 210.33008 L 134.49219 210.33008 z M 146.10156 210.33008 L 146.10156 222.72656 L 153.26367 222.72656 L 153.26367 221.28711 L 147.55664 221.28711 L 147.55664 216.74805 L 153.26367 216.74805 L 153.26367 215.32617 L 147.55664 215.32617 L 147.55664 211.76953 L 153.31445 211.76953 L 153.31445 210.33008 L 146.10156 210.33008 z M 99.650391 211.75391 L 101.68359 211.75391 C 103.58013 211.75391 104.52734 212.39666 104.52734 213.68359 C 104.52734 214.25933 104.31808 214.73922 103.90039 215.12305 C 103.49399 215.50687 102.72221 215.68664 101.58203 215.66406 L 99.650391 215.66406 L 99.650391 211.75391 z M 90.605469 212.92188 L 92.484375 217.10352 L 88.708984 217.10352 L 90.605469 212.92188 z M 113.16016 212.92188 L 115.03906 217.10352 L 111.26367 217.10352 L 113.16016 212.92188 z "
       xlink:href="#text1538"
       style="font-style:normal;font-variant:normal;font-weight:600;font-stretch:normal;font-size:19.75555611px;line-height:1.25;font-family:'URW Gothic L';-inkscape-font-specification:'URW Gothic L Semi-Bold';letter-spacing:0px;word-spacing:0px;display:inline;fill:#000000;fill-opacity:1;stroke:none;stroke-width:0.26458332"
       id="path2334"
       d="m 90.384766,209.27539 a 0.5647988,0.5647988 0 0 0 -0.513672,0.33008 l -5.859375,12.88672 a 0.5647988,0.5647988 0 0 0 0.513672,0.79883 h 1.609375 a 0.5647988,0.5647988 0 0 0 0.513672,-0.33008 l 1.746093,-3.81836 h 4.388672 l 1.761719,3.82031 a 0.5647988,0.5647988 0 0 0 0.513672,0.32813 h 1.541015 a 0.5647988,0.5647988 0 0 0 0.515625,-0.79493 l -5.77539,-12.88671 a 0.5647988,0.5647988 0 0 0 -0.515625,-0.33399 z m 22.554684,0 a 0.5647988,0.5647988 0 0 0 -0.51367,0.33008 l -5.85742,12.88672 a 0.5647988,0.5647988 0 0 0 0.51367,0.79883 h 1.60742 a 0.5647988,0.5647988 0 0 0 0.51367,-0.33008 l 1.7461,-3.81836 h 4.39062 l 1.75977,3.82031 a 0.5647988,0.5647988 0 0 0 0.51367,0.32813 h 1.54102 a 0.5647988,0.5647988 0 0 0 0.51562,-0.79493 l -5.77344,-12.88671 a 0.5647988,0.5647988 0 0 0 -0.51562,-0.33399 z m 13.85547,0.18555 c -1.27528,0 -2.48253,0.30955 -3.58984,0.91797 -1.10979,0.60976 -2,1.46544 -2.63672,2.54297 a 0.5647988,0.5647988 0 0 0 -0.002,0.004 c -0.62425,1.07712 -0.93946,2.2689 -0.93946,3.53516 0,2.02115 0.69189,3.76464 2.04688,5.10742 1.3576,1.34538 3.13927,2.02734 5.22265,2.02734 2.46448,0 4.50197,-0.95135 5.93164,-2.79297 a 0.5647988,0.5647988 0 0 0 -0.10351,-0.79492 l -1.13281,-0.86328 a 0.5647988,0.5647988 0 0 0 -0.76953,0.082 c -1.09162,1.27007 -2.29245,1.85156 -3.72266,1.85156 -1.47602,0 -2.60362,-0.42513 -3.5,-1.27929 l -0.002,-0.002 c -6.7e-4,-6.4e-4 -0.001,-0.001 -0.002,-0.002 -0.89112,-0.87276 -1.3164,-1.89802 -1.3164,-3.19922 0,-1.31224 0.43696,-2.35385 1.35547,-3.25195 0.93406,-0.90239 1.98412,-1.33008 3.26171,-1.33008 1.57235,0 2.83071,0.61047 3.91797,1.92774 a 0.5647988,0.5647988 0 0 0 0.78125,0.0879 l 1.11719,-0.86328 a 0.5647988,0.5647988 0 0 0 0.11328,-0.77735 c -0.68185,-0.94972 -1.5507,-1.68201 -2.58008,-2.17383 l -0.004,-0.002 c -1.02143,-0.50375 -2.1791,-0.75195 -3.44727,-0.75195 z m -28.599608,0.30468 a 0.5647988,0.5647988 0 0 0 -0.564453,0.56446 v 12.39648 a 0.5647988,0.5647988 0 0 0 0.564453,0.56446 h 1.455079 a 0.5647988,0.5647988 0 0 0 0.564449,-0.56446 v -5.09179 h 0.18164 c 1.44867,0 2.45332,-0.0489 3.10743,-0.17969 a 0.5647988,0.5647988 0 0 0 0.01,-0.004 c 0.62555,-0.13762 1.17764,-0.36753 1.63672,-0.70508 a 0.5647988,0.5647988 0 0 0 0.002,-0.002 c 0.46433,-0.34494 0.82889,-0.79029 1.07032,-1.31055 0.25334,-0.52231 0.37695,-1.10806 0.37695,-1.73242 0,-0.62651 -0.12378,-1.2146 -0.37891,-1.73828 -0.24928,-0.51168 -0.60529,-0.95157 -1.05468,-1.29687 -4.7e-4,-3.7e-4 -0.001,3.6e-4 -0.002,0 -0.43186,-0.33995 -0.92022,-0.58309 -1.44726,-0.71485 -0.5888,-0.1472 -1.5226,-0.18555 -2.98242,-0.18555 z m 36.296878,0 a 0.5647988,0.5647988 0 0 0 -0.56446,0.56446 v 12.39648 a 0.5647988,0.5647988 0 0 0 0.56446,0.56446 h 1.47265 a 0.5647988,0.5647988 0 0 0 0.56446,-0.56446 v -5.3125 h 4.81445 v 5.3125 a 0.5647988,0.5647988 0 0 0 0.56445,0.56446 h 1.45703 a 0.5647988,0.5647988 0 0 0 0.56446,-0.56446 v -12.39648 a 0.5647988,0.5647988 0 0 0 -0.56446,-0.56446 h -1.45703 a 0.5647988,0.5647988 0 0 0 -0.56445,0.56446 v 4.5332 h -4.81445 v -4.5332 a 0.5647988,0.5647988 0 0 0 -0.56446,-0.56446 z m 11.60937,0 a 0.5647988,0.5647988 0 0 0 -0.56445,0.56446 v 12.39648 a 0.5647988,0.5647988 0 0 0 0.56445,0.56446 h 7.16211 a 0.5647988,0.5647988 0 0 0 0.56445,-0.56446 v -1.43945 a 0.5647988,0.5647988 0 0 0 -0.56445,-0.56445 h -5.14258 v -3.41016 h 5.14258 a 0.5647988,0.5647988 0 0 0 0.56445,-0.56445 v -1.42188 a 0.5647988,0.5647988 0 0 0 -0.56445,-0.56445 h -5.14258 v -2.42774 h 5.19336 a 0.5647988,0.5647988 0 0 0 0.56446,-0.56445 v -1.43945 a 0.5647988,0.5647988 0 0 0 -0.56446,-0.56446 z m -45.88672,2.55274 h 1.46875 c 0.88448,0 1.48737,0.16149 1.81641,0.38476 0.32904,0.22328 0.46289,0.47556 0.46289,0.98047 0,0.4389 -0.13111,0.73471 -0.44531,1.02344 a 0.5647988,0.5647988 0 0 0 -0.006,0.006 c -0.21092,0.1992 -0.84216,0.40802 -1.91797,0.38672 a 0.5647988,0.5647988 0 0 0 -0.0117,0 h -1.36719 z m -9.613278,1.97656 1.009766,2.24414 h -2.027344 z m 22.554688,0 1.00977,2.24414 h -2.02735 z"
       transform="translate(0,-177.29167)"
       inkscape:href="#text1538" />
    <path
       transform="translate(-0.05956431,-177.29167)"
       d="m 90.521484,210.05078 -5.666015,12.46484 h 1.142578 l 1.839844,-4.02539 a 0.21165461,0.21165461 0 0 1 0.193359,-0.12304 h 5.113281 a 0.21165461,0.21165461 0 0 1 0.191407,0.12304 l 1.857421,4.02539 h 1.080079 L 90.6875,210.05078 Z m 22.554686,0 -5.66406,12.46484 h 1.14062 l 1.83985,-4.02539 a 0.21165461,0.21165461 0 0 1 0.19336,-0.12304 h 5.11523 a 0.21165461,0.21165461 0 0 1 0.19141,0.12304 l 1.85547,4.02539 h 1.08007 l -5.58398,-12.46484 z m 13.71875,0.18555 c -1.15162,0 -2.21949,0.27429 -3.2168,0.82226 -0.99637,0.54746 -1.7734,1.29592 -2.34179,2.25782 -0.55668,0.96143 -0.83399,2.00594 -0.83399,3.14453 0,1.84982 0.60349,3.35271 1.81836,4.55664 1.21389,1.20295 2.75617,1.80273 4.67578,1.80273 2.19336,0 3.88906,-0.78531 5.16993,-2.33789 l -0.80079,-0.60937 c -1.17718,1.29849 -2.5767,1.98047 -4.16601,1.98047 -1.63427,0 -2.99595,-0.49995 -4.04102,-1.49805 a 0.21165461,0.21165461 0 0 1 -0.002,-0.002 c -1.03069,-1.00727 -1.55273,-2.27523 -1.55273,-3.75782 0,-1.4947 0.53535,-2.77748 1.58789,-3.80664 a 0.21165461,0.21165461 0 0 1 0.002,-0.002 c 1.06203,-1.02701 2.34195,-1.54883 3.80273,-1.54883 1.71741,0 3.18719,0.70847 4.3711,2.0625 l 0.78906,-0.60937 c -0.5903,-0.76967 -1.29731,-1.37214 -2.15234,-1.7793 a 0.21165461,0.21165461 0 0 1 -0.002,-0.002 c -0.90496,-0.44704 -1.93821,-0.67383 -3.10742,-0.67383 z m -28.38867,0.30469 v 11.9746 h 1.033203 v -5.44531 a 0.21165461,0.21165461 0 0 1 0.210938,-0.21093 h 0.746089 c 1.42566,0 2.41965,-0.0602 2.95118,-0.16602 0.54087,-0.119 0.98638,-0.31127 1.34179,-0.57227 0.36845,-0.27371 0.64315,-0.60834 0.83203,-1.01757 a 0.21165461,0.21165461 0 0 1 0.002,-0.004 c 0.19926,-0.40901 0.30078,-0.87277 0.30078,-1.39844 0,-0.52566 -0.10152,-0.98944 -0.30078,-1.39844 -0.20099,-0.41256 -0.47787,-0.75157 -0.83594,-1.02539 a 0.21165461,0.21165461 0 0 1 -0.002,-0.002 c -0.35018,-0.2759 -0.73321,-0.46455 -1.15625,-0.57031 -0.40014,-0.10004 -1.35552,-0.16406 -2.79492,-0.16406 z m 36.29687,0 v 11.9746 h 1.05079 v -5.66601 a 0.21165461,0.21165461 0 0 1 0.21093,-0.21094 h 5.94336 a 0.21165461,0.21165461 0 0 1 0.21094,0.21094 v 5.66601 h 1.03516 v -11.9746 h -1.03516 v 4.88671 a 0.21165461,0.21165461 0 0 1 -0.21094,0.21094 h -5.94336 a 0.21165461,0.21165461 0 0 1 -0.21093,-0.21094 v -4.88671 z m 11.60938,0 v 11.9746 h 6.74023 v -1.01757 h -5.49609 a 0.21165461,0.21165461 0 0 1 -0.21094,-0.21094 v -4.53906 a 0.21165461,0.21165461 0 0 1 0.21094,-0.21094 h 5.49609 v -1 h -5.49609 a 0.21165461,0.21165461 0 0 1 -0.21094,-0.21094 v -3.55664 a 0.21165461,0.21165461 0 0 1 0.21094,-0.21094 h 5.54688 v -1.01757 z m -46.677734,1.00195 a 0.21165461,0.21165461 0 0 1 0.01563,0 h 2.033199 c 0.97218,0 1.72381,0.15919 2.25196,0.51758 0.52814,0.35838 0.80273,0.92766 0.80273,1.62304 0,0.62606 -0.23825,1.17453 -0.69336,1.59375 -3.8e-4,3.6e-4 -0.002,-3.5e-4 -0.002,0 -4.1e-4,3.8e-4 4.1e-4,0.002 0,0.002 -0.47993,0.45165 -1.30208,0.61873 -2.46485,0.5957 h -1.927729 a 0.21165461,0.21165461 0 0 1 -0.210938,-0.21094 v -3.91015 a 0.21165461,0.21165461 0 0 1 0.195313,-0.21094 z m -9.039063,1.16797 a 0.21165461,0.21165461 0 0 1 0.203125,0.125 l 1.878906,4.18164 a 0.21165461,0.21165461 0 0 1 -0.193359,0.29687 h -3.775391 a 0.21165461,0.21165461 0 0 1 -0.193359,-0.29883 l 1.896484,-4.18164 a 0.21165461,0.21165461 0 0 1 0.183594,-0.12304 z m 22.554687,0 a 0.21165461,0.21165461 0 0 1 0.20313,0.125 l 1.8789,4.18164 a 0.21165461,0.21165461 0 0 1 -0.19336,0.29687 h -3.77539 a 0.21165461,0.21165461 0 0 1 -0.19336,-0.29883 l 1.89649,-4.18164 a 0.21165461,0.21165461 0 0 1 0.18359,-0.12304 z"
       inkscape:href="#text1538"
       id="path4085"
       style="font-style:normal;font-variant:normal;font-weight:600;font-stretch:normal;font-size:19.75555611px;line-height:1.25;font-family:'URW Gothic L';-inkscape-font-specification:'URW Gothic L Semi-Bold';letter-spacing:0px;word-spacing:0px;display:inline;fill:#ffe680;fill-opacity:1;stroke:none;stroke-width:0.26458332"
       xlink:href="#text1538"
       inkscape:original="M 90.384766 209.83984 L 84.525391 222.72656 L 86.134766 222.72656 L 88.03125 218.57812 L 93.144531 218.57812 L 95.058594 222.72656 L 96.599609 222.72656 L 90.824219 209.83984 L 90.384766 209.83984 z M 112.93945 209.83984 L 107.08203 222.72656 L 108.68945 222.72656 L 110.58594 218.57812 L 115.70117 218.57812 L 117.61328 222.72656 L 119.1543 222.72656 L 113.38086 209.83984 L 112.93945 209.83984 z M 126.79492 210.02539 C 125.60959 210.02539 124.50385 210.3086 123.47656 210.87305 C 122.44927 211.43749 121.64171 212.21556 121.05469 213.20898 C 120.47895 214.20241 120.19141 215.28689 120.19141 216.46094 C 120.19141 218.35747 120.8192 219.92619 122.07227 221.16797 C 123.32533 222.40975 124.93222 223.03125 126.89648 223.03125 C 129.222 223.03125 131.05072 222.17294 132.38281 220.45703 L 131.25 219.59375 C 130.07596 220.95971 128.69134 221.64258 127.09961 221.64258 C 125.50788 221.64258 124.20979 221.16268 123.20508 220.20312 C 122.21166 219.23228 121.71484 218.02939 121.71484 216.5957 C 121.71484 215.15073 122.22423 213.93288 123.24023 212.93945 C 124.26752 211.94603 125.48537 211.44922 126.89648 211.44922 C 128.62368 211.44922 130.07596 212.15963 131.25 213.58203 L 132.36719 212.71875 C 131.73501 211.83822 130.94436 211.17226 129.99609 210.7207 C 129.05912 210.25786 127.99154 210.02539 126.79492 210.02539 z M 98.195312 210.33008 L 98.195312 222.72656 L 99.650391 222.72656 L 99.650391 217.07031 L 100.39648 217.07031 C 101.83017 217.07031 102.82813 217.01328 103.39258 216.90039 C 103.95702 216.77621 104.43258 216.57324 104.81641 216.29102 C 105.21152 215.9975 105.50969 215.63167 105.71289 215.19141 C 105.92738 214.75114 106.03516 214.25433 106.03516 213.70117 C 106.03516 213.14802 105.92738 212.6512 105.71289 212.21094 C 105.4984 211.77067 105.20023 211.40289 104.81641 211.10938 C 104.44387 210.81586 104.03163 210.61289 103.58008 210.5 C 103.12852 210.38711 102.17935 210.33008 100.73438 210.33008 L 98.195312 210.33008 z M 134.49219 210.33008 L 134.49219 222.72656 L 135.96484 222.72656 L 135.96484 216.84961 L 141.9082 216.84961 L 141.9082 222.72656 L 143.36523 222.72656 L 143.36523 210.33008 L 141.9082 210.33008 L 141.9082 215.42773 L 135.96484 215.42773 L 135.96484 210.33008 L 134.49219 210.33008 z M 146.10156 210.33008 L 146.10156 222.72656 L 153.26367 222.72656 L 153.26367 221.28711 L 147.55664 221.28711 L 147.55664 216.74805 L 153.26367 216.74805 L 153.26367 215.32617 L 147.55664 215.32617 L 147.55664 211.76953 L 153.31445 211.76953 L 153.31445 210.33008 L 146.10156 210.33008 z M 99.650391 211.75391 L 101.68359 211.75391 C 103.58013 211.75391 104.52734 212.39666 104.52734 213.68359 C 104.52734 214.25933 104.31808 214.73922 103.90039 215.12305 C 103.49399 215.50687 102.72221 215.68664 101.58203 215.66406 L 99.650391 215.66406 L 99.650391 211.75391 z M 90.605469 212.92188 L 92.484375 217.10352 L 88.708984 217.10352 L 90.605469 212.92188 z M 113.16016 212.92188 L 115.03906 217.10352 L 111.26367 217.10352 L 113.16016 212.92188 z "
       inkscape:radius="-0.21163344"
       sodipodi:type="inkscape:offset" />
  </g>
</svg>
