<?xml version="1.0" encoding="UTF-8" standalone="no"?>
<!-- Created with Inkscape (http://www.inkscape.org/) -->

<svg
   xmlns:dc="http://purl.org/dc/elements/1.1/"
   xmlns:cc="http://creativecommons.org/ns#"
   xmlns:rdf="http://www.w3.org/1999/02/22-rdf-syntax-ns#"
   xmlns:svg="http://www.w3.org/2000/svg"
   xmlns="http://www.w3.org/2000/svg"
   xmlns:xlink="http://www.w3.org/1999/xlink"
   xmlns:sodipodi="http://sodipodi.sourceforge.net/DTD/sodipodi-0.dtd"
   xmlns:inkscape="http://www.inkscape.org/namespaces/inkscape"
   width="318mm"
   height="125mm"
   viewBox="0 0 318 125"
   version="1.1"
   id="svg8"
   inkscape:version="0.92.4 (5da689c313, 2019-01-14)"
   sodipodi:docname="logo-alt5-v5.svg">
  <defs
     id="defs2" />
  <sodipodi:namedview
     id="base"
     pagecolor="#ffffff"
     bordercolor="#666666"
     borderopacity="1.0"
     inkscape:pageopacity="0.0"
     inkscape:pageshadow="2"
     inkscape:zoom="2.8284271"
     inkscape:cx="393.04475"
     inkscape:cy="322.97116"
     inkscape:document-units="mm"
     inkscape:current-layer="layer1"
     showgrid="false"
     inkscape:window-width="2560"
     inkscape:window-height="1395"
     inkscape:window-x="13"
     inkscape:window-y="0"
     inkscape:window-maximized="0" />
  <metadata
     id="metadata5">
    <rdf:RDF>
      <cc:Work
         rdf:about="">
        <dc:format>image/svg+xml</dc:format>
        <dc:type
           rdf:resource="http://purl.org/dc/dcmitype/StillImage" />
        <dc:title />
      </cc:Work>
    </rdf:RDF>
  </metadata>
  <g
     inkscape:label="Layer 1"
     inkscape:groupmode="layer"
     id="layer1"
     transform="translate(0,-172)">
    <rect
       style="opacity:1;fill:#4d4d4d;fill-opacity:1;fill-rule:nonzero;stroke:none;stroke-width:0.31299999;stroke-miterlimit:4;stroke-dasharray:none;stroke-opacity:1"
       id="rect2298"
       width="315.64792"
       height="120.91458"
       x="1.5875"
       y="174.7625" />
    <g
       id="g919"
       transform="translate(-0.52916667)">
      <path
         transform="translate(-6.4726667e-4,-7.8013333e-4)"
         d="m 290.60742,217.97461 a 0.52922081,0.52922081 0 0 0 -0.5293,0.5293 v 0.88867 a 0.52922081,0.52922081 0 0 0 0.5293,0.5293 h 1.17578 v 6.33007 a 0.52922081,0.52922081 0 0 0 0.5293,0.5293 h 0.91992 a 0.52922081,0.52922081 0 0 0 0.5293,-0.5293 v -6.33007 h 1.16406 a 0.52922081,0.52922081 0 0 0 0.5293,-0.5293 v -0.88867 a 0.52922081,0.52922081 0 0 0 -0.5293,-0.5293 z m 6.00977,0 a 0.52922081,0.52922081 0 0 0 -0.52344,0.45508 l -1.10156,7.74804 a 0.52922081,0.52922081 0 0 0 0.52343,0.60352 h 0.87891 a 0.52922081,0.52922081 0 0 0 0.52344,-0.45898 l 0.48828,-3.60352 1.86914,3.76758 a 0.52922081,0.52922081 0 0 0 0.47461,0.29492 h 0.27539 A 0.52922081,0.52922081 0 0 0 300.5,226.48633 l 1.83789,-3.72266 0.48633,3.56055 a 0.52922081,0.52922081 0 0 0 0.52344,0.45703 h 0.90039 a 0.52922081,0.52922081 0 0 0 0.52343,-0.60352 l -1.11132,-7.74804 a 0.52922081,0.52922081 0 0 0 -0.52344,-0.45508 h -0.22266 a 0.52922081,0.52922081 0 0 0 -0.47461,0.29492 l -2.55468,5.18945 -2.57032,-5.18945 a 0.52922081,0.52922081 0 0 0 -0.47461,-0.29492 z"
         inkscape:href="#text939"
         id="path2359"
         style="font-style:normal;font-variant:normal;font-weight:normal;font-stretch:normal;font-size:10.58333302px;line-height:1.25;font-family:Silom;-inkscape-font-specification:Silom;letter-spacing:0px;word-spacing:0px;fill:#000000;fill-opacity:1;stroke:none;stroke-width:0.26458332"
         xlink:href="#text939"
         inkscape:original="M 290.60742 218.50391 L 290.60742 219.39258 L 292.3125 219.39258 L 292.3125 226.25195 L 293.23242 226.25195 L 293.23242 219.39258 L 294.92578 219.39258 L 294.92578 218.50391 L 290.60742 218.50391 z M 296.61719 218.50391 L 295.51562 226.25195 L 296.39453 226.25195 L 297.11328 220.93945 L 299.75 226.25195 L 300.02539 226.25195 L 302.62891 220.98047 L 303.34766 226.25195 L 304.24805 226.25195 L 303.13672 218.50391 L 302.91406 218.50391 L 299.88672 224.6543 L 296.83984 218.50391 L 296.61719 218.50391 z "
         inkscape:radius="0.52916789"
         sodipodi:type="inkscape:offset" />
      <path
         transform="translate(-3.4389364,-3.7033871)"
         d="m 294.04688,222.20703 v 0.88867 h 1.70507 v 6.85938 h 0.91993 v -6.85938 h 1.69335 v -0.88867 z m 6.00976,0 -1.10156,7.74805 h 0.8789 l 0.71875,-5.3125 2.63672,5.3125 h 0.27539 l 2.60352,-5.27149 0.71875,5.27149 h 0.90039 l -1.11133,-7.74805 h -0.22265 l -3.02735,6.15039 -3.04687,-6.15039 z"
         id="text939"
         style="font-style:normal;font-variant:normal;font-weight:normal;font-stretch:normal;font-size:10.58333302px;line-height:1.25;font-family:Silom;-inkscape-font-specification:Silom;letter-spacing:0px;word-spacing:0px;fill:#ffffff;fill-opacity:1;stroke:none;stroke-width:0.26458332"
         inkscape:original="M 294.04688 222.20703 L 294.04688 223.0957 L 295.75195 223.0957 L 295.75195 229.95508 L 296.67188 229.95508 L 296.67188 223.0957 L 298.36523 223.0957 L 298.36523 222.20703 L 294.04688 222.20703 z M 300.05664 222.20703 L 298.95508 229.95508 L 299.83398 229.95508 L 300.55273 224.64258 L 303.18945 229.95508 L 303.46484 229.95508 L 306.06836 224.68359 L 306.78711 229.95508 L 307.6875 229.95508 L 306.57617 222.20703 L 306.35352 222.20703 L 303.32617 228.35742 L 300.2793 222.20703 L 300.05664 222.20703 z "
         inkscape:radius="0"
         sodipodi:type="inkscape:offset" />
    </g>
    <g
       id="g2277"
       transform="rotate(28.164126,50.958532,228.35087)">
      <path
         style="opacity:1;fill:#aaccff;fill-opacity:1;fill-rule:nonzero;stroke:none;stroke-width:0.31299999;stroke-miterlimit:4;stroke-dasharray:none;stroke-opacity:1"
         inkscape:transform-center-x="-0.058269836"
         inkscape:transform-center-y="-5.6594751"
         d="m 72.769296,278.65947 -11.010793,6.74091 -11.010792,-0.006 -11.010792,-0.006 -11.010793,-6.75414 -13.399267,-19.40016 35.761967,-87.93272 35.50138,87.97544 z"
         id="path1365"
         inkscape:connector-curvature="0"
         sodipodi:nodetypes="ccccccccc" />
      <path
         sodipodi:nodetypes="ccccccc"
         inkscape:connector-curvature="0"
         id="path1367"
         d="m 72.769296,278.65947 -11.010793,6.74091 -11.010792,-0.006 -11.010792,-0.006 -11.010793,-6.75414 44.04317,0.0252 z"
         inkscape:transform-center-y="-5.6594751"
         inkscape:transform-center-x="-0.058269836"
         style="opacity:1;fill:#2a7fff;fill-opacity:1;fill-rule:nonzero;stroke:none;stroke-width:0.31299999;stroke-miterlimit:4;stroke-dasharray:none;stroke-opacity:1" />
      <path
         sodipodi:nodetypes="ccccccccc"
         inkscape:connector-curvature="0"
         id="path1308"
         d="m 71.480906,276.02902 -10.362104,6.34377 -10.362104,-0.006 -10.362103,-0.006 -10.362104,-6.35622 -12.609864,-18.25722 33.65509,-82.75226 33.409855,82.79246 z"
         inkscape:transform-center-y="-5.3264051"
         inkscape:transform-center-x="-0.054836836"
         style="opacity:1;fill:#aaccff;fill-opacity:1;fill-rule:nonzero;stroke:none;stroke-width:0.68314427;stroke-miterlimit:4;stroke-dasharray:none;stroke-opacity:1" />
      <path
         style="opacity:1;fill:#5599ff;fill-opacity:1;fill-rule:nonzero;stroke:none;stroke-width:0.68314427;stroke-miterlimit:4;stroke-dasharray:none;stroke-opacity:1"
         inkscape:transform-center-x="-0.054836836"
         inkscape:transform-center-y="-5.3264051"
         d="m 71.480906,276.02902 -10.362104,-5.82706 -10.362104,-0.006 -10.362103,-0.006 -10.362104,5.81461 -12.609864,-18.25722 33.65509,-82.75226 33.409855,82.79246 z"
         id="path1313"
         inkscape:connector-curvature="0"
         sodipodi:nodetypes="ccccccccc" />
      <path
         sodipodi:nodetypes="ccccccc"
         inkscape:connector-curvature="0"
         id="path1315"
         d="m 61.118802,247.44779 -10.362104,-0.006 -10.362103,-0.006 -22.971968,10.31156 33.65509,-82.75226 33.409855,82.79246 z"
         inkscape:transform-center-y="-5.3264051"
         inkscape:transform-center-x="-0.054836836"
         style="opacity:1;fill:#2a7fff;fill-opacity:1;fill-rule:nonzero;stroke:none;stroke-width:0.68314427;stroke-miterlimit:4;stroke-dasharray:none;stroke-opacity:1" />
      <path
         sodipodi:nodetypes="cccccc"
         inkscape:connector-curvature="0"
         id="path1319"
         d="m 61.118802,270.20196 -20.724207,-0.012 v -22.75417 l 10.683122,-72.4407 10.041085,72.4527 z"
         inkscape:transform-center-y="-5.3264051"
         inkscape:transform-center-x="-0.054836836"
         style="opacity:1;fill:#80b3ff;fill-opacity:1;fill-rule:nonzero;stroke:none;stroke-width:0.68314427;stroke-miterlimit:4;stroke-dasharray:none;stroke-opacity:1" />
      <path
         id="path1321"
         transform="matrix(0.26458333,0,0,0.26458333,0,156)"
         d="m 193.04883,71.792969 -40.37695,273.791011 39.16406,0.0234 39.16406,0.0215 z"
         style="opacity:1;fill:#5599ff;fill-opacity:1;fill-rule:nonzero;stroke:none;stroke-width:2.58196259;stroke-miterlimit:4;stroke-dasharray:none;stroke-opacity:1"
         inkscape:connector-curvature="0" />
      <path
         style="opacity:1;fill:#d5e5ff;fill-opacity:1;fill-rule:nonzero;stroke:none;stroke-width:0.68314427;stroke-miterlimit:4;stroke-dasharray:none;stroke-opacity:1"
         inkscape:transform-center-x="-0.054836836"
         inkscape:transform-center-y="-5.3264051"
         d="m 61.118802,282.37279 -20.724207,-0.012 10.683122,-5.23653 z"
         id="path1345"
         inkscape:connector-curvature="0"
         sodipodi:nodetypes="cccc" />
      <path
         sodipodi:nodetypes="ccccccccccc"
         inkscape:connector-curvature="0"
         id="path1351"
         d="m 30.032491,276.00457 8.601319,-7.16142 1.760624,-21.40739 1.232795,20.93967 18.428234,-0.28063 1.063339,-20.64701 1.836535,20.8341 8.525567,7.74713 -10.362102,-5.82706 -20.724207,-0.012 z"
         style="fill:#ffffff;fill-opacity:1;stroke:none;stroke-width:0.26458332px;stroke-linecap:butt;stroke-linejoin:miter;stroke-opacity:1" />
      <path
         sodipodi:nodetypes="ccccccccccc"
         inkscape:connector-curvature="0"
         id="path1353"
         d="m 19.803877,256.55672 19.883622,-11.81193 c 0,0 10.993128,-67.23603 11.390003,-69.74957 l -8.744169,69.88187 17.197916,-0.52918 -8.056872,-67.10373 10.967289,67.89749 c 0,0 19.664656,11.19067 22.045906,12.64588 l -23.368823,-10.3399 -20.724315,-0.0119 z"
         style="fill:#ffffff;stroke:none;stroke-width:0.26458332px;stroke-linecap:butt;stroke-linejoin:miter;stroke-opacity:1" />
      <path
         sodipodi:nodetypes="cccc"
         inkscape:connector-curvature="0"
         id="path1355"
         d="m 19.976041,254.93125 28.575,-72.36354 -22.886458,68.52708 z"
         style="fill:#5599ff;fill-opacity:1;stroke:none;stroke-width:0.26458332px;stroke-linecap:butt;stroke-linejoin:miter;stroke-opacity:1" />
      <path
         sodipodi:nodetypes="cccc"
         inkscape:connector-curvature="0"
         id="path1357"
         d="m 71.569791,273.58437 10.451041,-15.21354 -5.291666,-2.91041 z"
         style="fill:#80b3ff;fill-opacity:1;stroke:none;stroke-width:0.26458332px;stroke-linecap:butt;stroke-linejoin:miter;stroke-opacity:1" />
      <ellipse
         ry="3.4395833"
         rx="3.6380208"
         cy="229.79584"
         cx="37.636978"
         id="path1359"
         style="opacity:1;fill:#80b3ff;fill-opacity:1;fill-rule:nonzero;stroke:none;stroke-width:0.75499988;stroke-miterlimit:4;stroke-dasharray:none;stroke-opacity:1" />
      <ellipse
         style="opacity:1;fill:#80b3ff;fill-opacity:1;fill-rule:nonzero;stroke:none;stroke-width:0.46588403;stroke-miterlimit:4;stroke-dasharray:none;stroke-opacity:1"
         id="ellipse1361"
         cx="34.991146"
         cy="235.94742"
         rx="2.1828127"
         ry="2.1828125" />
      <path
         transform="matrix(0.31567098,0.2059889,-0.2059889,0.31567098,69.118887,182.12209)"
         sodipodi:type="star"
         style="opacity:1;fill:#ffffff;fill-opacity:1;fill-rule:nonzero;stroke:none;stroke-width:0.31299999;stroke-miterlimit:4;stroke-dasharray:none;stroke-opacity:1"
         id="path2189"
         sodipodi:sides="4"
         sodipodi:cx="19.314583"
         sodipodi:cy="199.89792"
         sodipodi:r1="20.652758"
         sodipodi:r2="2.6067085"
         sodipodi:arg1="-0.03844259"
         sodipodi:arg2="0.74695557"
         inkscape:flatsided="false"
         inkscape:rounded="0"
         inkscape:randomized="0"
         d="m 39.952082,199.10417 -18.724799,2.56477 -1.11895,18.86648 -2.564769,-18.7248 -18.86648,-1.11895 18.724799,-2.56477 1.11895,-18.86648 2.564769,18.7248 z" />
      <path
         d="m 39.952082,199.10417 -18.724799,2.56477 -1.11895,18.86648 -2.564769,-18.7248 -18.86648,-1.11895 18.724799,-2.56477 1.11895,-18.86648 2.564769,18.7248 z"
         inkscape:randomized="0"
         inkscape:rounded="0"
         inkscape:flatsided="false"
         sodipodi:arg2="0.74695557"
         sodipodi:arg1="-0.03844259"
         sodipodi:r2="2.6067085"
         sodipodi:r1="20.652758"
         sodipodi:cy="199.89792"
         sodipodi:cx="19.314583"
         sodipodi:sides="4"
         id="path2193"
         style="opacity:1;fill:#ffffff;fill-opacity:1;fill-rule:nonzero;stroke:none;stroke-width:0.31299999;stroke-miterlimit:4;stroke-dasharray:none;stroke-opacity:1"
         sodipodi:type="star"
         transform="matrix(0.06411971,0.30496028,-0.30496028,0.06411971,93.761668,230.49508)" />
      <path
         transform="matrix(0.18824279,0.22026662,-0.22026662,0.18824279,94.807114,154.26999)"
         d="m 39.952082,199.10417 -18.724799,2.56477 -1.11895,18.86648 -2.564769,-18.7248 -18.86648,-1.11895 18.724799,-2.56477 1.11895,-18.86648 2.564769,18.7248 z"
         inkscape:randomized="0"
         inkscape:rounded="0"
         inkscape:flatsided="false"
         sodipodi:arg2="0.74695557"
         sodipodi:arg1="-0.03844259"
         sodipodi:r2="2.6067085"
         sodipodi:r1="20.652758"
         sodipodi:cy="199.89792"
         sodipodi:cx="19.314583"
         sodipodi:sides="4"
         id="path2219"
         style="opacity:1;fill:#ffffff;fill-opacity:1;fill-rule:nonzero;stroke:none;stroke-width:0.31299999;stroke-miterlimit:4;stroke-dasharray:none;stroke-opacity:1"
         sodipodi:type="star" />
    </g>
    <g
       id="g923"
       transform="translate(-0.52916667)">
      <path
         inkscape:href="#text1538"
         transform="translate(-0.66145833)"
         d="m 91.046875,203.98438 a 0.5647988,0.5647988 0 0 0 -0.513672,0.33007 l -5.859375,12.88477 a 0.5647988,0.5647988 0 0 0 0.513672,0.79883 h 1.607422 a 0.5647988,0.5647988 0 0 0 0.513672,-0.33008 l 1.746094,-3.81836 h 4.390624 l 1.759766,3.82031 a 0.5647988,0.5647988 0 0 0 0.513672,0.32813 h 1.541016 a 0.5647988,0.5647988 0 0 0 0.515625,-0.79493 l -5.773438,-12.88476 a 0.5647988,0.5647988 0 0 0 -0.515625,-0.33398 z m 22.554685,0 a 0.5647988,0.5647988 0 0 0 -0.51367,0.33007 l -5.85937,12.88477 a 0.5647988,0.5647988 0 0 0 0.51367,0.79883 h 1.60937 a 0.5647988,0.5647988 0 0 0 0.51367,-0.33008 l 1.7461,-3.81836 H 116 l 1.76172,3.82031 a 0.5647988,0.5647988 0 0 0 0.51367,0.32813 h 1.54102 a 0.5647988,0.5647988 0 0 0 0.51562,-0.79493 l -5.77344,-12.88476 a 0.5647988,0.5647988 0 0 0 -0.51562,-0.33398 z m 13.85547,0.18554 c -1.27528,0 -2.48253,0.30956 -3.58984,0.91797 -1.10978,0.60978 -2,1.46544 -2.63672,2.54297 a 0.5647988,0.5647988 0 0 0 -0.002,0.004 c -0.62425,1.07711 -0.93946,2.2689 -0.93946,3.53515 0,2.02078 0.68973,3.76444 2.04492,5.10742 1.35803,1.3458 3.1416,2.02539 5.22461,2.02539 2.46415,0 4.50184,-0.94923 5.93164,-2.79101 a 0.5647988,0.5647988 0 0 0 -0.10351,-0.79492 l -1.13477,-0.86524 a 0.5647988,0.5647988 0 0 0 -0.76953,0.082 c -1.092,1.27051 -2.29095,1.85352 -3.7207,1.85352 -1.47602,0 -2.60362,-0.42515 -3.5,-1.2793 l -0.002,-0.002 c -6.7e-4,-6.4e-4 -0.001,-0.001 -0.002,-0.002 -0.89113,-0.87278 -1.3164,-1.89802 -1.3164,-3.19922 0,-1.31277 0.43553,-2.35632 1.35351,-3.25391 0.93381,-0.90214 1.98607,-1.33008 3.26367,-1.33008 1.57192,0 2.82839,0.61199 3.91602,1.92969 a 0.5647988,0.5647988 0 0 0 0.78125,0.0879 l 1.11719,-0.86328 a 0.5647988,0.5647988 0 0 0 0.11328,-0.77734 c -0.6813,-0.94896 -1.54793,-1.68356 -2.57813,-2.17578 l -0.004,-0.002 c -1.022,-0.50402 -2.17971,-0.75 -3.44727,-0.75 z m -28.601561,0.30469 a 0.5647988,0.5647988 0 0 0 -0.564453,0.56445 v 12.39453 a 0.5647988,0.5647988 0 0 0 0.564453,0.56446 h 1.457031 a 0.5647988,0.5647988 0 0 0 0.56445,-0.56446 v -5.08984 h 0.17969 c 1.44867,0 2.45504,-0.0488 3.10938,-0.17969 a 0.5647988,0.5647988 0 0 0 0.01,-0.004 c 0.62582,-0.13769 1.17644,-0.36807 1.63477,-0.70508 a 0.5647988,0.5647988 0 0 0 0.002,-0.002 c 0.46458,-0.34511 0.83052,-0.79156 1.07227,-1.3125 0.25334,-0.52231 0.37695,-1.10806 0.37695,-1.73242 0,-0.62651 -0.12378,-1.21459 -0.37891,-1.73828 -0.25015,-0.51348 -0.60889,-0.95092 -1.05664,-1.29492 -4.7e-4,-3.7e-4 -0.001,3.7e-4 -0.002,0 -0.43185,-0.33994 -0.92021,-0.58308 -1.44727,-0.71484 -0.58839,-0.14709 -1.52062,-0.18555 -2.98047,-0.18555 z m 36.298831,0 a 0.5647988,0.5647988 0 0 0 -0.56446,0.56445 v 12.39453 a 0.5647988,0.5647988 0 0 0 0.56446,0.56446 h 1.47265 a 0.5647988,0.5647988 0 0 0 0.56446,-0.56446 v -5.31054 h 4.81445 v 5.31054 a 0.5647988,0.5647988 0 0 0 0.56445,0.56446 h 1.45703 a 0.5647988,0.5647988 0 0 0 0.56446,-0.56446 v -12.39453 a 0.5647988,0.5647988 0 0 0 -0.56446,-0.56445 h -1.45703 a 0.5647988,0.5647988 0 0 0 -0.56445,0.56445 v 4.53321 h -4.81445 v -4.53321 a 0.5647988,0.5647988 0 0 0 -0.56446,-0.56445 z m 11.60937,0 a 0.5647988,0.5647988 0 0 0 -0.56445,0.56445 v 12.39453 a 0.5647988,0.5647988 0 0 0 0.56445,0.56446 h 7.16211 a 0.5647988,0.5647988 0 0 0 0.56445,-0.56446 v -1.43945 a 0.5647988,0.5647988 0 0 0 -0.56445,-0.56445 h -5.14258 v -3.40821 h 5.14258 a 0.5647988,0.5647988 0 0 0 0.56445,-0.56445 v -1.42187 a 0.5647988,0.5647988 0 0 0 -0.56445,-0.56446 h -5.14258 v -2.42773 h 5.19336 a 0.5647988,0.5647988 0 0 0 0.56446,-0.56445 v -1.43946 a 0.5647988,0.5647988 0 0 0 -0.56446,-0.56445 z m -45.88672,2.55078 h 1.4668 c 0.88427,0 1.4867,0.16288 1.81641,0.38672 0.3297,0.22384 0.46484,0.47584 0.46484,0.98047 0,0.43888 -0.13112,0.73472 -0.44531,1.02344 a 0.5647988,0.5647988 0 0 0 -0.006,0.006 c -0.21026,0.19857 -0.84412,0.40801 -1.91992,0.38671 a 0.5647988,0.5647988 0 0 0 -0.0117,0 h -1.36524 z m -9.615231,1.97656 1.009765,2.2461 h -2.027343 z m 22.556641,0.002 1.00976,2.24414 h -2.02734 z"
         id="path2334"
         style="font-style:normal;font-variant:normal;font-weight:600;font-stretch:normal;font-size:19.75555611px;line-height:1.25;font-family:'URW Gothic L';-inkscape-font-specification:'URW Gothic L Semi-Bold';letter-spacing:0px;word-spacing:0px;fill:#000000;fill-opacity:1;stroke:none;stroke-width:0.26458332"
         xlink:href="#text1538"
         inkscape:original="M 91.046875 204.54883 L 85.1875 217.43359 L 86.794922 217.43359 L 88.691406 213.28516 L 93.806641 213.28516 L 95.71875 217.43359 L 97.259766 217.43359 L 91.486328 204.54883 L 91.046875 204.54883 z M 113.60156 204.54883 L 107.74219 217.43359 L 109.35156 217.43359 L 111.24805 213.28516 L 116.36133 213.28516 L 118.27539 217.43359 L 119.81641 217.43359 L 114.04297 204.54883 L 113.60156 204.54883 z M 127.45703 204.73438 C 126.2717 204.73438 125.16596 205.01759 124.13867 205.58203 C 123.11138 206.14648 122.30382 206.92455 121.7168 207.91797 C 121.14106 208.91139 120.85352 209.99588 120.85352 211.16992 C 120.85352 213.06646 121.47936 214.63518 122.73242 215.87695 C 123.98549 217.11873 125.59433 217.73828 127.55859 217.73828 C 129.8841 217.73828 131.71283 216.88193 133.04492 215.16602 L 131.91016 214.30078 C 130.73611 215.66674 129.35345 216.35156 127.76172 216.35156 C 126.16999 216.35156 124.8719 215.87166 123.86719 214.91211 C 122.87377 213.94126 122.37695 212.73838 122.37695 211.30469 C 122.37695 209.85971 122.88439 208.63991 123.90039 207.64648 C 124.92768 206.65306 126.14748 206.15625 127.55859 206.15625 C 129.28579 206.15625 130.73611 206.86862 131.91016 208.29102 L 133.02734 207.42773 C 132.39517 206.5472 131.60647 205.87929 130.6582 205.42773 C 129.72123 204.96489 128.65365 204.73438 127.45703 204.73438 z M 98.855469 205.03906 L 98.855469 217.43359 L 100.3125 217.43359 L 100.3125 211.7793 L 101.05664 211.7793 C 102.49033 211.7793 103.49024 211.72226 104.05469 211.60938 C 104.61913 211.4852 105.09274 211.28222 105.47656 211 C 105.87167 210.70649 106.1718 210.3387 106.375 209.89844 C 106.58949 209.45817 106.69727 208.96136 106.69727 208.4082 C 106.69727 207.85505 106.58949 207.35824 106.375 206.91797 C 106.16051 206.4777 105.86038 206.11187 105.47656 205.81836 C 105.10403 205.52485 104.69179 205.32187 104.24023 205.20898 C 103.78868 205.0961 102.84146 205.03906 101.39648 205.03906 L 98.855469 205.03906 z M 135.1543 205.03906 L 135.1543 217.43359 L 136.62695 217.43359 L 136.62695 211.55859 L 142.57031 211.55859 L 142.57031 217.43359 L 144.02734 217.43359 L 144.02734 205.03906 L 142.57031 205.03906 L 142.57031 210.13672 L 136.62695 210.13672 L 136.62695 205.03906 L 135.1543 205.03906 z M 146.76367 205.03906 L 146.76367 217.43359 L 153.92578 217.43359 L 153.92578 215.99414 L 148.21875 215.99414 L 148.21875 211.45703 L 153.92578 211.45703 L 153.92578 210.03516 L 148.21875 210.03516 L 148.21875 206.47852 L 153.97656 206.47852 L 153.97656 205.03906 L 146.76367 205.03906 z M 100.3125 206.46094 L 102.34375 206.46094 C 104.24028 206.46094 105.18945 207.10564 105.18945 208.39258 C 105.18945 208.96831 104.98019 209.44821 104.5625 209.83203 C 104.1561 210.21585 103.38237 210.39562 102.24219 210.37305 L 100.3125 210.37305 L 100.3125 206.46094 z M 91.265625 207.63086 L 93.146484 211.8125 L 89.369141 211.8125 L 91.265625 207.63086 z M 113.82227 207.63086 L 115.70117 211.8125 L 111.92578 211.8125 L 113.82227 207.63086 z "
         inkscape:radius="0.56474233"
         sodipodi:type="inkscape:offset" />
      <path
         sodipodi:type="inkscape:offset"
         inkscape:radius="-0.06842377"
         inkscape:original="M 91.046875 204.54883 L 85.1875 217.43359 L 86.794922 217.43359 L 88.691406 213.28516 L 93.806641 213.28516 L 95.71875 217.43359 L 97.259766 217.43359 L 91.486328 204.54883 L 91.046875 204.54883 z M 113.60156 204.54883 L 107.74219 217.43359 L 109.35156 217.43359 L 111.24805 213.28516 L 116.36133 213.28516 L 118.27539 217.43359 L 119.81641 217.43359 L 114.04297 204.54883 L 113.60156 204.54883 z M 127.45703 204.73438 C 126.2717 204.73438 125.16596 205.01759 124.13867 205.58203 C 123.11138 206.14648 122.30382 206.92455 121.7168 207.91797 C 121.14106 208.91139 120.85352 209.99588 120.85352 211.16992 C 120.85352 213.06646 121.47936 214.63518 122.73242 215.87695 C 123.98549 217.11873 125.59433 217.73828 127.55859 217.73828 C 129.8841 217.73828 131.71283 216.88193 133.04492 215.16602 L 131.91016 214.30078 C 130.73611 215.66674 129.35345 216.35156 127.76172 216.35156 C 126.16999 216.35156 124.8719 215.87166 123.86719 214.91211 C 122.87377 213.94126 122.37695 212.73838 122.37695 211.30469 C 122.37695 209.85971 122.88439 208.63991 123.90039 207.64648 C 124.92768 206.65306 126.14748 206.15625 127.55859 206.15625 C 129.28579 206.15625 130.73611 206.86862 131.91016 208.29102 L 133.02734 207.42773 C 132.39517 206.5472 131.60647 205.87929 130.6582 205.42773 C 129.72123 204.96489 128.65365 204.73438 127.45703 204.73438 z M 98.855469 205.03906 L 98.855469 217.43359 L 100.3125 217.43359 L 100.3125 211.7793 L 101.05664 211.7793 C 102.49033 211.7793 103.49024 211.72226 104.05469 211.60938 C 104.61913 211.4852 105.09274 211.28222 105.47656 211 C 105.87167 210.70649 106.1718 210.3387 106.375 209.89844 C 106.58949 209.45817 106.69727 208.96136 106.69727 208.4082 C 106.69727 207.85505 106.58949 207.35824 106.375 206.91797 C 106.16051 206.4777 105.86038 206.11187 105.47656 205.81836 C 105.10403 205.52485 104.69179 205.32187 104.24023 205.20898 C 103.78868 205.0961 102.84146 205.03906 101.39648 205.03906 L 98.855469 205.03906 z M 135.1543 205.03906 L 135.1543 217.43359 L 136.62695 217.43359 L 136.62695 211.55859 L 142.57031 211.55859 L 142.57031 217.43359 L 144.02734 217.43359 L 144.02734 205.03906 L 142.57031 205.03906 L 142.57031 210.13672 L 136.62695 210.13672 L 136.62695 205.03906 L 135.1543 205.03906 z M 146.76367 205.03906 L 146.76367 217.43359 L 153.92578 217.43359 L 153.92578 215.99414 L 148.21875 215.99414 L 148.21875 211.45703 L 153.92578 211.45703 L 153.92578 210.03516 L 148.21875 210.03516 L 148.21875 206.47852 L 153.97656 206.47852 L 153.97656 205.03906 L 146.76367 205.03906 z M 100.3125 206.46094 L 102.34375 206.46094 C 104.24028 206.46094 105.18945 207.10564 105.18945 208.39258 C 105.18945 208.96831 104.98019 209.44821 104.5625 209.83203 C 104.1561 210.21585 103.38237 210.39562 102.24219 210.37305 L 100.3125 210.37305 L 100.3125 206.46094 z M 91.265625 207.63086 L 93.146484 211.8125 L 89.369141 211.8125 L 91.265625 207.63086 z M 113.82227 207.63086 L 115.70117 211.8125 L 111.92578 211.8125 L 113.82227 207.63086 z "
         xlink:href="#text1538"
         style="font-style:normal;font-variant:normal;font-weight:600;font-stretch:normal;font-size:19.75555611px;line-height:1.25;font-family:'URW Gothic L';-inkscape-font-specification:'URW Gothic L Semi-Bold';letter-spacing:0px;word-spacing:0px;fill:#ffffff;fill-opacity:1;stroke:none;stroke-width:0.26458332"
         id="path4737"
         d="m 91.091797,204.61719 -5.796875,12.74804 H 86.75 l 1.878906,-4.10937 a 0.06843061,0.06843061 0 0 1 0.0625,-0.0391 h 5.115235 a 0.06843061,0.06843061 0 0 1 0.0625,0.0391 l 1.892578,4.10937 h 1.392578 l -5.712891,-12.74804 z m 22.554683,0 -5.79687,12.74804 h 1.45703 l 1.87891,-4.10937 a 0.06843061,0.06843061 0 0 1 0.0625,-0.0391 h 5.11328 a 0.06843061,0.06843061 0 0 1 0.0625,0.0391 l 1.89453,4.10937 h 1.39258 l -5.71289,-12.74804 z m 13.81055,0.18554 c -1.17443,0 -2.26756,0.28074 -3.28515,0.83985 -1.0173,0.55896 -1.81549,1.32732 -2.39649,2.31054 -0.56986,0.98328 -0.85351,2.05393 -0.85351,3.2168 0,1.88149 0.61868,3.4287 1.85937,4.6582 1.24035,1.22918 2.82747,1.8418 4.77734,1.8418 2.28397,0 4.07038,-0.82985 5.38672,-2.49414 l -1.02734,-0.7832 c -1.17486,1.34429 -2.56457,2.02734 -4.15625,2.02734 -1.60548,0 -2.92365,-0.48697 -3.94141,-1.45898 -1.00547,-0.98263 -1.51172,-2.20676 -1.51172,-3.65625 0,-1.461 0.51705,-2.70199 1.54493,-3.70703 1.03855,-1.00431 2.2779,-1.50977 3.70507,-1.50977 1.72478,0 3.18232,0.71078 4.35938,2.11133 l 1.01367,-0.7832 c -0.61928,-0.84539 -1.38416,-1.48837 -2.30273,-1.92579 a 0.06843061,0.06843061 0 0 1 -0.002,-0.002 c -0.92655,-0.45769 -1.98209,-0.68555 -3.16992,-0.68555 z m -28.533202,0.30469 v 12.25781 h 1.320312 v -5.58593 a 0.06843061,0.06843061 0 0 1 0.0684,-0.0684 h 0.74414 c 1.4305,0 2.42854,-0.0575 2.98242,-0.16797 0.55701,-0.12255 1.02169,-0.32208 1.39649,-0.59766 0.38646,-0.28708 0.67842,-0.64602 0.87695,-1.07617 a 0.06843061,0.06843061 0 0 1 0.002,0 c 0.20957,-0.43016 0.31446,-0.91666 0.31446,-1.46094 0,-0.54426 -0.10489,-1.03077 -0.31446,-1.46093 -0.21002,-0.4311 -0.5032,-0.78692 -0.8789,-1.07422 a 0.06843061,0.06843061 0 0 1 -0.002,0 c -0.3653,-0.28782 -0.76664,-0.48707 -1.20898,-0.59766 -0.43497,-0.10873 -1.38495,-0.16797 -2.82813,-0.16797 z m 36.298832,0 v 12.25781 h 1.33593 v -5.80664 a 0.06843061,0.06843061 0 0 1 0.0684,-0.0684 h 5.94336 a 0.06843061,0.06843061 0 0 1 0.0684,0.0684 v 5.80664 h 1.32031 v -12.25781 h -1.32031 v 5.0293 a 0.06843061,0.06843061 0 0 1 -0.0684,0.0684 h -5.94336 a 0.06843061,0.06843061 0 0 1 -0.0684,-0.0684 v -5.0293 z m 11.60937,0 v 12.25781 h 7.02539 v -1.30273 h -5.63867 a 0.06843061,0.06843061 0 0 1 -0.0684,-0.0684 v -4.53711 a 0.06843061,0.06843061 0 0 1 0.0684,-0.0684 h 5.63867 v -1.28515 h -5.63867 a 0.06843061,0.06843061 0 0 1 -0.0684,-0.0684 v -3.55664 a 0.06843061,0.06843061 0 0 1 0.0684,-0.0684 h 5.68945 v -1.30274 z m -46.53125,1.28516 a 0.06843061,0.06843061 0 0 1 0.0117,0 h 2.03125 c 0.95602,0 1.67999,0.1602 2.17187,0.49414 0.49189,0.33394 0.74219,0.84557 0.74219,1.50586 0,0.5918 -0.21894,1.09309 -0.64843,1.48828 -0.43017,0.40626 -1.22117,0.58327 -2.36915,0.56055 h -1.92773 a 0.06843061,0.06843061 0 0 1 -0.0684,-0.0684 v -3.91211 a 0.06843061,0.06843061 0 0 1 0.0566,-0.0684 z m -9.044921,1.16992 a 0.06843061,0.06843061 0 0 1 0.07227,0.041 l 1.880859,4.18164 a 0.06843061,0.06843061 0 0 1 -0.0625,0.0957 h -3.777343 a 0.06843061,0.06843061 0 0 1 -0.0625,-0.0957 l 1.896484,-4.18164 a 0.06843061,0.06843061 0 0 1 0.05273,-0.041 z m 22.556641,0 a 0.06843061,0.06843061 0 0 1 0.0723,0.041 l 1.8789,4.18164 a 0.06843061,0.06843061 0 0 1 -0.0625,0.0957 h -3.77539 a 0.06843061,0.06843061 0 0 1 -0.0625,-0.0957 l 1.89649,-4.18164 a 0.06843061,0.06843061 0 0 1 0.0527,-0.041 z"
         transform="translate(-0.68097964)"
         inkscape:href="#text1538" />
    </g>
  </g>
  <g
     inkscape:groupmode="layer"
     id="layer2"
     inkscape:label="Calcite">
    <g
       id="g915"
       transform="translate(0,-0.52916667)">
      <path
         inkscape:href="#text1546"
         transform="translate(13.49375,-208.24792)"
         d="m 91.857422,258.09961 c -4.863096,0 -9.455396,1.17027 -13.677734,3.49023 -4.22961,2.32396 -7.605175,5.57732 -10.029297,9.67969 a 1.7000694,1.7000694 0 0 0 -0.0078,0.0137 c -2.376799,4.10115 -3.574219,8.62406 -3.574219,13.45118 0,7.7234 2.622269,14.33088 7.785157,19.44726 5.171036,5.12445 11.928551,7.71094 19.898437,7.71094 9.429567,0 17.145927,-3.60327 22.601567,-10.63086 a 1.7000694,1.7000694 0 0 0 -0.3125,-2.39649 l -4.39649,-3.3457 a 1.7000694,1.7000694 0 0 0 -2.31836,0.24609 c -4.30187,5.00506 -9.105371,7.34766 -14.787108,7.34766 -5.82343,0 -10.343828,-1.69815 -13.912109,-5.10351 -3.543957,-3.4677 -5.253906,-7.59337 -5.253906,-12.75196 0,-5.19767 1.749207,-9.38925 5.386719,-12.94922 3.701198,-3.57918 7.923274,-5.29882 12.992187,-5.29882 6.226283,0 11.263817,2.4542 15.552737,7.65039 a 1.7000694,1.7000694 0 0 0 2.34961,0.26367 l 4.33008,-3.34571 a 1.7000694,1.7000694 0 0 0 0.34179,-2.33789 c -2.6008,-3.62253 -5.89968,-6.40432 -9.82226,-8.27539 -3.88653,-1.91834 -8.293096,-2.86523 -13.146488,-2.86523 z m 73.367188,0 a 1.7000694,1.7000694 0 0 0 -1.69922,1.69922 v 49.21289 a 1.7000694,1.7000694 0 0 0 1.69922,1.69922 h 5.37891 a 1.7000694,1.7000694 0 0 0 1.69921,-1.69922 v -49.21289 a 1.7000694,1.7000694 0 0 0 -1.69921,-1.69922 z m 58.18164,0 c -1.55082,0 -3.04853,0.63838 -4.1543,1.74414 a 1.7000694,1.7000694 0 0 0 -0.0332,0.0312 c -1.05452,1.11311 -1.64453,2.59482 -1.64453,4.12305 0,1.50011 0.60062,2.95473 1.64453,4.05664 a 1.7000694,1.7000694 0 0 0 0.0332,0.0312 c 1.10483,1.10481 2.60154,1.74609 4.1543,1.74609 1.55937,0 3.06648,-0.59188 4.1543,-1.67969 1.10576,-1.10576 1.74414,-2.60348 1.74414,-4.15429 0,-1.56337 -0.63178,-3.07068 -1.75,-4.14844 -1.07776,-1.11821 -2.58508,-1.75 -4.14844,-1.75 z m 14.97461,0 a 1.7000694,1.7000694 0 0 0 -1.69922,1.69922 v 11.75195 h -4.46875 a 1.7000694,1.7000694 0 0 0 -1.69922,1.69922 v 4.72461 a 1.7000694,1.7000694 0 0 0 1.69922,1.69922 h 4.46875 v 24.08789 c 0,2.4868 0.56011,4.61351 1.98242,6.09766 a 1.7000694,1.7000694 0 0 0 0.0254,0.0254 c 1.42376,1.42375 3.48781,2.00781 5.85938,2.00781 1.27541,0 2.92353,-0.18909 5.07031,-0.54688 a 1.7000694,1.7000694 0 0 0 1.41992,-1.67773 v -4.6582 a 1.7000694,1.7000694 0 0 0 -1.69922,-1.69922 h -3.15039 c -0.29209,0 -0.4459,-0.0201 -0.64453,-0.0332 -0.005,-0.0965 -0.0176,-0.11434 -0.0176,-0.23632 v -23.36719 h 5.38672 a 1.7000694,1.7000694 0 0 0 1.69922,-1.69922 V 273.25 a 1.7000694,1.7000694 0 0 0 -1.69922,-1.69922 h -5.38672 v -11.75195 a 1.7000694,1.7000694 0 0 0 -1.69922,-1.69922 z m -100.23047,12.5332 c -5.60671,0 -10.54979,2.07865 -14.46289,6.08203 -0.001,0.001 -0.003,0.003 -0.004,0.004 -0.001,0.001 -0.003,0.003 -0.004,0.004 -3.90736,3.95835 -5.92969,8.9086 -5.92969,14.50586 0,5.55566 1.99454,10.51743 5.84961,14.56054 a 1.7000694,1.7000694 0 0 0 0.0137,0.0137 c 3.90737,4.00152 8.78568,6.08985 14.27539,6.08985 4.29542,0 8.2561,-1.48762 11.75195,-4.25586 v 1.375 a 1.7000694,1.7000694 0 0 0 1.69922,1.69922 h 5.31446 a 1.7000694,1.7000694 0 0 0 1.69922,-1.69922 V 273.25 a 1.7000694,1.7000694 0 0 0 -1.69922,-1.69922 h -5.31446 a 1.7000694,1.7000694 0 0 0 -1.69922,1.69922 v 1.40625 c -3.28874,-2.63871 -7.17986,-4.02344 -11.49023,-4.02344 z m 59.17383,0 c -6.26276,0 -11.60293,2.06324 -15.63672,6.14063 -4.00121,4.00121 -6.07422,9.00192 -6.07422,14.65234 0,5.64596 2.04972,10.6106 6.01563,14.5293 a 1.7000694,1.7000694 0 0 0 0.008,0.008 c 4.0184,3.92385 9.14597,5.92969 15.03125,5.92969 3.77068,0 7.31903,-0.77589 10.56836,-2.32813 l 0.002,-0.002 c 3.31693,-1.56421 6.04714,-3.87934 8.0918,-6.875 a 1.7000694,1.7000694 0 0 0 -0.44141,-2.35938 l -4.19922,-2.88671 a 1.7000694,1.7000694 0 0 0 -2.28125,0.32812 c -3.15632,3.8847 -6.77146,5.67188 -11.28125,5.67188 -3.7797,10e-6 -6.68186,-1.18014 -9.08984,-3.62696 -2.43461,-2.47388 -3.58008,-5.26654 -3.58008,-8.71679 0,-3.44358 1.14921,-6.11131 3.59766,-8.4043 a 1.7000694,1.7000694 0 0 0 0.01,-0.01 c 2.45376,-2.3369 5.35998,-3.46875 9.0625,-3.46875 4.70549,1e-5 8.26181,1.76546 11.18555,5.57032 a 1.7000694,1.7000694 0 0 0 2.25391,0.40234 l 4.26562,-2.69141 a 1.7000694,1.7000694 0 0 0 0.54883,-2.3164 c -1.82007,-3.01749 -4.39898,-5.39495 -7.62305,-7.05664 l -0.002,-0.002 c -3.17643,-1.65886 -6.68498,-2.48828 -10.43164,-2.48828 z m 76.15234,0 c -5.61048,0 -10.52351,2.08633 -14.35351,6.10547 a 1.7000694,1.7000694 0 0 0 -0.008,0.006 c -3.77072,4.00638 -5.71093,8.96412 -5.71093,14.55078 0,5.58667 1.94001,10.54613 5.71093,14.55274 a 1.7000694,1.7000694 0 0 0 0.008,0.006 c 3.79941,3.98938 8.7813,6.03906 14.54883,6.03906 4.1546,0 7.85602,-0.9724 10.95703,-2.95899 a 1.7000694,1.7000694 0 0 0 0.0176,-0.01 c 3.09031,-2.028 5.69077,-5.0892 7.84571,-9.07813 a 1.7000694,1.7000694 0 0 0 -0.71875,-2.32031 l -4.59375,-2.36133 a 1.7000694,1.7000694 0 0 0 -2.27539,0.70899 c -2.80737,5.24856 -6.45252,7.56836 -11.625,7.56836 -2.96663,10e-6 -5.37017,-0.97501 -7.53711,-3.06055 -1.69429,-1.69991 -2.60061,-3.94324 -3.05078,-6.59961 h 29.28906 a 1.7000694,1.7000694 0 0 0 1.69922,-1.73633 c -0.13802,-6.44105 -2.10282,-11.75711 -5.94531,-15.59961 -3.7946,-3.83839 -8.67009,-5.8125 -14.25782,-5.8125 z m -52.75976,0.91797 a 1.7000694,1.7000694 0 0 0 -1.69922,1.69922 v 35.76172 a 1.7000694,1.7000694 0 0 0 1.69922,1.69922 h 5.44531 a 1.7000694,1.7000694 0 0 0 1.69922,-1.69922 V 273.25 a 1.7000694,1.7000694 0 0 0 -1.69922,-1.69922 z m -82.5,7.73047 c 3.3603,0 5.99703,1.11262 8.29101,3.48437 a 1.7000694,1.7000694 0 0 0 0.01,0.01 c 2.28306,2.32176 3.38476,5.08477 3.38476,8.65039 0,3.51168 -1.11029,6.24897 -3.4375,8.57617 -2.34737,2.34738 -4.96257,3.43946 -8.18359,3.43946 -3.25378,10e-6 -5.87284,-1.12317 -8.2207,-3.54688 -2.35786,-2.4781 -3.46485,-5.21752 -3.46485,-8.5332 0,-3.32506 1.08902,-6.04365 3.40235,-8.47461 a 1.7000694,1.7000694 0 0 0 0.01,-0.01 c 2.30231,-2.45839 4.91036,-3.5957 8.20899,-3.5957 z m 135.25976,0 c 2.69827,0 4.96114,0.7311 6.9961,2.22852 1.41211,1.0391 2.32089,2.45142 3.00976,4.08398 h -19.60937 c 0.83382,-1.78121 1.79836,-3.28387 3.01757,-4.25391 1.709,-1.35971 3.82331,-2.05859 6.58594,-2.05859 z"
         id="path2332"
         style="font-style:normal;font-variant:normal;font-weight:bold;font-stretch:normal;font-size:65.6166687px;line-height:1.25;font-family:'Heiti TC';-inkscape-font-specification:'Heiti TC Bold';letter-spacing:0px;word-spacing:0px;fill:#000000;fill-opacity:1;stroke:none;stroke-width:0.26458332"
         xlink:href="#text1546"
         inkscape:original="M 91.857422 259.79883 C 87.264255 259.79883 82.978791 260.89286 78.998047 263.08008 C 75.017302 265.2673 71.887992 268.28525 69.613281 272.13477 C 67.382315 275.98428 66.267578 280.18495 66.267578 284.73438 C 66.267578 292.08344 68.695148 298.16272 73.550781 302.97461 C 78.406415 307.7865 84.64042 310.19336 92.251953 310.19336 C 101.26331 310.19336 108.34987 306.86791 113.51172 300.21875 L 109.11523 296.87305 C 104.56581 302.16612 99.207029 304.8125 93.039062 304.8125 C 86.871096 304.8125 81.840521 302.95265 77.947266 299.23438 C 74.097754 295.47235 72.173828 290.81336 72.173828 285.25781 C 72.173828 279.65852 74.141125 274.93545 78.078125 271.08594 C 82.05887 267.23643 86.783897 265.31055 92.251953 265.31055 C 98.944853 265.31055 104.56581 268.06632 109.11523 273.57812 L 113.44531 270.23242 C 110.99562 266.82036 107.9343 264.24001 104.25977 262.49023 C 100.62898 260.69671 96.494333 259.79883 91.857422 259.79883 z M 165.22461 259.79883 L 165.22461 309.01172 L 170.60352 309.01172 L 170.60352 259.79883 L 165.22461 259.79883 z M 223.40625 259.79883 C 222.26889 259.79883 221.28427 260.21378 220.45312 261.04492 C 219.66572 261.87607 219.27344 262.86069 219.27344 263.99805 C 219.27344 265.09166 219.66572 266.05362 220.45312 266.88477 C 221.28427 267.71591 222.26889 268.13281 223.40625 268.13281 C 224.58735 268.13281 225.57197 267.73857 226.35938 266.95117 C 227.19052 266.12003 227.60547 265.1354 227.60547 263.99805 C 227.60547 262.81695 227.19052 261.83232 226.35938 261.04492 C 225.57197 260.21378 224.58735 259.79883 223.40625 259.79883 z M 238.38086 259.79883 L 238.38086 273.25 L 232.21289 273.25 L 232.21289 277.97461 L 238.38086 277.97461 L 238.38086 303.76172 C 238.38086 305.99269 238.8845 307.63373 239.89062 308.68359 C 240.89675 309.68972 242.44909 310.19336 244.54883 310.19336 C 245.64244 310.19336 247.24011 310.01792 249.33984 309.66797 L 249.33984 305.00977 L 246.18945 305.00977 C 245.13959 305.00977 244.48317 304.92107 244.2207 304.74609 C 243.95824 304.52737 243.82812 303.95965 243.82812 303.04102 L 243.82812 277.97461 L 250.91406 277.97461 L 250.91406 273.25 L 243.82812 273.25 L 243.82812 259.79883 L 238.38086 259.79883 z M 138.15039 272.33203 C 132.9448 272.33203 128.52727 274.19188 124.89648 277.91016 C 121.2657 281.58469 119.44922 286.02293 119.44922 291.22852 C 119.44922 296.39036 121.24303 300.85321 124.83008 304.61523 C 128.46087 308.33351 132.81432 310.19336 137.88867 310.19336 C 142.96303 310.19336 147.44659 308.04867 151.33984 303.76172 L 151.33984 309.01172 L 156.6543 309.01172 L 156.6543 273.25 L 151.33984 273.25 L 151.33984 278.69727 C 147.79654 274.45405 143.39972 272.33203 138.15039 272.33203 z M 197.32422 272.33203 C 191.41872 272.33203 186.60695 274.21259 182.88867 277.97461 C 179.17039 281.69289 177.3125 286.17645 177.3125 291.42578 C 177.3125 296.67511 179.14969 301.1153 182.82422 304.74609 C 186.5425 308.37688 191.15617 310.19336 196.66797 310.19336 C 200.21127 310.19336 203.49335 309.47091 206.51172 308.02734 C 209.57383 306.58378 212.04477 304.48442 213.92578 301.72852 L 209.72656 298.8418 C 206.3145 303.04126 202.11382 305.14062 197.12695 305.14062 C 192.97123 305.14063 189.53833 303.76176 186.82617 301.00586 C 184.11402 298.24996 182.75781 294.94717 182.75781 291.09766 C 182.75781 287.24815 184.13668 284.03405 186.89258 281.45312 C 189.64848 278.82846 193.05872 277.51562 197.12695 277.51562 C 202.2888 277.51563 206.46681 279.59428 209.66016 283.75 L 213.92578 281.05859 C 212.26349 278.30269 209.94533 276.15996 206.9707 274.62891 C 204.03983 273.09785 200.82377 272.33203 197.32422 272.33203 z M 273.47656 272.33203 C 268.27097 272.33203 263.89682 274.19188 260.35352 277.91016 C 256.85396 281.62843 255.10352 286.08933 255.10352 291.29492 C 255.10352 296.50051 256.85396 300.96336 260.35352 304.68164 C 263.85307 308.35617 268.29131 310.19336 273.67188 310.19336 C 277.56513 310.19336 280.91325 309.29548 283.71289 307.50195 C 286.51254 305.66469 288.9401 302.84288 290.99609 299.03711 L 286.40234 296.67578 C 283.38398 302.31881 279.00982 305.14062 273.2793 305.14062 C 269.91097 305.14063 267.00242 303.95986 264.55273 301.59766 C 262.14679 299.19171 260.83396 296.01903 260.61523 292.08203 L 291.98047 292.08203 C 291.84924 285.95781 290.03276 281.14604 286.5332 277.64648 C 283.03365 274.10318 278.68215 272.33203 273.47656 272.33203 z M 220.7168 273.25 L 220.7168 309.01172 L 226.16211 309.01172 L 226.16211 273.25 L 220.7168 273.25 z M 138.2168 277.58203 C 141.97882 277.58203 145.14955 278.91557 147.73047 281.58398 C 150.31139 284.20865 151.60156 287.48878 151.60156 291.42578 C 151.60156 295.31904 150.29068 298.57846 147.66602 301.20312 C 145.04135 303.82779 141.91204 305.14062 138.28125 305.14062 C 134.60672 305.14063 131.45865 303.78442 128.83398 301.07227 C 126.20932 298.31637 124.89648 295.07961 124.89648 291.36133 C 124.89648 287.64305 126.18666 284.427 128.76758 281.71484 C 131.3485 278.95894 134.49852 277.58203 138.2168 277.58203 z M 273.47656 277.58203 C 276.49493 277.58203 279.16201 278.43459 281.48047 280.14062 C 283.79892 281.84666 285.28719 284.23086 285.94336 287.29297 L 261.27148 287.29297 C 263.28373 280.81879 267.35234 277.58203 273.47656 277.58203 z "
         inkscape:radius="1.6998994"
         sodipodi:type="inkscape:offset" />
      <path
         inkscape:href="#text1546"
         transform="translate(13.493944,-208.24792)"
         d="m 91.857422,259.79883 c -4.593167,0 -8.878631,1.09403 -12.859375,3.28125 -3.980745,2.18722 -7.110055,5.20517 -9.384766,9.05469 -2.230966,3.84951 -3.345703,8.05018 -3.345703,12.59961 0,7.34906 2.42757,13.42834 7.283203,18.24023 4.855634,4.81189 11.089639,7.21875 18.701172,7.21875 9.011357,0 16.097917,-3.32545 21.259767,-9.97461 l -4.39649,-3.3457 c -4.54942,5.29307 -9.908201,7.93945 -16.076168,7.93945 -6.167966,0 -11.198541,-1.85985 -15.091796,-5.57812 -3.849512,-3.76203 -5.773438,-8.42102 -5.773438,-13.97657 0,-5.59929 1.967297,-10.32236 5.904297,-14.17187 3.980745,-3.84951 8.705772,-5.77539 14.173828,-5.77539 6.6929,0 12.313857,2.75577 16.863277,8.26757 l 4.33008,-3.3457 c -2.44969,-3.41206 -5.51101,-5.99241 -9.18554,-7.74219 -3.63079,-1.79352 -7.765437,-2.6914 -12.402348,-2.6914 z m 73.367188,0 v 49.21289 h 5.37891 v -49.21289 z m 58.18164,0 c -1.13736,0 -2.12198,0.41495 -2.95313,1.24609 -0.7874,0.83115 -1.17968,1.81577 -1.17968,2.95313 0,1.09361 0.39228,2.05557 1.17968,2.88672 0.83115,0.83114 1.81577,1.24804 2.95313,1.24804 1.1811,0 2.16572,-0.39424 2.95313,-1.18164 0.83114,-0.83114 1.24609,-1.81577 1.24609,-2.95312 0,-1.1811 -0.41495,-2.16573 -1.24609,-2.95313 -0.78741,-0.83114 -1.77203,-1.24609 -2.95313,-1.24609 z m 14.97461,0 V 273.25 h -6.16797 v 4.72461 h 6.16797 v 25.78711 c 0,2.23097 0.50364,3.87201 1.50976,4.92187 1.00613,1.00613 2.55847,1.50977 4.65821,1.50977 1.09361,0 2.69128,-0.17544 4.79101,-0.52539 v -4.6582 h -3.15039 c -1.04986,0 -1.70628,-0.0887 -1.96875,-0.26368 -0.26246,-0.21872 -0.39258,-0.78644 -0.39258,-1.70507 v -25.06641 h 7.08594 V 273.25 h -7.08594 v -13.45117 z m -100.23047,12.5332 c -5.20559,0 -9.62312,1.85985 -13.25391,5.57813 -3.63078,3.67453 -5.44726,8.11277 -5.44726,13.31836 0,5.16184 1.79381,9.62469 5.38086,13.38671 3.63079,3.71828 7.98424,5.57813 13.05859,5.57813 5.07436,0 9.55792,-2.14469 13.45117,-6.43164 v 5.25 h 5.31446 V 273.25 h -5.31446 v 5.44727 c -3.5433,-4.24322 -7.94012,-6.36524 -13.18945,-6.36524 z m 59.17383,0 c -5.9055,0 -10.71727,1.88056 -14.43555,5.64258 -3.71828,3.71828 -5.57617,8.20184 -5.57617,13.45117 0,5.24933 1.83719,9.68952 5.51172,13.32031 3.71828,3.63079 8.33195,5.44727 13.84375,5.44727 3.5433,0 6.82538,-0.72245 9.84375,-2.16602 3.06211,-1.44356 5.53305,-3.54292 7.41406,-6.29882 l -4.19922,-2.88672 c -3.41206,4.19946 -7.61274,6.29882 -12.59961,6.29882 -4.15572,10e-6 -7.58862,-1.37886 -10.30078,-4.13476 -2.71215,-2.7559 -4.06836,-6.05869 -4.06836,-9.9082 0,-3.84951 1.37887,-7.06361 4.13477,-9.64454 2.7559,-2.62466 6.16614,-3.9375 10.23437,-3.9375 5.16185,10e-6 9.33986,2.07866 12.53321,6.23438 l 4.26562,-2.69141 c -1.66229,-2.7559 -3.98045,-4.89863 -6.95508,-6.42968 -2.93087,-1.53106 -6.14693,-2.29688 -9.64648,-2.29688 z m 76.15234,0 c -5.20559,0 -9.57974,1.85985 -13.12304,5.57813 -3.49956,3.71827 -5.25,8.17917 -5.25,13.38476 0,5.20559 1.75044,9.66844 5.25,13.38672 3.49955,3.67453 7.93779,5.51172 13.31836,5.51172 3.89325,0 7.24137,-0.89788 10.04101,-2.69141 2.79965,-1.83726 5.22721,-4.65907 7.2832,-8.46484 l -4.59375,-2.36133 c -3.01836,5.64303 -7.39252,8.46484 -13.12304,8.46484 -3.36833,10e-6 -6.27688,-1.18076 -8.72657,-3.54296 -2.40594,-2.40595 -3.71877,-5.57863 -3.9375,-9.51563 h 31.36524 c -0.13123,-6.12422 -1.94771,-10.93599 -5.44727,-14.43555 -3.49955,-3.5433 -7.85105,-5.31445 -13.05664,-5.31445 z M 220.7168,273.25 v 35.76172 h 5.44531 V 273.25 Z m -82.5,4.33203 c 3.76202,0 6.93275,1.33354 9.51367,4.00195 2.58092,2.62467 3.87109,5.9048 3.87109,9.8418 0,3.89326 -1.31088,7.15268 -3.93554,9.77734 -2.62467,2.62467 -5.75398,3.9375 -9.38477,3.9375 -3.67453,10e-6 -6.8226,-1.3562 -9.44727,-4.06835 -2.62466,-2.7559 -3.9375,-5.99266 -3.9375,-9.71094 0,-3.71828 1.29018,-6.93433 3.8711,-9.64649 2.58092,-2.7559 5.73094,-4.13281 9.44922,-4.13281 z m 135.25976,0 c 3.01837,0 5.68545,0.85256 8.00391,2.55859 2.31845,1.70604 3.80672,4.09024 4.46289,7.15235 h -24.67188 c 2.01225,-6.47418 6.08086,-9.71094 12.20508,-9.71094 z"
         id="path1569"
         style="font-style:normal;font-variant:normal;font-weight:normal;font-stretch:normal;font-size:65.6166687px;line-height:1.25;font-family:Silom;-inkscape-font-specification:Silom;letter-spacing:0px;word-spacing:0px;fill:#ffffff;fill-opacity:1;stroke:none;stroke-width:0.26458332"
         xlink:href="#text1546"
         inkscape:original="M 91.857422 259.79883 C 87.264255 259.79883 82.978791 260.89286 78.998047 263.08008 C 75.017302 265.2673 71.887992 268.28525 69.613281 272.13477 C 67.382315 275.98428 66.267578 280.18495 66.267578 284.73438 C 66.267578 292.08344 68.695148 298.16272 73.550781 302.97461 C 78.406415 307.7865 84.64042 310.19336 92.251953 310.19336 C 101.26331 310.19336 108.34987 306.86791 113.51172 300.21875 L 109.11523 296.87305 C 104.56581 302.16612 99.207029 304.8125 93.039062 304.8125 C 86.871096 304.8125 81.840521 302.95265 77.947266 299.23438 C 74.097754 295.47235 72.173828 290.81336 72.173828 285.25781 C 72.173828 279.65852 74.141125 274.93545 78.078125 271.08594 C 82.05887 267.23643 86.783897 265.31055 92.251953 265.31055 C 98.944853 265.31055 104.56581 268.06632 109.11523 273.57812 L 113.44531 270.23242 C 110.99562 266.82036 107.9343 264.24001 104.25977 262.49023 C 100.62898 260.69671 96.494333 259.79883 91.857422 259.79883 z M 165.22461 259.79883 L 165.22461 309.01172 L 170.60352 309.01172 L 170.60352 259.79883 L 165.22461 259.79883 z M 223.40625 259.79883 C 222.26889 259.79883 221.28427 260.21378 220.45312 261.04492 C 219.66572 261.87607 219.27344 262.86069 219.27344 263.99805 C 219.27344 265.09166 219.66572 266.05362 220.45312 266.88477 C 221.28427 267.71591 222.26889 268.13281 223.40625 268.13281 C 224.58735 268.13281 225.57197 267.73857 226.35938 266.95117 C 227.19052 266.12003 227.60547 265.1354 227.60547 263.99805 C 227.60547 262.81695 227.19052 261.83232 226.35938 261.04492 C 225.57197 260.21378 224.58735 259.79883 223.40625 259.79883 z M 238.38086 259.79883 L 238.38086 273.25 L 232.21289 273.25 L 232.21289 277.97461 L 238.38086 277.97461 L 238.38086 303.76172 C 238.38086 305.99269 238.8845 307.63373 239.89062 308.68359 C 240.89675 309.68972 242.44909 310.19336 244.54883 310.19336 C 245.64244 310.19336 247.24011 310.01792 249.33984 309.66797 L 249.33984 305.00977 L 246.18945 305.00977 C 245.13959 305.00977 244.48317 304.92107 244.2207 304.74609 C 243.95824 304.52737 243.82812 303.95965 243.82812 303.04102 L 243.82812 277.97461 L 250.91406 277.97461 L 250.91406 273.25 L 243.82812 273.25 L 243.82812 259.79883 L 238.38086 259.79883 z M 138.15039 272.33203 C 132.9448 272.33203 128.52727 274.19188 124.89648 277.91016 C 121.2657 281.58469 119.44922 286.02293 119.44922 291.22852 C 119.44922 296.39036 121.24303 300.85321 124.83008 304.61523 C 128.46087 308.33351 132.81432 310.19336 137.88867 310.19336 C 142.96303 310.19336 147.44659 308.04867 151.33984 303.76172 L 151.33984 309.01172 L 156.6543 309.01172 L 156.6543 273.25 L 151.33984 273.25 L 151.33984 278.69727 C 147.79654 274.45405 143.39972 272.33203 138.15039 272.33203 z M 197.32422 272.33203 C 191.41872 272.33203 186.60695 274.21259 182.88867 277.97461 C 179.17039 281.69289 177.3125 286.17645 177.3125 291.42578 C 177.3125 296.67511 179.14969 301.1153 182.82422 304.74609 C 186.5425 308.37688 191.15617 310.19336 196.66797 310.19336 C 200.21127 310.19336 203.49335 309.47091 206.51172 308.02734 C 209.57383 306.58378 212.04477 304.48442 213.92578 301.72852 L 209.72656 298.8418 C 206.3145 303.04126 202.11382 305.14062 197.12695 305.14062 C 192.97123 305.14063 189.53833 303.76176 186.82617 301.00586 C 184.11402 298.24996 182.75781 294.94717 182.75781 291.09766 C 182.75781 287.24815 184.13668 284.03405 186.89258 281.45312 C 189.64848 278.82846 193.05872 277.51562 197.12695 277.51562 C 202.2888 277.51563 206.46681 279.59428 209.66016 283.75 L 213.92578 281.05859 C 212.26349 278.30269 209.94533 276.15996 206.9707 274.62891 C 204.03983 273.09785 200.82377 272.33203 197.32422 272.33203 z M 273.47656 272.33203 C 268.27097 272.33203 263.89682 274.19188 260.35352 277.91016 C 256.85396 281.62843 255.10352 286.08933 255.10352 291.29492 C 255.10352 296.50051 256.85396 300.96336 260.35352 304.68164 C 263.85307 308.35617 268.29131 310.19336 273.67188 310.19336 C 277.56513 310.19336 280.91325 309.29548 283.71289 307.50195 C 286.51254 305.66469 288.9401 302.84288 290.99609 299.03711 L 286.40234 296.67578 C 283.38398 302.31881 279.00982 305.14062 273.2793 305.14062 C 269.91097 305.14063 267.00242 303.95986 264.55273 301.59766 C 262.14679 299.19171 260.83396 296.01903 260.61523 292.08203 L 291.98047 292.08203 C 291.84924 285.95781 290.03276 281.14604 286.5332 277.64648 C 283.03365 274.10318 278.68215 272.33203 273.47656 272.33203 z M 220.7168 273.25 L 220.7168 309.01172 L 226.16211 309.01172 L 226.16211 273.25 L 220.7168 273.25 z M 138.2168 277.58203 C 141.97882 277.58203 145.14955 278.91557 147.73047 281.58398 C 150.31139 284.20865 151.60156 287.48878 151.60156 291.42578 C 151.60156 295.31904 150.29068 298.57846 147.66602 301.20312 C 145.04135 303.82779 141.91204 305.14062 138.28125 305.14062 C 134.60672 305.14063 131.45865 303.78442 128.83398 301.07227 C 126.20932 298.31637 124.89648 295.07961 124.89648 291.36133 C 124.89648 287.64305 126.18666 284.427 128.76758 281.71484 C 131.3485 278.95894 134.49852 277.58203 138.2168 277.58203 z M 273.47656 277.58203 C 276.49493 277.58203 279.16201 278.43459 281.48047 280.14062 C 283.79892 281.84666 285.28719 284.23086 285.94336 287.29297 L 261.27148 287.29297 C 263.28373 280.81879 267.35234 277.58203 273.47656 277.58203 z "
         inkscape:radius="0"
         sodipodi:type="inkscape:offset" />
    </g>
  </g>
</svg>
